<?xml version="1.0" encoding="UTF-8"?>
<svg width="122px" height="122px" viewBox="0 0 122 122" version="1.1" xmlns="http://www.w3.org/2000/svg" xmlns:xlink="http://www.w3.org/1999/xlink">
    <!-- Generator: Sketch 60 (88103) - https://sketch.com -->
    <title>Icon/Flow</title>
    <desc>Created with Sketch.</desc>
    <g id="Icon/Flow" stroke="none" stroke-width="1" fill="none" fill-rule="evenodd">
        <path d="M61,0 C27.3907767,0 0,27.2427184 0,61 C0,94.6092233 27.2427184,122 61,122 C94.7572816,122 122,94.7572816 122,61 C122,61 122,61 122,61 C122,27.2427184 94.6092233,0 61,0 Z M108.378641,61 C108.378641,63.2208738 108.230583,65.5898058 107.786408,67.8106796 L82.9126214,67.8106796 L55.8179612,94.7572816 L27.8349515,94.7572816 C23.8373786,90.907767 20.5800971,86.3179612 18.211165,81.2839806 L50.1917476,81.2839806 L77.2864078,54.1893204 L107.786408,54.1893204 C108.230583,56.4101942 108.378641,58.631068 108.378641,61 L108.378641,61 Z M60.407767,13.6213592 L33.3131068,40.7160194 L18.0631068,40.7160194 C25.9101942,24.2815534 42.3446602,13.7694175 60.407767,13.6213592 L60.407767,13.6213592 Z M14.065534,54.1893204 L38.9393204,54.1893204 L66.0339806,27.0946602 L94.0169903,27.0946602 C98.0145631,30.9441748 101.271845,35.5339806 103.640777,40.5679612 L71.6601942,40.5679612 L44.7135922,67.6626214 L14.065534,67.6626214 C13.3252427,63.2208738 13.3252427,58.631068 14.065534,54.1893204 L14.065534,54.1893204 Z M61.4441748,108.378641 L88.538835,81.2839806 L103.640777,81.2839806 C95.9417476,97.5703883 79.5072816,108.082524 61.4441748,108.378641 L61.4441748,108.378641 Z" id="Shape-Copy" fill="#FF7C66" fill-rule="nonzero"></path>
    </g>
</svg>