<?xml version="1.0" encoding="UTF-8"?>
<svg xmlns="http://www.w3.org/2000/svg" width="75" height="76" viewBox="0 0 36 37" fill="none">
  <path d="M18 36.5C27.9411 36.5 36 28.4411 36 18.5C36 8.55887 27.9411 0.5 18 0.5C8.05887 0.5 0 8.55887 0 18.5C0 28.4411 8.05887 36.5 18 36.5Z" fill="url(#paint0_linear_228_3526)"></path>
  <path d="M21.3654 12.2077C23.1694 12.2077 24.6379 10.7393 24.6379 8.93527C24.6379 7.13128 23.1694 5.66284 21.3654 5.66284C19.5615 5.66284 18.093 7.13128 18.093 8.93527C18.093 10.7393 19.5615 12.2077 21.3654 12.2077ZM21.3654 6.83228C22.5249 6.83228 23.4684 7.7758 23.4684 8.93527C23.4684 10.0947 22.5249 11.0383 21.3654 11.0383C20.206 11.0383 19.2625 10.0947 19.2625 8.93527C19.2625 7.7758 20.206 6.83228 21.3654 6.83228Z" fill="white"></path>
  <path d="M21.9501 24.8455V21.7159C23.475 21.4402 24.6378 20.1046 24.6378 18.5C24.6378 16.696 23.1694 15.2275 21.3654 15.2275C19.7608 15.2275 18.4252 16.3903 18.1495 17.9152H16.6711C16.4053 16.7126 15.3322 15.8123 14.0465 15.8123C12.5614 15.8123 11.3588 17.0149 11.3588 18.5C11.3588 19.985 12.5614 21.1877 14.0465 21.1877C15.3289 21.1877 16.402 20.2873 16.6711 19.0847H18.1495C18.392 20.4202 19.4451 21.4767 20.784 21.7192V24.8488C19.2591 25.1245 18.0963 26.4601 18.0963 28.0647C18.0963 29.8687 19.5647 31.3372 21.3687 31.3372C23.1727 31.3372 24.6412 29.8687 24.6412 28.0647C24.6412 26.4601 23.4784 25.1245 21.9535 24.8488L21.9501 24.8455ZM19.2624 18.4966C19.2624 17.3372 20.2059 16.3937 21.3654 16.3937C22.5249 16.3937 23.4684 17.3372 23.4684 18.4966C23.4684 19.6561 22.5249 20.5996 21.3654 20.5996C20.2059 20.5996 19.2624 19.6561 19.2624 18.4966ZM21.3654 30.1644C20.2059 30.1644 19.2624 29.2209 19.2624 28.0614C19.2624 26.902 20.2059 25.9584 21.3654 25.9584C22.5249 25.9584 23.4684 26.902 23.4684 28.0614C23.4684 29.2209 22.5249 30.1644 21.3654 30.1644Z" fill="white"></path>
  <path d="M27.8405 19.6594C26.0366 19.6594 24.5681 21.1279 24.5681 22.9318C24.5681 24.7358 26.0366 26.2043 27.8405 26.2043C29.6445 26.2043 31.113 24.7358 31.113 22.9318C31.113 21.1279 29.6445 19.6594 27.8405 19.6594ZM27.8405 25.0348C26.6811 25.0348 25.7376 24.0913 25.7376 22.9318C25.7376 21.7724 26.6811 20.8289 27.8405 20.8289C29 20.8289 29.9435 21.7724 29.9435 22.9318C29.9435 24.0913 29 25.0348 27.8405 25.0348Z" fill="white"></path>
  <path d="M16.532 9.96532C17.1001 8.59393 16.4488 7.02171 15.0774 6.45366C13.706 5.88561 12.1338 6.53685 11.5658 7.90824C10.9977 9.27963 11.649 10.8519 13.0203 11.4199C14.3917 11.9879 15.964 11.3367 16.532 9.96532Z" fill="white"></path>
  <path d="M14.4797 30.7157C15.9449 30.4778 16.9399 29.0972 16.7021 27.632C16.4642 26.1668 15.0836 25.1719 13.6184 25.4097C12.1532 25.6475 11.1583 27.0281 11.3961 28.4933C11.6339 29.9585 13.0145 30.9535 14.4797 30.7157Z" fill="white"></path>
  <path d="M7.5747 16.3903C8.85709 16.3903 9.93018 15.49 10.1993 14.2873H24.6279C24.9036 15.8122 26.2391 16.975 27.8438 16.975C29.6478 16.975 31.1162 15.5066 31.1162 13.7026C31.1162 11.8986 29.6478 10.4302 27.8438 10.4302C26.2391 10.4302 24.9036 11.593 24.6279 13.1179H10.196C9.93018 11.9152 8.85709 11.0149 7.57138 11.0149C6.08633 11.0149 4.88367 12.2176 4.88367 13.7026C4.88367 15.1877 6.08633 16.3903 7.57138 16.3903H7.5747ZM27.8438 11.5963C29.0033 11.5963 29.9468 12.5398 29.9468 13.6993C29.9468 14.8587 29.0033 15.8023 27.8438 15.8023C26.6843 15.8023 25.7408 14.8587 25.7408 13.6993C25.7408 12.5398 26.6843 11.5963 27.8438 11.5963Z" fill="white"></path>
  <path d="M7.57479 25.6196C9.05917 25.6196 10.2625 24.4162 10.2625 22.9318C10.2625 21.4475 9.05917 20.2441 7.57479 20.2441C6.09041 20.2441 4.88708 21.4475 4.88708 22.9318C4.88708 24.4162 6.09041 25.6196 7.57479 25.6196Z" fill="white"></path>
  <defs>
    <linearGradient id="paint0_linear_228_3526" x1="-5.96048e-08" y1="36.5" x2="36" y2="0.5" gradientUnits="userSpaceOnUse">
      <stop stop-color="#4B4FE2"></stop>
      <stop offset="0.0001" stop-color="#4A50E1"></stop>
      <stop offset="0.0002" stop-color="#4A51E1"></stop>
      <stop offset="1" stop-color="#0EC38B"></stop>
    </linearGradient>
  </defs>
</svg>
