<svg width="64" height="64" viewBox="0 0 64 64" fill="none" xmlns="http://www.w3.org/2000/svg">
<circle cx="32" cy="32" r="32" fill="#262626"/>
<path d="M46.6 34.7999C46.495 34.8787 46.3754 34.936 46.2482 34.9686C46.121 35.0012 45.9886 35.0084 45.8586 34.9898C45.7286 34.9713 45.6035 34.9273 45.4905 34.8604C45.3775 34.7935 45.2788 34.705 45.2 34.5999C44.5973 33.7897 43.8127 33.1324 42.9096 32.6808C42.0064 32.2292 41.0098 31.996 40 31.9999C39.8034 31.9999 39.6111 31.9419 39.4472 31.8332C39.2834 31.7244 39.1552 31.5698 39.0788 31.3886C39.0269 31.2656 39.0001 31.1334 39.0001 30.9999C39.0001 30.8664 39.0269 30.7342 39.0788 30.6111C39.1552 30.43 39.2834 30.2754 39.4472 30.1666C39.6111 30.0579 39.8034 29.9999 40 29.9999C40.5611 29.9998 41.1109 29.8424 41.5871 29.5456C42.0632 29.2487 42.4465 28.8243 42.6935 28.3204C42.9405 27.8166 43.0412 27.2537 42.9843 26.6955C42.9273 26.1373 42.715 25.6062 42.3714 25.1627C42.0278 24.7191 41.5666 24.3808 41.0404 24.1862C40.5141 23.9915 39.9439 23.9484 39.3943 24.0616C38.8448 24.1749 38.338 24.4399 37.9315 24.8268C37.5251 25.2136 37.2353 25.7066 37.095 26.2499C37.0622 26.3771 37.0046 26.4966 36.9256 26.6016C36.8466 26.7066 36.7477 26.7949 36.6345 26.8617C36.5213 26.9284 36.3961 26.9722 36.266 26.9906C36.1359 27.0089 36.0035 27.0015 35.8763 26.9686C35.749 26.9358 35.6295 26.8783 35.5246 26.7992C35.4196 26.7202 35.3312 26.6213 35.2645 26.5081C35.1977 26.395 35.1539 26.2697 35.1356 26.1397C35.1172 26.0096 35.1247 25.8771 35.1575 25.7499C35.3522 24.9965 35.72 24.299 36.2318 23.7128C36.7435 23.1267 37.3849 22.668 38.1051 22.3733C38.8252 22.0787 39.6042 21.9562 40.3801 22.0156C41.1559 22.0749 41.9072 22.3146 42.5741 22.7154C43.241 23.1162 43.8052 23.6672 44.2217 24.3244C44.6383 24.9817 44.8957 25.727 44.9734 26.5012C45.0512 27.2755 44.9472 28.0571 44.6697 28.7841C44.3922 29.511 43.9489 30.1632 43.375 30.6886C44.7348 31.2774 45.9168 32.2117 46.8038 33.3986C46.8826 33.504 46.9398 33.6238 46.9722 33.7513C47.0046 33.8788 47.0115 34.0114 46.9926 34.1415C46.9737 34.2717 46.9293 34.3969 46.8619 34.5098C46.7945 34.6228 46.7055 34.7214 46.6 34.7999ZM25 30.9999C25 30.7347 24.8947 30.4803 24.7071 30.2928C24.5196 30.1053 24.2652 29.9999 24 29.9999C23.4389 29.9998 22.8891 29.8424 22.413 29.5456C21.9369 29.2487 21.5535 28.8243 21.3066 28.3204C21.0596 27.8166 20.9588 27.2537 21.0158 26.6955C21.0727 26.1373 21.285 25.6062 21.6286 25.1627C21.9723 24.7191 22.4334 24.3808 22.9596 24.1862C23.4859 23.9915 24.0562 23.9484 24.6057 24.0616C25.1553 24.1749 25.662 24.4399 26.0685 24.8268C26.4749 25.2136 26.7647 25.7066 26.905 26.2499C26.9713 26.5068 27.137 26.7269 27.3655 26.8617C27.5941 26.9965 27.8668 27.035 28.1238 26.9686C28.3807 26.9023 28.6008 26.7367 28.7355 26.5081C28.8703 26.2796 28.9088 26.0068 28.8425 25.7499C28.6478 24.9965 28.28 24.299 27.7683 23.7128C27.2566 23.1267 26.6151 22.668 25.895 22.3733C25.1748 22.0787 24.3958 21.9562 23.62 22.0156C22.8441 22.0749 22.0928 22.3146 21.4259 22.7154C20.759 23.1162 20.1948 23.6672 19.7783 24.3244C19.3618 24.9817 19.1044 25.727 19.0266 26.5012C18.9488 27.2755 19.0528 28.0571 19.3303 28.7841C19.6078 29.511 20.0511 30.1632 20.625 30.6886C19.2666 31.278 18.0859 32.2122 17.2 33.3986C17.0407 33.6108 16.9722 33.8776 17.0096 34.1403C17.047 34.4029 17.1872 34.64 17.3994 34.7993C17.6116 34.9586 17.8783 35.0271 18.141 34.9897C18.4037 34.9523 18.6407 34.8121 18.8 34.5999C19.4027 33.7897 20.1873 33.1324 21.0905 32.6808C21.9936 32.2292 22.9902 31.996 24 31.9999C24.2652 31.9999 24.5196 31.8945 24.7071 31.707C24.8947 31.5195 25 31.2651 25 30.9999Z" fill="#A9DFDA"/>
<path d="M39.865 42.5001C39.9373 42.6139 39.9859 42.7412 40.0078 42.8743C40.0297 43.0074 40.0244 43.1435 39.9923 43.2745C39.9602 43.4055 39.902 43.5286 39.8211 43.6365C39.7402 43.7444 39.6383 43.8348 39.5215 43.9023C39.4047 43.9698 39.2755 44.013 39.1416 44.0293C39.0077 44.0455 38.872 44.0346 38.7424 43.997C38.6129 43.9594 38.4923 43.896 38.3879 43.8106C38.2835 43.7252 38.1975 43.6196 38.135 43.5001C37.505 42.4334 36.6079 41.5494 35.532 40.9354C34.4561 40.3213 33.2388 39.9983 32 39.9983C30.7612 39.9983 29.5438 40.3213 28.4679 40.9354C27.3921 41.5494 26.4949 42.4334 25.865 43.5001C25.8025 43.6196 25.7164 43.7252 25.612 43.8106C25.5076 43.896 25.387 43.9594 25.2575 43.997C25.128 44.0346 24.9922 44.0455 24.8583 44.0293C24.7244 44.013 24.5952 43.9698 24.4784 43.9023C24.3617 43.8348 24.2598 43.7444 24.1789 43.6365C24.0979 43.5286 24.0397 43.4055 24.0076 43.2745C23.9755 43.1435 23.9703 43.0074 23.9921 42.8743C24.014 42.7412 24.0626 42.6139 24.135 42.5001C25.1045 40.8343 26.5827 39.5234 28.3525 38.7601C27.3566 37.9976 26.6248 36.9423 26.2597 35.7424C25.8947 34.5425 25.9148 33.2583 26.3174 32.0705C26.7199 30.8826 27.4845 29.8508 28.5038 29.1199C29.5231 28.3891 30.7458 27.9961 32 27.9961C33.2542 27.9961 34.4768 28.3891 35.4961 29.1199C36.5154 29.8508 37.2801 30.8826 37.6826 32.0705C38.0851 33.2583 38.1053 34.5425 37.7402 35.7424C37.3752 36.9423 36.6433 37.9976 35.6475 38.7601C37.4172 39.5234 38.8955 40.8343 39.865 42.5001ZM32 38.0001C32.7911 38.0001 33.5645 37.7655 34.2222 37.326C34.88 36.8865 35.3927 36.2617 35.6955 35.5308C35.9982 34.7999 36.0774 33.9957 35.9231 33.2197C35.7688 32.4438 35.3878 31.7311 34.8284 31.1717C34.269 30.6123 33.5563 30.2313 32.7803 30.077C32.0044 29.9226 31.2001 30.0018 30.4692 30.3046C29.7383 30.6073 29.1136 31.12 28.6741 31.7778C28.2346 32.4356 28 33.209 28 34.0001C28 35.061 28.4214 36.0784 29.1715 36.8285C29.9217 37.5787 30.9391 38.0001 32 38.0001Z" fill="#AA594B"/>
</svg>
