<svg width="74" height="74" viewBox="0 0 74 74" fill="none" xmlns="http://www.w3.org/2000/svg">
<g filter="url(#filter0_d_418_41405)">
<circle cx="37" cy="37" r="32" fill="white"/>
</g>
<path d="M51.6 39.7999C51.495 39.8787 51.3754 39.936 51.2482 39.9686C51.121 40.0012 50.9886 40.0084 50.8586 39.9898C50.7286 39.9713 50.6035 39.9273 50.4905 39.8604C50.3775 39.7935 50.2788 39.705 50.2 39.5999C49.5973 38.7897 48.8127 38.1324 47.9096 37.6808C47.0064 37.2292 46.0098 36.996 45 36.9999C44.8034 36.9999 44.6111 36.9419 44.4472 36.8332C44.2834 36.7244 44.1552 36.5698 44.0788 36.3886C44.0269 36.2656 44.0001 36.1334 44.0001 35.9999C44.0001 35.8664 44.0269 35.7342 44.0788 35.6111C44.1552 35.43 44.2834 35.2754 44.4472 35.1666C44.6111 35.0579 44.8034 34.9999 45 34.9999C45.5611 34.9998 46.1109 34.8424 46.5871 34.5456C47.0632 34.2487 47.4465 33.8243 47.6935 33.3204C47.9405 32.8166 48.0412 32.2537 47.9843 31.6955C47.9273 31.1373 47.715 30.6062 47.3714 30.1627C47.0278 29.7191 46.5666 29.3808 46.0404 29.1862C45.5141 28.9915 44.9439 28.9484 44.3943 29.0616C43.8448 29.1749 43.338 29.4399 42.9315 29.8268C42.5251 30.2136 42.2353 30.7066 42.095 31.2499C42.0622 31.3771 42.0046 31.4966 41.9256 31.6016C41.8466 31.7066 41.7477 31.7949 41.6345 31.8617C41.5213 31.9284 41.3961 31.9722 41.266 31.9906C41.1359 32.0089 41.0035 32.0015 40.8763 31.9686C40.749 31.9358 40.6295 31.8783 40.5246 31.7992C40.4196 31.7202 40.3312 31.6213 40.2645 31.5081C40.1977 31.395 40.1539 31.2697 40.1356 31.1397C40.1172 31.0096 40.1247 30.8771 40.1575 30.7499C40.3522 29.9965 40.72 29.299 41.2318 28.7128C41.7435 28.1267 42.3849 27.668 43.1051 27.3733C43.8252 27.0787 44.6042 26.9562 45.3801 27.0156C46.1559 27.0749 46.9072 27.3146 47.5741 27.7154C48.241 28.1162 48.8052 28.6672 49.2217 29.3244C49.6383 29.9817 49.8957 30.727 49.9734 31.5012C50.0512 32.2755 49.9472 33.0571 49.6697 33.7841C49.3922 34.511 48.9489 35.1632 48.375 35.6886C49.7348 36.2774 50.9168 37.2117 51.8038 38.3986C51.8826 38.504 51.9398 38.6238 51.9722 38.7513C52.0046 38.8788 52.0115 39.0114 51.9926 39.1415C51.9737 39.2717 51.9293 39.3969 51.8619 39.5098C51.7945 39.6228 51.7055 39.7214 51.6 39.7999ZM30 35.9999C30 35.7347 29.8947 35.4803 29.7071 35.2928C29.5196 35.1053 29.2652 34.9999 29 34.9999C28.4389 34.9998 27.8891 34.8424 27.413 34.5456C26.9369 34.2487 26.5535 33.8243 26.3066 33.3204C26.0596 32.8166 25.9588 32.2537 26.0158 31.6955C26.0727 31.1373 26.285 30.6062 26.6286 30.1627C26.9723 29.7191 27.4334 29.3808 27.9596 29.1862C28.4859 28.9915 29.0562 28.9484 29.6057 29.0616C30.1553 29.1749 30.662 29.4399 31.0685 29.8268C31.4749 30.2136 31.7647 30.7066 31.905 31.2499C31.9713 31.5068 32.137 31.7269 32.3655 31.8617C32.5941 31.9965 32.8668 32.035 33.1238 31.9686C33.3807 31.9023 33.6008 31.7367 33.7355 31.5081C33.8703 31.2796 33.9088 31.0068 33.8425 30.7499C33.6478 29.9965 33.28 29.299 32.7683 28.7128C32.2566 28.1267 31.6151 27.668 30.895 27.3733C30.1748 27.0787 29.3958 26.9562 28.62 27.0156C27.8441 27.0749 27.0928 27.3146 26.4259 27.7154C25.759 28.1162 25.1948 28.6672 24.7783 29.3244C24.3618 29.9817 24.1044 30.727 24.0266 31.5012C23.9488 32.2755 24.0528 33.0571 24.3303 33.7841C24.6078 34.511 25.0511 35.1632 25.625 35.6886C24.2666 36.278 23.0859 37.2122 22.2 38.3986C22.0407 38.6108 21.9722 38.8776 22.0096 39.1403C22.047 39.4029 22.1872 39.64 22.3994 39.7993C22.6116 39.9586 22.8783 40.0271 23.141 39.9897C23.4037 39.9523 23.6407 39.8121 23.8 39.5999C24.4027 38.7897 25.1873 38.1324 26.0905 37.6808C26.9936 37.2292 27.9902 36.996 29 36.9999C29.2652 36.9999 29.5196 36.8945 29.7071 36.707C29.8947 36.5195 30 36.2651 30 35.9999Z" fill="#02293B"/>
<path d="M44.865 47.5001C44.9373 47.6139 44.9859 47.7412 45.0078 47.8743C45.0297 48.0074 45.0244 48.1435 44.9923 48.2745C44.9602 48.4055 44.902 48.5286 44.8211 48.6365C44.7402 48.7444 44.6383 48.8348 44.5215 48.9023C44.4047 48.9698 44.2755 49.013 44.1416 49.0293C44.0077 49.0455 43.872 49.0346 43.7424 48.997C43.6129 48.9594 43.4923 48.896 43.3879 48.8106C43.2835 48.7252 43.1975 48.6196 43.135 48.5001C42.505 47.4334 41.6079 46.5494 40.532 45.9354C39.4561 45.3213 38.2388 44.9983 37 44.9983C35.7612 44.9983 34.5438 45.3213 33.4679 45.9354C32.3921 46.5494 31.4949 47.4334 30.865 48.5001C30.8025 48.6196 30.7164 48.7252 30.612 48.8106C30.5076 48.896 30.387 48.9594 30.2575 48.997C30.128 49.0346 29.9922 49.0455 29.8583 49.0293C29.7244 49.013 29.5952 48.9698 29.4784 48.9023C29.3617 48.8348 29.2598 48.7444 29.1789 48.6365C29.0979 48.5286 29.0397 48.4055 29.0076 48.2745C28.9755 48.1435 28.9703 48.0074 28.9921 47.8743C29.014 47.7412 29.0626 47.6139 29.135 47.5001C30.1045 45.8343 31.5827 44.5234 33.3525 43.7601C32.3566 42.9976 31.6248 41.9423 31.2597 40.7424C30.8947 39.5425 30.9148 38.2583 31.3174 37.0705C31.7199 35.8826 32.4845 34.8508 33.5038 34.1199C34.5231 33.3891 35.7458 32.9961 37 32.9961C38.2542 32.9961 39.4768 33.3891 40.4961 34.1199C41.5154 34.8508 42.2801 35.8826 42.6826 37.0705C43.0851 38.2583 43.1053 39.5425 42.7402 40.7424C42.3752 41.9423 41.6433 42.9976 40.6475 43.7601C42.4172 44.5234 43.8955 45.8343 44.865 47.5001ZM37 43.0001C37.7911 43.0001 38.5645 42.7655 39.2222 42.326C39.88 41.8865 40.3927 41.2617 40.6955 40.5308C40.9982 39.7999 41.0774 38.9957 40.9231 38.2197C40.7688 37.4438 40.3878 36.7311 39.8284 36.1717C39.269 35.6123 38.5563 35.2313 37.7803 35.077C37.0044 34.9226 36.2001 35.0018 35.4692 35.3046C34.7383 35.6073 34.1136 36.12 33.6741 36.7778C33.2346 37.4356 33 38.209 33 39.0001C33 40.061 33.4214 41.0784 34.1715 41.8285C34.9217 42.5787 35.9391 43.0001 37 43.0001Z" fill="#FF8A76"/>
<defs>
<filter id="filter0_d_418_41405" x="0" y="0" width="74" height="74" filterUnits="userSpaceOnUse" color-interpolation-filters="sRGB">
<feFlood flood-opacity="0" result="BackgroundImageFix"/>
<feColorMatrix in="SourceAlpha" type="matrix" values="0 0 0 0 0 0 0 0 0 0 0 0 0 0 0 0 0 0 127 0" result="hardAlpha"/>
<feOffset/>
<feGaussianBlur stdDeviation="2.5"/>
<feComposite in2="hardAlpha" operator="out"/>
<feColorMatrix type="matrix" values="0 0 0 0 0 0 0 0 0 0 0 0 0 0 0 0 0 0 0.1 0"/>
<feBlend mode="normal" in2="BackgroundImageFix" result="effect1_dropShadow_418_41405"/>
<feBlend mode="normal" in="SourceGraphic" in2="effect1_dropShadow_418_41405" result="shape"/>
</filter>
</defs>
</svg>
