<svg width="64" height="64" viewBox="0 0 64 64" fill="none" xmlns="http://www.w3.org/2000/svg">
<circle cx="32" cy="32" r="32" fill="#262626"/>
<path d="M47 32C47.0011 30.8516 46.7196 29.7206 46.1803 28.7066C45.6411 27.6927 44.8607 26.827 43.9079 26.1859C42.9551 25.5448 41.8592 25.1479 40.7168 25.0303C39.5744 24.9127 38.4207 25.078 37.3573 25.5116C36.2938 25.9451 35.3534 26.6337 34.6189 27.5165C33.8844 28.3993 33.3784 29.4493 33.1455 30.5738C32.9126 31.6983 32.9599 32.8629 33.2833 33.9648C33.6067 35.0668 34.1963 36.0722 35 36.8925V44C34.9999 44.1705 35.0434 44.3383 35.1264 44.4873C35.2093 44.6363 35.329 44.7616 35.4741 44.8513C35.6192 44.941 35.7847 44.9921 35.9551 44.9997C36.1255 45.0074 36.295 44.9713 36.4475 44.895L40 43.1175L43.5525 44.895C43.705 44.9713 43.8745 45.0074 44.0449 44.9997C44.2153 44.9921 44.3808 44.941 44.5259 44.8513C44.671 44.7616 44.7907 44.6363 44.8736 44.4873C44.9566 44.3383 45.0001 44.1705 45 44V36.8925C46.2826 35.5871 47.0008 33.83 47 32ZM40 27C40.9889 27 41.9556 27.2932 42.7779 27.8427C43.6001 28.3921 44.241 29.173 44.6194 30.0866C44.9978 31.0002 45.0969 32.0055 44.9039 32.9755C44.711 33.9454 44.2348 34.8363 43.5355 35.5355C42.8363 36.2348 41.9454 36.711 40.9755 36.9039C40.0055 37.0969 39.0002 36.9978 38.0866 36.6194C37.173 36.241 36.3921 35.6001 35.8427 34.7779C35.2932 33.9556 35 32.9889 35 32C35 30.6739 35.5268 29.4021 36.4645 28.4645C37.4021 27.5268 38.6739 27 40 27ZM40.4475 41.105C40.3086 41.0355 40.1554 40.9993 40 40.9993C39.8446 40.9993 39.6914 41.0355 39.5525 41.105L37 42.3825V38.3237C37.9374 38.769 38.9622 39 40 39C41.0378 39 42.0626 38.769 43 38.3237V42.3825L40.4475 41.105ZM33 40C33 40.2652 32.8946 40.5196 32.7071 40.7071C32.5196 40.8946 32.2652 41 32 41H21C20.4696 41 19.9609 40.7893 19.5858 40.4142C19.2107 40.0391 19 39.5304 19 39V23C19 22.4696 19.2107 21.9609 19.5858 21.5858C19.9609 21.2107 20.4696 21 21 21H43C43.5304 21 44.0391 21.2107 44.4142 21.5858C44.7893 21.9609 45 22.4696 45 23C45 23.2652 44.8946 23.5196 44.7071 23.7071C44.5196 23.8946 44.2652 24 44 24C43.7348 24 43.4804 23.8946 43.2929 23.7071C43.1054 23.5196 43 23.2652 43 23H21V39H32C32.2652 39 32.5196 39.1054 32.7071 39.2929C32.8946 39.4804 33 39.7348 33 40ZM31 33C31 33.2652 30.8946 33.5196 30.7071 33.7071C30.5196 33.8946 30.2652 34 30 34H25C24.7348 34 24.4804 33.8946 24.2929 33.7071C24.1054 33.5196 24 33.2652 24 33C24 32.7348 24.1054 32.4804 24.2929 32.2929C24.4804 32.1054 24.7348 32 25 32H30C30.2652 32 30.5196 32.1054 30.7071 32.2929C30.8946 32.4804 31 32.7348 31 33ZM31 29C31 29.2652 30.8946 29.5196 30.7071 29.7071C30.5196 29.8946 30.2652 30 30 30H25C24.7348 30 24.4804 29.8946 24.2929 29.7071C24.1054 29.5196 24 29.2652 24 29C24 28.7348 24.1054 28.4804 24.2929 28.2929C24.4804 28.1054 24.7348 28 25 28H30C30.2652 28 30.5196 28.1054 30.7071 28.2929C30.8946 28.4804 31 28.7348 31 29Z" fill="#AA594B"/>
<path d="M33 40C33 40.2652 32.8946 40.5196 32.7071 40.7071C32.5196 40.8946 32.2652 41 32 41H21C20.4696 41 19.9609 40.7893 19.5858 40.4142C19.2107 40.0391 19 39.5304 19 39V23C19 22.4696 19.2107 21.9609 19.5858 21.5858C19.9609 21.2107 20.4696 21 21 21H43C43.5304 21 44.0391 21.2107 44.4142 21.5858C44.7893 21.9609 45 22.4696 45 23C45 23.2652 44.8946 23.5196 44.7071 23.7071C44.5196 23.8946 44.2652 24 44 24C43.7348 24 43.4804 23.8946 43.2929 23.7071C43.1054 23.5196 43 23.2652 43 23H21V39H32C32.2652 39 32.5196 39.1054 32.7071 39.2929C32.8946 39.4804 33 39.7348 33 40ZM31 33C31 33.2652 30.8946 33.5196 30.7071 33.7071C30.5196 33.8946 30.2652 34 30 34H25C24.7348 34 24.4804 33.8946 24.2929 33.7071C24.1054 33.5196 24 33.2652 24 33C24 32.7348 24.1054 32.4804 24.2929 32.2929C24.4804 32.1054 24.7348 32 25 32H30C30.2652 32 30.5196 32.1054 30.7071 32.2929C30.8946 32.4804 31 32.7348 31 33ZM31 29C31 29.2652 30.8946 29.5196 30.7071 29.7071C30.5196 29.8946 30.2652 30 30 30H25C24.7348 30 24.4804 29.8946 24.2929 29.7071C24.1054 29.5196 24 29.2652 24 29C24 28.7348 24.1054 28.4804 24.2929 28.2929C24.4804 28.1054 24.7348 28 25 28H30C30.2652 28 30.5196 28.1054 30.7071 28.2929C30.8946 28.4804 31 28.7348 31 29Z" fill="#A9DFDA"/>
</svg>
