<svg width="74" height="74" viewBox="0 0 74 74" fill="none" xmlns="http://www.w3.org/2000/svg">
<g filter="url(#filter0_d_418_41406)">
<circle cx="37" cy="37" r="32" fill="white"/>
</g>
<path d="M52 37C52.0011 35.8516 51.7196 34.7206 51.1803 33.7066C50.6411 32.6927 49.8607 31.827 48.9079 31.1859C47.9551 30.5448 46.8592 30.1479 45.7168 30.0303C44.5744 29.9127 43.4207 30.078 42.3573 30.5116C41.2938 30.9451 40.3534 31.6337 39.6189 32.5165C38.8844 33.3993 38.3784 34.4493 38.1455 35.5738C37.9126 36.6983 37.9599 37.8629 38.2833 38.9648C38.6067 40.0668 39.1963 41.0722 40 41.8925V49C39.9999 49.1705 40.0434 49.3383 40.1264 49.4873C40.2093 49.6363 40.329 49.7616 40.4741 49.8513C40.6192 49.941 40.7847 49.9921 40.9551 49.9997C41.1255 50.0074 41.295 49.9713 41.4475 49.895L45 48.1175L48.5525 49.895C48.705 49.9713 48.8745 50.0074 49.0449 49.9997C49.2153 49.9921 49.3808 49.941 49.5259 49.8513C49.671 49.7616 49.7907 49.6363 49.8736 49.4873C49.9566 49.3383 50.0001 49.1705 50 49V41.8925C51.2826 40.5871 52.0008 38.83 52 37ZM45 32C45.9889 32 46.9556 32.2932 47.7779 32.8427C48.6001 33.3921 49.241 34.173 49.6194 35.0866C49.9978 36.0002 50.0969 37.0055 49.9039 37.9755C49.711 38.9454 49.2348 39.8363 48.5355 40.5355C47.8363 41.2348 46.9454 41.711 45.9755 41.9039C45.0055 42.0969 44.0002 41.9978 43.0866 41.6194C42.173 41.241 41.3921 40.6001 40.8427 39.7779C40.2932 38.9556 40 37.9889 40 37C40 35.6739 40.5268 34.4021 41.4645 33.4645C42.4021 32.5268 43.6739 32 45 32ZM45.4475 46.105C45.3086 46.0355 45.1554 45.9993 45 45.9993C44.8446 45.9993 44.6914 46.0355 44.5525 46.105L42 47.3825V43.3237C42.9374 43.769 43.9622 44 45 44C46.0378 44 47.0626 43.769 48 43.3237V47.3825L45.4475 46.105ZM38 45C38 45.2652 37.8946 45.5196 37.7071 45.7071C37.5196 45.8946 37.2652 46 37 46H26C25.4696 46 24.9609 45.7893 24.5858 45.4142C24.2107 45.0391 24 44.5304 24 44V28C24 27.4696 24.2107 26.9609 24.5858 26.5858C24.9609 26.2107 25.4696 26 26 26H48C48.5304 26 49.0391 26.2107 49.4142 26.5858C49.7893 26.9609 50 27.4696 50 28C50 28.2652 49.8946 28.5196 49.7071 28.7071C49.5196 28.8946 49.2652 29 49 29C48.7348 29 48.4804 28.8946 48.2929 28.7071C48.1054 28.5196 48 28.2652 48 28H26V44H37C37.2652 44 37.5196 44.1054 37.7071 44.2929C37.8946 44.4804 38 44.7348 38 45ZM36 38C36 38.2652 35.8946 38.5196 35.7071 38.7071C35.5196 38.8946 35.2652 39 35 39H30C29.7348 39 29.4804 38.8946 29.2929 38.7071C29.1054 38.5196 29 38.2652 29 38C29 37.7348 29.1054 37.4804 29.2929 37.2929C29.4804 37.1054 29.7348 37 30 37H35C35.2652 37 35.5196 37.1054 35.7071 37.2929C35.8946 37.4804 36 37.7348 36 38ZM36 34C36 34.2652 35.8946 34.5196 35.7071 34.7071C35.5196 34.8946 35.2652 35 35 35H30C29.7348 35 29.4804 34.8946 29.2929 34.7071C29.1054 34.5196 29 34.2652 29 34C29 33.7348 29.1054 33.4804 29.2929 33.2929C29.4804 33.1054 29.7348 33 30 33H35C35.2652 33 35.5196 33.1054 35.7071 33.2929C35.8946 33.4804 36 33.7348 36 34Z" fill="#FF8A76"/>
<path d="M38 45C38 45.2652 37.8946 45.5196 37.7071 45.7071C37.5196 45.8946 37.2652 46 37 46H26C25.4696 46 24.9609 45.7893 24.5858 45.4142C24.2107 45.0391 24 44.5304 24 44V28C24 27.4696 24.2107 26.9609 24.5858 26.5858C24.9609 26.2107 25.4696 26 26 26H48C48.5304 26 49.0391 26.2107 49.4142 26.5858C49.7893 26.9609 50 27.4696 50 28C50 28.2652 49.8946 28.5196 49.7071 28.7071C49.5196 28.8946 49.2652 29 49 29C48.7348 29 48.4804 28.8946 48.2929 28.7071C48.1054 28.5196 48 28.2652 48 28H26V44H37C37.2652 44 37.5196 44.1054 37.7071 44.2929C37.8946 44.4804 38 44.7348 38 45ZM36 38C36 38.2652 35.8946 38.5196 35.7071 38.7071C35.5196 38.8946 35.2652 39 35 39H30C29.7348 39 29.4804 38.8946 29.2929 38.7071C29.1054 38.5196 29 38.2652 29 38C29 37.7348 29.1054 37.4804 29.2929 37.2929C29.4804 37.1054 29.7348 37 30 37H35C35.2652 37 35.5196 37.1054 35.7071 37.2929C35.8946 37.4804 36 37.7348 36 38ZM36 34C36 34.2652 35.8946 34.5196 35.7071 34.7071C35.5196 34.8946 35.2652 35 35 35H30C29.7348 35 29.4804 34.8946 29.2929 34.7071C29.1054 34.5196 29 34.2652 29 34C29 33.7348 29.1054 33.4804 29.2929 33.2929C29.4804 33.1054 29.7348 33 30 33H35C35.2652 33 35.5196 33.1054 35.7071 33.2929C35.8946 33.4804 36 33.7348 36 34Z" fill="#02293B"/>
<defs>
<filter id="filter0_d_418_41406" x="0" y="0" width="74" height="74" filterUnits="userSpaceOnUse" color-interpolation-filters="sRGB">
<feFlood flood-opacity="0" result="BackgroundImageFix"/>
<feColorMatrix in="SourceAlpha" type="matrix" values="0 0 0 0 0 0 0 0 0 0 0 0 0 0 0 0 0 0 127 0" result="hardAlpha"/>
<feOffset/>
<feGaussianBlur stdDeviation="2.5"/>
<feComposite in2="hardAlpha" operator="out"/>
<feColorMatrix type="matrix" values="0 0 0 0 0 0 0 0 0 0 0 0 0 0 0 0 0 0 0.1 0"/>
<feBlend mode="normal" in2="BackgroundImageFix" result="effect1_dropShadow_418_41406"/>
<feBlend mode="normal" in="SourceGraphic" in2="effect1_dropShadow_418_41406" result="shape"/>
</filter>
</defs>
</svg>
