<svg width="64" height="64" viewBox="0 0 64 64" fill="none" xmlns="http://www.w3.org/2000/svg">
<circle cx="32" cy="32" r="32" fill="#262626"/>
<path d="M36.555 29.1674L30.555 25.1674C30.4044 25.0669 30.2293 25.0092 30.0484 25.0004C29.8675 24.9917 29.6877 25.0322 29.528 25.1177C29.3684 25.2031 29.2349 25.3303 29.1419 25.4857C29.0489 25.6411 28.9999 25.8188 29 25.9999V33.9999C28.9999 34.181 29.0489 34.3587 29.1419 34.5141C29.2349 34.6695 29.3684 34.7967 29.528 34.8822C29.6877 34.9676 29.8675 35.0082 30.0484 34.9994C30.2293 34.9906 30.4044 34.9329 30.555 34.8324L36.555 30.8324C36.6922 30.7411 36.8047 30.6174 36.8825 30.4721C36.9603 30.3269 37.001 30.1647 37.001 29.9999C37.001 29.8352 36.9603 29.6729 36.8825 29.5277C36.8047 29.3825 36.6922 29.2587 36.555 29.1674ZM31 32.1312V27.8749L34.1975 29.9999L31 32.1312Z" fill="#AA594B"/>
<path d="M43 21H21C20.4696 21 19.9609 21.2107 19.5858 21.5858C19.2107 21.9609 19 22.4696 19 23V37C19 37.5304 19.2107 38.0391 19.5858 38.4142C19.9609 38.7893 20.4696 39 21 39H43C43.5304 39 44.0391 38.7893 44.4142 38.4142C44.7893 38.0391 45 37.5304 45 37V23C45 22.4696 44.7893 21.9609 44.4142 21.5858C44.0391 21.2107 43.5304 21 43 21ZM43 37H21V23H43V37ZM45 42C45 42.2652 44.8946 42.5196 44.7071 42.7071C44.5196 42.8946 44.2652 43 44 43H20C19.7348 43 19.4804 42.8946 19.2929 42.7071C19.1054 42.5196 19 42.2652 19 42C19 41.7348 19.1054 41.4804 19.2929 41.2929C19.4804 41.1054 19.7348 41 20 41H44C44.2652 41 44.5196 41.1054 44.7071 41.2929C44.8946 41.4804 45 41.7348 45 42Z" fill="#A9DFDA"/>
</svg>
