<svg width="74" height="74" viewBox="0 0 74 74" fill="none" xmlns="http://www.w3.org/2000/svg">
<g filter="url(#filter0_d_418_41407)">
<circle cx="37" cy="37" r="32" fill="white"/>
</g>
<path d="M41.555 34.1674L35.555 30.1674C35.4044 30.0669 35.2293 30.0092 35.0484 30.0004C34.8675 29.9917 34.6877 30.0322 34.528 30.1177C34.3684 30.2031 34.2349 30.3303 34.1419 30.4857C34.0489 30.6411 33.9999 30.8188 34 30.9999V38.9999C33.9999 39.181 34.0489 39.3587 34.1419 39.5141C34.2349 39.6695 34.3684 39.7967 34.528 39.8822C34.6877 39.9676 34.8675 40.0082 35.0484 39.9994C35.2293 39.9906 35.4044 39.9329 35.555 39.8324L41.555 35.8324C41.6922 35.7411 41.8047 35.6174 41.8825 35.4721C41.9603 35.3269 42.001 35.1647 42.001 34.9999C42.001 34.8352 41.9603 34.6729 41.8825 34.5277C41.8047 34.3825 41.6922 34.2587 41.555 34.1674ZM36 37.1312V32.8749L39.1975 34.9999L36 37.1312Z" fill="#FF8A76"/>
<path d="M48 26H26C25.4696 26 24.9609 26.2107 24.5858 26.5858C24.2107 26.9609 24 27.4696 24 28V42C24 42.5304 24.2107 43.0391 24.5858 43.4142C24.9609 43.7893 25.4696 44 26 44H48C48.5304 44 49.0391 43.7893 49.4142 43.4142C49.7893 43.0391 50 42.5304 50 42V28C50 27.4696 49.7893 26.9609 49.4142 26.5858C49.0391 26.2107 48.5304 26 48 26ZM48 42H26V28H48V42ZM50 47C50 47.2652 49.8946 47.5196 49.7071 47.7071C49.5196 47.8946 49.2652 48 49 48H25C24.7348 48 24.4804 47.8946 24.2929 47.7071C24.1054 47.5196 24 47.2652 24 47C24 46.7348 24.1054 46.4804 24.2929 46.2929C24.4804 46.1054 24.7348 46 25 46H49C49.2652 46 49.5196 46.1054 49.7071 46.2929C49.8946 46.4804 50 46.7348 50 47Z" fill="#02293B"/>
<defs>
<filter id="filter0_d_418_41407" x="0" y="0" width="74" height="74" filterUnits="userSpaceOnUse" color-interpolation-filters="sRGB">
<feFlood flood-opacity="0" result="BackgroundImageFix"/>
<feColorMatrix in="SourceAlpha" type="matrix" values="0 0 0 0 0 0 0 0 0 0 0 0 0 0 0 0 0 0 127 0" result="hardAlpha"/>
<feOffset/>
<feGaussianBlur stdDeviation="2.5"/>
<feComposite in2="hardAlpha" operator="out"/>
<feColorMatrix type="matrix" values="0 0 0 0 0 0 0 0 0 0 0 0 0 0 0 0 0 0 0.1 0"/>
<feBlend mode="normal" in2="BackgroundImageFix" result="effect1_dropShadow_418_41407"/>
<feBlend mode="normal" in="SourceGraphic" in2="effect1_dropShadow_418_41407" result="shape"/>
</filter>
</defs>
</svg>
