<svg width="48" height="48" viewBox="0 0 48 48" fill="none" xmlns="http://www.w3.org/2000/svg">
<path fill-rule="evenodd" clip-rule="evenodd" d="M28.1128 38.3365C24.4697 38.3365 21.8327 35.6897 21.8327 32.2702C21.8327 28.8506 24.4697 26.2038 28.1128 26.2038C31.7561 26.2038 34.3931 28.8506 34.3931 32.2702C34.3931 35.6897 31.7561 38.3365 28.1128 38.3365M28.1128 22.6104C25.283 22.6104 22.8004 23.5932 20.9846 25.2162V12.4196C20.9846 12.0971 20.6208 11.8955 20.3299 12.0567L17.1156 13.8379C17.044 13.8775 17 13.9508 17 14.03V41.124C17 41.3554 17.1955 41.543 17.4365 41.543H20.5481C20.7891 41.543 20.9846 41.3554 20.9846 41.124V39.3241C22.8004 40.9472 25.283 41.93 28.1128 41.93C33.9906 41.93 38.3786 37.6989 38.3786 32.2702C38.3786 26.8414 33.9906 22.6104 28.1128 22.6104" fill="white"/>
<path fill-rule="evenodd" clip-rule="evenodd" d="M40.5165 20.0171C40.5165 21.4929 39.3201 22.6894 37.8441 22.6894C36.3683 22.6894 35.1719 21.4929 35.1719 20.0171C35.1719 18.5413 36.3683 17.3447 37.8441 17.3447C39.3201 17.3447 40.5165 18.5413 40.5165 20.0171" fill="#FF9D8C"/>
<g clip-path="url(#clip0_209_93)">
<path d="M5.58433 16.907C5.13454 17.1771 4.83064 17.6894 4.83064 18.2773C4.83064 19.1464 5.49425 19.851 6.31277 19.851C7.13129 19.851 7.78294 19.1586 7.79431 18.3001C7.8553 18.5003 7.88867 18.7138 7.88867 18.9357C7.88867 20.0759 7.01818 21.0002 5.94434 21.0002C4.87051 21.0002 4.00001 20.0759 4.00001 18.9357C4.00001 17.9261 4.68268 17.0865 5.58448 16.9071L5.58433 16.907Z" fill="#DEDEDE"/>
<path d="M6.31255 19.8511C5.49403 19.8511 4.83042 19.1464 4.83042 18.2773C4.83042 17.6894 5.13432 17.1771 5.58411 16.907C5.70077 16.8838 5.82097 16.8711 5.94397 16.8711C6.80886 16.8711 7.54143 17.4708 7.79395 18.2999C7.78243 19.1585 7.12383 19.8509 6.3124 19.8509L6.31255 19.8511Z" fill="#F5F5F5"/>
<path d="M13.9253 19.9062C14.3086 19.9156 14.6918 19.8749 15.0752 19.8884C15.7376 19.8794 16.3239 19.9108 16.9859 19.9059V19C17.8035 19.0433 18.668 18.4624 19.4859 18.5C19.7758 16.4846 20.4859 17.5 20.4859 17.5C20.6261 17.514 20.9718 18 20.9859 18.5C21 19 20.9859 19.679 20.9859 20.0604C21.3069 20.0625 21.5244 20.064 21.8454 20.0604C22.0326 20.0582 22.2196 20.0539 22.4064 20.0477C22.6697 20.0395 22.9325 20.0223 23.1951 20.0017C23.8427 19.9609 24.4889 19.8863 25.1291 19.7745C25.43 19.711 25.7305 19.6351 26.0154 19.5114C26.1607 19.4536 26.3039 19.3844 26.4275 19.2827C26.5397 19.203 26.6112 19.029 26.5 18.9139C26.3486 18.7715 26.1519 18.704 25.9587 18.6557C25.6091 18.5705 25.253 18.5249 24.8972 18.4808C24.1144 18.396 23.3271 18.3575 22.5402 18.3728C21.6853 18.4042 20.8321 18.4841 19.9854 18.6143C18.3463 18.8582 16.7245 19.2189 15.1136 19.6195C14.8098 19.6946 14.5043 19.7621 14.2017 19.8418C14.1099 19.8639 14.0182 19.8873 13.9253 19.9062Z" fill="#CA1E03"/>
<path d="M9.73353 15.7804C9.77679 15.6313 9.80175 15.4706 9.88208 15.3377C9.96345 15.2464 10.1511 15.1688 10.2573 15.1255C10.4803 15.0432 10.6551 14.9719 10.8226 14.9081C10.7267 15.3278 10.6687 15.7532 10.6876 16.1842C10.725 17.0403 11.1372 17.9349 11.8834 18.262C12.374 18.4771 12.9277 18.4216 13.4555 18.3625C16.5829 18.0122 19.7102 17.6619 22.8376 17.3117C23.8542 17.1978 25.011 16.9959 25.5571 16.0783C25.9069 15.4905 25.9073 14.7279 25.7118 14.0644C25.595 13.6682 25.4159 13.2992 25.2127 12.9435C25.3453 12.9706 25.4775 13.0004 25.6086 13.0349C25.7406 13.1492 25.9729 13.2412 26.1003 13.3615C26.3896 13.6616 26.6195 14.0184 26.8211 14.3888C27.1783 15.033 27.4507 15.7262 27.6721 16.4352C27.8543 17.0594 28.0169 17.705 27.9986 18.3647C28.0001 18.6837 27.7948 18.9533 27.5801 19.1539C27.428 19.2766 27.2876 19.4189 27.1135 19.5067C26.9206 19.614 26.7235 19.7142 26.5179 19.7919C26.2734 19.873 26.0315 19.9694 25.7784 20.018C25.7784 20.018 23.4692 20.2868 21.8593 20.0602C22.0466 20.058 22.2335 20.0538 22.4203 20.0475C22.6836 20.0393 22.9465 20.0221 23.209 20.0016C23.8567 19.9608 24.5029 19.8862 25.143 19.7744C25.444 19.7109 25.7445 19.635 26.0293 19.5113C26.1746 19.4534 26.3178 19.3843 26.4414 19.2825C26.5537 19.2029 26.6251 19.0288 26.5139 18.9137C26.3626 18.7714 26.1659 18.7038 25.9726 18.6555C25.6231 18.5704 25.2669 18.5247 24.9112 18.4807C24.1284 18.3959 23.341 18.3573 22.5541 18.3727C21.6993 18.404 20.846 18.484 19.9993 18.6141C18.3602 18.8581 16.7384 19.2187 15.1275 19.6193C14.8238 19.6944 14.5182 19.762 14.2157 19.8416C14.1238 19.8637 14.0323 19.8873 13.9394 19.9062C13.7656 19.9357 13.5949 19.9824 13.4227 20.0232C13.3283 20.0411 13.234 20.0635 13.1401 20.0864C12.9694 20.1275 12.7997 20.1728 12.629 20.2157C12.3886 20.2773 12.1482 20.3383 11.906 20.3913C11.8205 20.3992 11.7356 20.4122 11.6508 20.4283C11.5913 20.4373 11.533 20.4523 11.4738 20.4664C11.2771 20.521 11.0708 20.4881 10.8706 20.478C10.7354 20.471 10.6083 20.4097 10.5141 20.3065C10.4128 20.1309 10.3279 19.9451 10.2244 19.7711C10.1157 19.5304 10.0193 19.2838 9.92978 19.0345C9.57848 18.0001 9.47289 16.8524 9.73338 15.7806L9.73353 15.7804Z" fill="#DEDEDE"/>
<path d="M25.5568 16.0782C25.0108 16.9957 23.854 17.1977 22.8374 17.3115C19.71 17.6618 16.5827 18.012 13.4553 18.3623C12.9273 18.4214 12.3737 18.4769 11.8832 18.2618C11.137 17.9347 10.7249 17.0403 10.6874 16.184C10.6685 15.753 10.7267 15.3276 10.8224 14.9079C10.9711 14.8511 11.114 14.8005 11.2792 14.7536C11.3408 14.7312 11.4031 14.7099 11.465 14.689C11.4928 14.6796 11.521 14.6704 11.5487 14.6614C11.7398 14.5987 11.9324 14.5412 12.1249 14.4824C12.8662 14.2724 13.6144 14.0899 14.3591 13.8957C15.1397 13.702 15.9211 13.5111 16.7091 13.3535C17.3767 13.2055 18.0539 13.1091 18.7258 12.9872C19.2967 12.9184 19.8686 12.8408 20.4415 12.7862C20.9572 12.7495 21.4744 12.7096 21.9919 12.6906C22.297 12.6879 22.6022 12.6879 22.9073 12.6895C22.9118 12.6943 22.9213 12.7033 22.9263 12.7078C23.0955 12.6846 23.2652 12.7243 23.4338 12.7124C23.714 12.7348 23.9935 12.7643 24.2736 12.7856C24.5868 12.8328 24.9011 12.88 25.2123 12.9435C25.4155 13.2992 25.5946 13.6682 25.7115 14.0644C25.907 14.7279 25.9065 15.4907 25.5567 16.0783L25.5568 16.0782Z" fill="#F5F5F5"/>
<path d="M21.5993 20.0179L21.8594 20.06C21.7703 20.0476 21.6834 20.0335 21.5993 20.0179Z" fill="#DEDEDE"/>
<path d="M18.5115 5.24697C16.6218 3.89669 14.3263 3.14332 12.061 3.18079C13.3485 2.90593 14.7295 2.96222 15.8825 3.23002C18.1372 3.75386 20.17 5.12326 21.7822 6.87696C23.3944 8.63066 24.6096 10.7575 25.5908 12.9756C25.0112 12.8748 24.4307 12.8046 23.8498 12.7611C22.8145 9.75689 21.0046 7.02842 18.5115 5.24697Z" fill="#CA1E03"/>
<path d="M7.01279 9.21126C7.15602 8.56544 7.32702 7.92307 7.57938 7.31504C7.66104 7.09177 7.7526 6.8707 7.85655 6.65668C8.12354 6.90644 8.47424 7.08801 8.81462 7.19964C11.651 8.12894 14.7384 6.41804 17.6517 7.02216C17.8876 7.07107 18.1291 7.13943 18.3152 7.30109C18.5011 7.46274 18.6169 7.74057 18.5335 7.97983C18.4327 8.26864 18.1002 8.38278 17.8103 8.37933C17.5203 8.37573 17.2279 8.29404 16.9435 8.35393C16.6591 8.41383 16.3805 8.69652 16.457 8.99364C16.4974 9.15043 16.6228 9.263 16.7406 9.3668C17.9059 10.3933 18.9587 11.563 19.8735 12.8438C16.6157 13.1889 13.3685 14.134 10.1993 15.074C10.3248 14.3068 10.4502 13.5398 10.5757 12.7726C10.7262 11.853 10.8902 10.8979 11.4056 10.1418C12.1822 9.00273 13.5645 8.57015 14.8444 8.20953C13.3481 8.17033 11.786 8.68539 10.7776 9.85975C9.17064 11.7314 9.28582 14.7772 7.65425 16.6246C7.28789 17.0395 6.69043 17.3871 6.24108 17.0774C6.42035 14.4673 6.42862 11.7651 7.01293 9.21111L7.01279 9.21126Z" fill="#CA1E03"/>
<path d="M16.7406 9.36663C16.6228 9.26284 16.4973 9.15026 16.457 8.99347C16.3805 8.69651 16.6591 8.41366 16.9435 8.35376C17.2279 8.29387 17.5203 8.37556 17.8103 8.37916C18.1003 8.38277 18.4329 8.26847 18.5335 7.97966C18.6169 7.7404 18.5011 7.46257 18.3152 7.30092C18.1291 7.13927 17.8877 7.07091 17.6517 7.02199C14.7384 6.41787 11.651 8.12877 8.81461 7.19947C8.47424 7.088 8.12353 6.90628 7.85655 6.65651C7.91931 6.52731 7.98635 6.40063 8.05841 6.27739L8.58573 5.43997C9.34873 4.1822 10.6486 3.48213 12.0608 3.18063C14.3261 3.14315 16.6215 3.89637 18.5113 5.24681C21.0044 7.02826 22.8142 9.75672 23.8496 12.761C22.5255 12.662 21.1985 12.703 19.8735 12.8435C18.9587 11.5626 17.9059 10.3928 16.7406 9.36647V9.36663Z" fill="#ED2605"/>
<path d="M14.8828 8.20998C14.6378 8.1573 14.3872 8.18677 14.1405 8.21076C13.5802 8.26156 13.0325 8.42118 12.5082 8.63347C11.8483 8.90707 11.2476 9.33448 10.7477 9.8671C10.3895 10.2771 10.0794 10.7423 9.8868 11.2658C9.74534 11.6545 9.61258 12.0484 9.52118 12.4541C9.485 12.6421 9.40925 12.8193 9.38842 13.0106C9.62632 12.7005 9.95857 12.4563 10.3369 12.3985C10.49 12.3704 10.6437 12.3974 10.7955 12.416L10.7966 12.4149C10.7744 12.369 10.7586 12.3215 10.749 12.2718C10.7134 11.6272 10.8996 10.986 11.2185 10.4411C11.4902 9.95051 11.8717 9.52702 12.3297 9.22959C12.8865 8.85893 13.5126 8.62532 14.1377 8.42196C14.3834 8.33902 14.6409 8.30531 14.8828 8.21014V8.20998Z" fill="#64010B"/>
</g>
<defs>
<clipPath id="clip0_209_93">
<rect width="24" height="18" fill="white" transform="matrix(-1 0 0 1 28 3)"/>
</clipPath>
</defs>
</svg>
