<svg width="109" height="42" viewBox="0 0 109 42" fill="none" xmlns="http://www.w3.org/2000/svg">
<path d="M41.9298 2.60555C41.9298 3.11555 41.5198 3.52555 41.0098 3.52555C40.4998 3.52555 40.0898 3.11555 40.0898 2.60555C40.0898 2.09555 40.4998 1.68555 41.0098 1.68555C41.5198 1.68555 41.9298 2.09555 41.9298 2.60555Z" fill="#FF7C66"/>
<path d="M13.9499 4.77539C16.1299 4.77539 17.7499 6.40539 17.7499 8.50539C17.7499 10.6054 16.1199 12.2354 13.9499 12.2354C11.7799 12.2354 10.1499 10.6054 10.1499 8.50539C10.1499 6.40539 11.7799 4.77539 13.9499 4.77539ZM13.9499 10.8454C15.2999 10.8454 16.2799 9.82539 16.2799 8.50539C16.2799 7.18539 15.2999 6.16539 13.9499 6.16539C12.5999 6.16539 11.6199 7.18539 11.6199 8.50539C11.6199 9.82539 12.5999 10.8454 13.9499 10.8454Z" fill="white"/>
<path d="M22.4299 4.77539C24.6099 4.77539 26.2299 6.40539 26.2299 8.50539C26.2299 10.6054 24.5999 12.2354 22.4299 12.2354C20.2599 12.2354 18.6299 10.6054 18.6299 8.50539C18.6299 6.40539 20.2599 4.77539 22.4299 4.77539ZM22.4299 10.8454C23.7799 10.8454 24.7599 9.82539 24.7599 8.50539C24.7599 7.18539 23.7799 6.16539 22.4299 6.16539C21.0799 6.16539 20.0999 7.18539 20.0999 8.50539C20.0999 9.82539 21.0799 10.8454 22.4299 10.8454Z" fill="white"/>
<path d="M40.27 11.9254V4.93539C40.27 4.84539 40.34 4.77539 40.43 4.77539H41.58C41.67 4.77539 41.74 4.84539 41.74 4.93539V11.9254C41.74 12.0154 41.67 12.0854 41.58 12.0854H40.43C40.34 12.0854 40.27 12.0154 40.27 11.9254Z" fill="white"/>
<path d="M35.9602 4.77556C34.7302 4.77556 33.8302 5.40556 33.4002 6.11556C32.9402 5.28556 32.0802 4.77556 30.8502 4.77556C29.6202 4.77556 28.9102 5.46556 28.6802 5.82556V4.69556C28.6802 4.57556 28.5502 4.49556 28.4402 4.55556L27.2402 5.24556C27.2402 5.24556 27.2002 5.28556 27.2002 5.32556V11.9256C27.2002 12.0156 27.2702 12.0856 27.3602 12.0856H28.5202C28.6102 12.0856 28.6802 12.0156 28.6802 11.9256V8.04556C28.6802 6.85556 29.5502 6.17556 30.6202 6.17556C31.6902 6.17556 32.3102 6.86556 32.3102 8.04556V11.9256C32.3102 12.0156 32.3802 12.0856 32.4702 12.0856H33.6302C33.7202 12.0856 33.7902 12.0156 33.7902 11.9256V7.96556C33.8302 6.83556 34.6902 6.18556 35.7302 6.18556C36.7702 6.18556 37.4202 6.87556 37.4202 8.05556V11.9356C37.4202 12.0256 37.4902 12.0956 37.5802 12.0956H38.7402C38.8302 12.0956 38.9002 12.0256 38.9002 11.9356V7.74556C38.9002 6.00556 37.8702 4.78556 35.9602 4.78556" fill="white"/>
<path d="M5.36 4.77521C4.31 4.77521 3.39 5.15521 2.72 5.78521V0.835208C2.72 0.715208 2.59 0.635208 2.48 0.695208L1.29 1.38521C1.29 1.38521 1.25 1.42521 1.25 1.45521V11.9152C1.25 12.0052 1.32 12.0752 1.41 12.0752H2.56C2.65 12.0752 2.72 12.0052 2.72 11.9152V11.2152C3.39 11.8452 4.31 12.2252 5.36 12.2252C7.54 12.2252 9.16 10.5952 9.16 8.49521C9.16 6.39521 7.53 4.76521 5.36 4.76521M5.36 10.8352C4.01 10.8352 3.03 9.81521 3.03 8.49521C3.03 7.17521 4.01 6.15521 5.36 6.15521C6.71 6.15521 7.69 7.17521 7.69 8.49521C7.69 9.81521 6.71 10.8352 5.36 10.8352Z" fill="white"/>
<path d="M4.02 27.8652C4.908 27.8652 5.684 28.0452 6.348 28.4052C7.02 28.7572 7.536 29.2532 7.896 29.8932C8.256 30.5332 8.436 31.2652 8.436 32.0892C8.436 32.9052 8.252 33.6332 7.884 34.2732C7.524 34.9132 7.008 35.4172 6.336 35.7852C5.672 36.1452 4.9 36.3252 4.02 36.3252H0.672V27.8652H4.02ZM3.84 34.2492C4.528 34.2492 5.068 34.0612 5.46 33.6852C5.852 33.3092 6.048 32.7772 6.048 32.0892C6.048 31.3932 5.852 30.8572 5.46 30.4812C5.068 30.0972 4.528 29.9052 3.84 29.9052H3.024V34.2492H3.84ZM13.5522 36.4092C12.7602 36.4092 12.0322 36.2252 11.3682 35.8572C10.7042 35.4812 10.1762 34.9652 9.78422 34.3092C9.40022 33.6452 9.20822 32.8972 9.20822 32.0652C9.20822 31.2332 9.40022 30.4892 9.78422 29.8332C10.1762 29.1692 10.7042 28.6532 11.3682 28.2852C12.0322 27.9172 12.7602 27.7332 13.5522 27.7332C14.3522 27.7332 15.0802 27.9172 15.7362 28.2852C16.4002 28.6532 16.9242 29.1692 17.3082 29.8332C17.6922 30.4892 17.8842 31.2332 17.8842 32.0652C17.8842 32.8972 17.6922 33.6452 17.3082 34.3092C16.9242 34.9652 16.4002 35.4812 15.7362 35.8572C15.0722 36.2252 14.3442 36.4092 13.5522 36.4092ZM13.5522 34.2252C14.1522 34.2252 14.6242 34.0292 14.9682 33.6372C15.3202 33.2452 15.4962 32.7212 15.4962 32.0652C15.4962 31.3932 15.3202 30.8652 14.9682 30.4812C14.6242 30.0892 14.1522 29.8932 13.5522 29.8932C12.9442 29.8932 12.4682 30.0892 12.1242 30.4812C11.7802 30.8652 11.6082 31.3932 11.6082 32.0652C11.6082 32.7292 11.7802 33.2572 12.1242 33.6492C12.4682 34.0332 12.9442 34.2252 13.5522 34.2252ZM18.6535 32.0772C18.6535 31.2452 18.8255 30.5052 19.1695 29.8572C19.5215 29.2012 20.0175 28.6932 20.6575 28.3332C21.2975 27.9652 22.0335 27.7812 22.8655 27.7812C23.9215 27.7812 24.8095 28.0652 25.5295 28.6332C26.2495 29.1932 26.7135 29.9572 26.9215 30.9252H24.3895C24.2375 30.6052 24.0255 30.3612 23.7535 30.1932C23.4895 30.0252 23.1815 29.9412 22.8295 29.9412C22.2855 29.9412 21.8495 30.1372 21.5215 30.5292C21.2015 30.9132 21.0415 31.4292 21.0415 32.0772C21.0415 32.7332 21.2015 33.2572 21.5215 33.6492C21.8495 34.0332 22.2855 34.2252 22.8295 34.2252C23.1815 34.2252 23.4895 34.1412 23.7535 33.9732C24.0255 33.8052 24.2375 33.5612 24.3895 33.2412H26.9215C26.7135 34.2092 26.2495 34.9772 25.5295 35.5452C24.8095 36.1052 23.9215 36.3852 22.8655 36.3852C22.0335 36.3852 21.2975 36.2052 20.6575 35.8452C20.0175 35.4772 19.5215 34.9692 19.1695 34.3212C18.8255 33.6652 18.6535 32.9172 18.6535 32.0772ZM30.3393 27.8652V32.7732C30.3393 33.2292 30.4433 33.5812 30.6513 33.8292C30.8673 34.0772 31.1913 34.2012 31.6233 34.2012C32.0553 34.2012 32.3793 34.0772 32.5953 33.8292C32.8193 33.5732 32.9313 33.2212 32.9313 32.7732V27.8652H35.2833V32.7732C35.2833 33.5492 35.1193 34.2132 34.7913 34.7652C34.4633 35.3092 34.0153 35.7212 33.4473 36.0012C32.8873 36.2732 32.2633 36.4092 31.5753 36.4092C30.8873 36.4092 30.2713 36.2732 29.7273 36.0012C29.1913 35.7212 28.7673 35.3092 28.4553 34.7652C28.1513 34.2212 27.9993 33.5572 27.9993 32.7732V27.8652H30.3393ZM46.4543 27.8652V36.3252H44.1023V31.6572L42.5063 36.3252H40.5383L38.9303 31.6212V36.3252H36.5783V27.8652H39.4223L41.5463 33.3612L43.6223 27.8652H46.4543ZM50.1451 29.7492V31.1292H52.8451V32.9172H50.1451V34.4412H53.2051V36.3252H47.7931V27.8652H53.2051V29.7492H50.1451ZM62.2033 36.3252H59.8513L56.7193 31.5972V36.3252H54.3673V27.8652H56.7193L59.8513 32.6532V27.8652H62.2033V36.3252ZM69.9151 27.8652V29.7372H67.6591V36.3252H65.3071V29.7372H63.0751V27.8652H69.9151ZM76.1373 34.9452H73.1373L72.6813 36.3252H70.2093L73.2933 27.8652H76.0053L79.0773 36.3252H76.5933L76.1373 34.9452ZM75.5493 33.1452L74.6373 30.4092L73.7373 33.1452H75.5493ZM86.2159 27.8652V29.7372H83.9599V36.3252H81.6079V29.7372H79.3759V27.8652H86.2159ZM89.4381 27.8652V36.3252H87.0861V27.8652H89.4381ZM94.8335 36.4092C94.0415 36.4092 93.3135 36.2252 92.6495 35.8572C91.9855 35.4812 91.4575 34.9652 91.0655 34.3092C90.6815 33.6452 90.4895 32.8972 90.4895 32.0652C90.4895 31.2332 90.6815 30.4892 91.0655 29.8332C91.4575 29.1692 91.9855 28.6532 92.6495 28.2852C93.3135 27.9172 94.0415 27.7332 94.8335 27.7332C95.6335 27.7332 96.3615 27.9172 97.0175 28.2852C97.6815 28.6532 98.2055 29.1692 98.5895 29.8332C98.9735 30.4892 99.1655 31.2332 99.1655 32.0652C99.1655 32.8972 98.9735 33.6452 98.5895 34.3092C98.2055 34.9652 97.6815 35.4812 97.0175 35.8572C96.3535 36.2252 95.6255 36.4092 94.8335 36.4092ZM94.8335 34.2252C95.4335 34.2252 95.9055 34.0292 96.2495 33.6372C96.6015 33.2452 96.7775 32.7212 96.7775 32.0652C96.7775 31.3932 96.6015 30.8652 96.2495 30.4812C95.9055 30.0892 95.4335 29.8932 94.8335 29.8932C94.2255 29.8932 93.7495 30.0892 93.4055 30.4812C93.0615 30.8652 92.8895 31.3932 92.8895 32.0652C92.8895 32.7292 93.0615 33.2572 93.4055 33.6492C93.7495 34.0332 94.2255 34.2252 94.8335 34.2252ZM108.059 36.3252H105.707L102.575 31.5972V36.3252H100.223V27.8652H102.575L105.707 32.6532V27.8652H108.059V36.3252Z" fill="#FF7C66"/>
</svg>
