<svg width="16" height="16" viewBox="0 0 16 16" fill="none" xmlns="http://www.w3.org/2000/svg">
<path fill-rule="evenodd" clip-rule="evenodd" d="M9.24441 14.5231C7.84766 14.5231 6.83667 13.4353 6.83667 12.0299C6.83667 10.6244 7.84766 9.53663 9.24441 9.53663C10.6412 9.53663 11.6522 10.6244 11.6522 12.0299C11.6522 13.4353 10.6412 14.5231 9.24441 14.5231M9.24441 8.05977C8.15948 8.05977 7.2077 8.46367 6.51153 9.13073V3.87138C6.51153 3.73884 6.37207 3.656 6.26053 3.72227L5.02819 4.45432C5.00077 4.47058 4.98389 4.5007 4.98389 4.53326V15.6687C4.98389 15.7639 5.05883 15.8409 5.15124 15.8409H6.34418C6.43659 15.8409 6.51153 15.7639 6.51153 15.6687V14.929C7.2077 15.5961 8.15948 16 9.24441 16C11.4979 16 13.1802 14.2611 13.1802 12.0299C13.1802 9.79867 11.4979 8.05977 9.24441 8.05977" fill="#072B55"/>
<path fill-rule="evenodd" clip-rule="evenodd" d="M14.1512 6.99393C14.1512 7.60049 13.6587 8.09222 13.0511 8.09222C12.4437 8.09222 11.9512 7.60049 11.9512 6.99393C11.9512 6.38737 12.4437 5.8956 13.0511 5.8956C13.6587 5.8956 14.1512 6.38737 14.1512 6.99393" fill="#FF9D8C"/>
<g clip-path="url(#clip0_209_125)">
<path d="M0.607265 5.7157C0.43482 5.82673 0.318309 6.03725 0.318309 6.2789C0.318309 6.63609 0.572731 6.92569 0.88654 6.92569C1.20035 6.92569 1.45019 6.64112 1.45455 6.28825C1.47793 6.37054 1.49072 6.4583 1.49072 6.54949C1.49072 7.01809 1.15698 7.39797 0.745289 7.39797C0.333594 7.39797 -0.000143692 7.01809 -0.000143692 6.54949C-0.000143692 6.13456 0.261582 5.78948 0.607322 5.71576L0.607265 5.7157Z" fill="#DEDEDE"/>
<path d="M0.886641 6.92567C0.572831 6.92567 0.318409 6.63608 0.318409 6.27889C0.318409 6.03724 0.43492 5.82671 0.607365 5.71568C0.65209 5.70615 0.698174 5.70093 0.745333 5.70093C1.07692 5.70093 1.35778 5.94741 1.45459 6.28817C1.45017 6.64104 1.19768 6.92561 0.886584 6.92561L0.886641 6.92567Z" fill="#F5F5F5"/>
<path d="M3.80512 6.94834C3.95209 6.95221 4.099 6.93546 4.24597 6.941C4.49994 6.93732 4.72472 6.95021 4.97852 6.94821V6.57589C5.29199 6.59368 5.62341 6.35492 5.93699 6.37039C6.04815 5.54209 6.32038 5.9594 6.32038 5.9594C6.37413 5.96513 6.50666 6.16489 6.51207 6.37039C6.51749 6.57589 6.51207 6.85494 6.51207 7.01169C6.63515 7.01259 6.71852 7.01317 6.8416 7.01169C6.91339 7.01079 6.98506 7.00905 7.05667 7.00647C7.15762 7.00312 7.25839 6.99603 7.35905 6.98759C7.60736 6.97083 7.8551 6.94016 8.10052 6.89421C8.2159 6.86812 8.33111 6.83693 8.44031 6.78608C8.49602 6.76231 8.55094 6.73389 8.59832 6.69207C8.64135 6.65933 8.66875 6.5878 8.62612 6.5405C8.56809 6.48199 8.49268 6.45422 8.41857 6.43437C8.28457 6.39938 8.14802 6.38063 8.01163 6.36252C7.71153 6.32766 7.40966 6.31181 7.10797 6.31812C6.78023 6.33101 6.45312 6.36387 6.12849 6.41736C5.50008 6.51763 4.87829 6.66584 4.26069 6.83048C4.14424 6.86135 4.0271 6.88912 3.9111 6.92186C3.87589 6.93094 3.84073 6.94055 3.80512 6.94834Z" fill="#CA1E03"/>
<path d="M2.19802 5.25268C2.21461 5.19139 2.22418 5.12534 2.25498 5.0707C2.28617 5.03319 2.35813 5.0013 2.39883 4.98351C2.48432 4.94968 2.55135 4.92036 2.61555 4.89413C2.57881 5.06664 2.55656 5.24146 2.5638 5.41861C2.57813 5.77045 2.73619 6.13814 3.02226 6.27257C3.21033 6.36098 3.42263 6.33817 3.62497 6.31387C4.82399 6.16991 6.02296 6.02595 7.22198 5.882C7.61171 5.83521 8.05522 5.75221 8.26458 5.37511C8.3987 5.13353 8.39887 4.82009 8.32391 4.54738C8.27913 4.38454 8.21046 4.23291 8.13256 4.0867C8.1834 4.09785 8.23406 4.11009 8.28434 4.12427C8.33495 4.17125 8.424 4.20907 8.47286 4.2585C8.58377 4.38183 8.67192 4.5285 8.74919 4.68071C8.88614 4.94549 8.99059 5.23038 9.07546 5.52178C9.14532 5.77831 9.20765 6.04367 9.20063 6.31477C9.2012 6.44591 9.1225 6.55668 9.04019 6.63916C8.98188 6.68956 8.92804 6.74807 8.86129 6.78415C8.78735 6.82823 8.71177 6.86941 8.63296 6.90137C8.53921 6.93468 8.44648 6.97432 8.34944 6.99429C8.34944 6.99429 7.46412 7.10474 6.84692 7.01163C6.9187 7.01072 6.99037 7.00898 7.06199 7.00641C7.16293 7.00306 7.26371 6.99597 7.36436 6.98753C7.61267 6.97077 7.86041 6.9401 8.10583 6.89415C8.22121 6.86805 8.33642 6.83686 8.44563 6.78602C8.50134 6.76224 8.55625 6.73383 8.60364 6.692C8.64667 6.65927 8.67407 6.58774 8.63144 6.54044C8.57341 6.48193 8.498 6.45416 8.42389 6.43431C8.28989 6.39932 8.15333 6.38057 8.01695 6.36246C7.71684 6.3276 7.41498 6.31174 7.11328 6.31806C6.78555 6.33095 6.45843 6.36381 6.13381 6.4173C5.5054 6.51757 4.88361 6.66578 4.26601 6.83042C4.14955 6.86129 4.03242 6.88906 3.91642 6.9218C3.88121 6.93088 3.8461 6.94055 3.81049 6.94835C3.74386 6.96046 3.67842 6.97966 3.6124 6.99642C3.57623 7.00376 3.54005 7.01298 3.50404 7.02239C3.4386 7.03927 3.37355 7.05789 3.3081 7.07555C3.21594 7.10088 3.12377 7.12594 3.03092 7.14772C2.99814 7.15094 2.96559 7.15629 2.9331 7.16293C2.91028 7.1666 2.88792 7.17279 2.86522 7.17859C2.78981 7.20101 2.71072 7.18748 2.63395 7.18336C2.58215 7.18046 2.5334 7.15526 2.49728 7.11286C2.45845 7.04069 2.42589 6.96433 2.38621 6.8928C2.34454 6.79388 2.30757 6.69252 2.27326 6.59006C2.13858 6.16495 2.0981 5.69325 2.19797 5.25274L2.19802 5.25268Z" fill="#DEDEDE"/>
<path d="M8.2644 5.37505C8.05504 5.75215 7.61153 5.83515 7.2218 5.88193C6.02278 6.02589 4.82382 6.16985 3.62479 6.31381C3.4224 6.3381 3.21015 6.36092 3.02208 6.2725C2.73601 6.13808 2.57801 5.77045 2.56363 5.41855C2.55638 5.2414 2.57869 5.06658 2.61537 4.89407C2.67238 4.87074 2.72718 4.84993 2.79053 4.83066C2.81414 4.82145 2.83803 4.81268 2.86175 4.80411C2.8724 4.80025 2.88321 4.79644 2.89385 4.79277C2.96711 4.76699 3.04094 4.74335 3.11476 4.71918C3.39896 4.6329 3.68582 4.55789 3.97133 4.47805C4.27059 4.39846 4.57019 4.31998 4.87228 4.25521C5.12823 4.19438 5.38786 4.15475 5.64545 4.10468C5.86432 4.07639 6.08358 4.04449 6.30325 4.02207C6.50094 4.00699 6.69926 3.99056 6.89763 3.98276C7.0146 3.98167 7.13162 3.98167 7.24858 3.98231C7.25034 3.98431 7.25396 3.98798 7.25589 3.98985C7.32076 3.98031 7.38581 3.99662 7.45047 3.99172C7.55786 4.00093 7.66503 4.01305 7.77243 4.02181C7.89251 4.04121 8.01298 4.06061 8.13232 4.0867C8.21022 4.23292 8.2789 4.38454 8.32368 4.54738C8.39863 4.82009 8.39846 5.13359 8.26435 5.37511L8.2644 5.37505Z" fill="#F5F5F5"/>
<path d="M6.74747 6.99423L6.84717 7.01157C6.81303 7.00648 6.77968 7.00068 6.74747 6.99423Z" fill="#DEDEDE"/>
<path d="M5.56323 0.923492C4.83874 0.368535 3.95868 0.0589018 3.09017 0.0743029C3.58378 -0.0386602 4.11323 -0.0155263 4.55527 0.094537C5.41971 0.309831 6.19905 0.872649 6.81716 1.59341C7.43527 2.31417 7.90115 3.1883 8.27734 4.09993C8.05513 4.05849 7.83259 4.02962 7.60987 4.01177C7.21295 2.77704 6.51903 1.65566 5.56323 0.923492Z" fill="#CA1E03"/>
<path d="M1.15479 2.55279C1.20971 2.28736 1.27526 2.02335 1.37202 1.77345C1.40332 1.68169 1.43842 1.59083 1.47828 1.50287C1.58064 1.60552 1.7151 1.68014 1.84559 1.72602C2.93303 2.10796 4.11671 1.40479 5.23364 1.65308C5.32405 1.67318 5.41667 1.70128 5.488 1.76772C5.55928 1.83415 5.60367 1.94834 5.57168 2.04668C5.53307 2.16537 5.40558 2.21229 5.29444 2.21087C5.18325 2.20939 5.07116 2.17581 4.96212 2.20043C4.85308 2.22505 4.74625 2.34123 4.77558 2.46334C4.79109 2.52778 4.83915 2.57405 4.88433 2.61671C5.33107 3.0386 5.73473 3.51932 6.08545 4.04573C4.83644 4.18756 3.5915 4.57601 2.37646 4.96232C2.42458 4.64702 2.47264 4.33178 2.52077 4.01647C2.57846 3.63853 2.64135 3.24597 2.83894 2.93524C3.13667 2.46708 3.66663 2.28929 4.15736 2.14108C3.58369 2.12497 2.98477 2.33666 2.59816 2.81931C1.98209 3.58853 2.02624 4.84034 1.40072 5.59963C1.26026 5.77014 1.0312 5.913 0.858927 5.78574C0.927656 4.71301 0.930826 3.60238 1.15485 2.55272L1.15479 2.55279Z" fill="#CA1E03"/>
<path d="M4.88437 2.61666C4.83919 2.574 4.79107 2.52773 4.77561 2.46329C4.74628 2.34124 4.85311 2.22499 4.96215 2.20038C5.07119 2.17576 5.18329 2.20933 5.29448 2.21082C5.40566 2.2123 5.53316 2.16532 5.57171 2.04662C5.6037 1.94829 5.55931 1.8341 5.48804 1.76766C5.4167 1.70123 5.32414 1.67313 5.23367 1.65303C4.11674 1.40474 2.93306 2.10791 1.84562 1.72597C1.71513 1.68015 1.58067 1.60547 1.47831 1.50282C1.50237 1.44972 1.52808 1.39765 1.55571 1.347L1.75787 1.00283C2.0504 0.48589 2.54877 0.198166 3.09016 0.0742484C3.95867 0.0588473 4.83868 0.368416 5.56322 0.923437C6.51903 1.6556 7.21289 2.77699 7.60986 4.01172C7.10221 3.97106 6.59348 3.98788 6.08548 4.04561C5.73476 3.5192 5.3311 3.03842 4.88437 2.61659V2.61666Z" fill="#ED2605"/>
<path d="M4.17188 2.14127C4.07795 2.11962 3.98188 2.13173 3.88728 2.14159C3.67249 2.16247 3.46251 2.22807 3.26147 2.31532C3.00846 2.42777 2.77816 2.60343 2.58652 2.82233C2.44918 2.99084 2.33029 3.18204 2.25646 3.3972C2.20223 3.55695 2.15133 3.71882 2.11629 3.88559C2.10242 3.96285 2.07337 4.03567 2.06539 4.11429C2.1566 3.98682 2.28398 3.88649 2.42902 3.86271C2.48773 3.85118 2.54667 3.86226 2.60486 3.86993L2.60526 3.86948C2.59677 3.8506 2.59071 3.83107 2.58703 3.81065C2.57339 3.54573 2.64478 3.28217 2.76701 3.05825C2.87118 2.85661 3.01746 2.68256 3.19302 2.56032C3.40651 2.40798 3.64656 2.31197 3.8862 2.22839C3.98041 2.1943 4.07914 2.18045 4.17188 2.14133V2.14127Z" fill="#64010B"/>
</g>
<defs>
<clipPath id="clip0_209_125">
<rect width="9.20132" height="7.39789" fill="white" transform="matrix(-1 0 0 1 9.20117 0)"/>
</clipPath>
</defs>
</svg>
