<svg width="106" height="31" viewBox="0 0 106 31" fill="none" xmlns="http://www.w3.org/2000/svg">
<g id="Clip path group">
<mask id="mask0_371_12854" style="mask-type:luminance" maskUnits="userSpaceOnUse" x="0" y="0" width="106" height="31">
<g id="clip0">
<path id="Vector" d="M106 0.435059H0V30.5466H106V0.435059Z" fill="white"/>
</g>
</mask>
<g mask="url(#mask0_371_12854)">
<g id="Group">
<path id="Vector_2" fill-rule="evenodd" clip-rule="evenodd" d="M105.89 5.46257C105.89 6.78278 104.82 7.85286 103.499 7.85286C102.179 7.85286 101.109 6.78278 101.109 5.46257C101.109 4.14253 102.179 3.07227 103.499 3.07227C104.82 3.07227 105.89 4.14253 105.89 5.46257Z" fill="#DB6B58"/>
<path id="Vector_3" fill-rule="evenodd" clip-rule="evenodd" d="M33.0605 26.9089C36.5753 26.9089 39.1197 24.2484 39.1197 20.811C39.1197 17.3735 36.5753 14.713 33.0605 14.713C29.5455 14.713 27.0013 17.3735 27.0013 20.811C27.0013 24.2484 29.5455 26.9089 33.0605 26.9089ZM33.0605 11.1006C38.7314 11.1006 42.9648 15.3538 42.9648 20.811C42.9648 26.2682 38.7314 30.5211 33.0605 30.5211C27.3898 30.5211 23.1562 26.2682 23.1562 20.811C23.1562 15.3538 27.3898 11.1006 33.0605 11.1006Z" fill="#033D58"/>
<path id="Vector_4" fill-rule="evenodd" clip-rule="evenodd" d="M55.1465 26.9089C58.6615 26.9089 61.2057 24.2484 61.2057 20.811C61.2057 17.3735 58.6615 14.713 55.1465 14.713C51.6315 14.713 49.0873 17.3735 49.0873 20.811C49.0873 24.2484 51.6315 26.9089 55.1465 26.9089ZM55.1465 11.1006C60.8174 11.1006 65.0508 15.3538 65.0508 20.811C65.0508 26.2682 60.8174 30.5211 55.1465 30.5211C49.4758 30.5211 45.2422 26.2682 45.2422 20.811C45.2422 15.3538 49.4758 11.1006 55.1465 11.1006Z" fill="#033D58"/>
<path id="Vector_5" fill-rule="evenodd" clip-rule="evenodd" d="M101.578 29.712V11.5234C101.578 11.291 101.767 11.1025 101.999 11.1025H105.002C105.235 11.1025 105.423 11.291 105.423 11.5234V29.712C105.423 29.9445 105.235 30.133 105.002 30.133H101.999C101.767 30.133 101.578 29.9445 101.578 29.712Z" fill="#033D58"/>
<path id="Vector_6" fill-rule="evenodd" clip-rule="evenodd" d="M90.3423 11.1007C87.1377 11.1007 84.8073 12.7516 83.6812 14.5771C82.4963 12.4214 80.2436 11.1007 77.0392 11.1007C73.757 11.1007 71.99 12.8875 71.3882 13.8391V10.8904C71.3882 10.5663 71.0371 10.3637 70.7563 10.5258L67.635 12.3279C67.5659 12.3678 67.5234 12.4415 67.5234 12.5212V29.7115C67.5234 29.9443 67.7119 30.1328 67.9445 30.1328H70.9669C71.1995 30.1328 71.3882 29.9443 71.3882 29.7115V19.6265C71.3882 16.5387 73.6601 14.7518 76.4372 14.7518C79.1755 14.7518 80.8263 16.5387 80.8263 19.6265V29.7115C80.8263 29.9443 81.0148 30.1328 81.2474 30.1328H84.2698C84.5023 30.1328 84.6908 29.9443 84.6908 29.7115V19.3934C84.7881 16.4609 87.0213 14.7518 89.7403 14.7518C92.4784 14.7518 94.129 16.5387 94.129 19.6265V29.7115C94.129 29.9443 94.3175 30.1328 94.5501 30.1328H97.5724C97.8052 30.1328 97.9937 29.9443 97.9937 29.7115V18.8107C97.9937 14.2857 95.3138 11.1007 90.3423 11.1007Z" fill="#033D58"/>
<path id="Vector_7" fill-rule="evenodd" clip-rule="evenodd" d="M10.7216 26.9087C7.20675 26.9087 4.66242 24.2482 4.66242 20.8107C4.66242 17.3733 7.20675 14.7126 10.7216 14.7126C14.2366 14.7126 16.7808 17.3733 16.7808 20.8107C16.7808 24.2482 14.2366 26.9087 10.7216 26.9087ZM10.7216 11.1006C7.99139 11.1006 5.59621 12.0884 3.84436 13.7199V0.856338C3.84436 0.532073 3.49346 0.329472 3.21271 0.491692L0.11157 2.28219C0.0426435 2.32206 0 2.3955 0 2.47523V29.7108C0 29.9434 0.188501 30.1318 0.421213 30.1318H3.42332C3.65585 30.1318 3.84436 29.9434 3.84436 29.7108V27.9015C5.59621 29.5329 7.99139 30.5209 10.7216 30.5209C16.3925 30.5209 20.6259 26.2678 20.6259 20.8107C20.6259 15.3535 16.3925 11.1006 10.7216 11.1006Z" fill="#033D58"/>
</g>
</g>
</g>
</svg>
