<svg width="48" height="48" viewBox="0 0 48 48" fill="none" xmlns="http://www.w3.org/2000/svg">
<g id="Boomi Icon Logo 2-Color Reversed RGB">
<path id="Vector" d="M48 24C48 28.7467 46.5924 33.3869 43.9553 37.3337C41.3181 41.2805 37.5698 44.3566 33.1844 46.1731C28.799 47.9896 23.9734 48.4649 19.3178 47.5388C14.6623 46.6128 10.3859 44.327 7.02945 40.9706C3.67299 37.6141 1.38721 33.3377 0.461164 28.6822C-0.464881 24.0266 0.0103994 19.201 1.8269 14.8156C3.6434 10.4302 6.71955 6.68188 10.6663 4.04473C14.6131 1.40758 19.2533 0 24 0C27.1517 0 30.2726 0.620778 33.1844 1.82689C36.0962 3.033 38.742 4.80083 40.9706 7.02944C43.1992 9.25804 44.967 11.9038 46.1731 14.8156C47.3792 17.7274 48 20.8483 48 24Z" fill="#02293B"/>
<path id="Vector_2" d="M26.0201 18.5759C23.1975 18.5403 20.4672 19.5804 18.3837 21.485V7.20213C18.384 7.12043 18.3628 7.0401 18.3221 6.96923C18.2814 6.89837 18.2228 6.83948 18.1521 6.7985C18.0814 6.75753 18.0012 6.73591 17.9195 6.73584C17.8378 6.73577 17.7575 6.75724 17.6868 6.79809L14.2423 8.81829C14.2051 8.83975 14.1743 8.8707 14.153 8.90797C14.1317 8.94524 14.1207 8.98749 14.1211 9.03041V39.2324C14.1237 39.3549 14.1735 39.4715 14.26 39.5581C14.3466 39.6447 14.4633 39.6945 14.5857 39.6971H17.9191C18.0423 39.6971 18.1605 39.6481 18.2476 39.561C18.3348 39.4738 18.3837 39.3557 18.3837 39.2324V37.2122C20.461 39.1314 23.192 40.1862 26.0201 40.1617C28.8785 40.1617 31.6199 39.0262 33.6411 37.005C35.6624 34.9838 36.7979 32.2424 36.7979 29.3839C36.7979 26.5255 35.6624 23.7841 33.6411 21.7629C31.6199 19.7417 28.8785 18.6062 26.0201 18.6062M26.0201 36.1213C24.6799 36.1293 23.3675 35.7392 22.2492 35.0005C21.131 34.2617 20.2573 33.2075 19.7388 31.9716C19.2204 30.7357 19.0806 29.3737 19.3372 28.0583C19.5937 26.7428 20.2351 25.5332 21.1799 24.5826C22.1248 23.6321 23.3306 22.9835 24.6444 22.7191C25.9583 22.4547 27.3212 22.5863 28.5601 23.0974C29.7991 23.6084 30.8585 24.4758 31.6039 25.5896C32.3494 26.7034 32.7473 28.0134 32.7474 29.3536C32.7708 30.2453 32.6131 31.1325 32.2838 31.9615C31.9545 32.7905 31.4605 33.5441 30.8317 34.1768C30.2028 34.8094 29.4522 35.3079 28.6252 35.6421C27.7981 35.9764 26.9119 36.1394 26.0201 36.1213Z" fill="white"/>
<path id="Vector_3" d="M39.3637 16.0405C39.3637 16.5639 39.2085 17.0756 38.9177 17.5108C38.6269 17.946 38.2136 18.2852 37.73 18.4855C37.2464 18.6858 36.7143 18.7382 36.201 18.6361C35.6876 18.534 35.216 18.282 34.8459 17.9118C34.4758 17.5417 34.2238 17.0702 34.1217 16.5568C34.0195 16.0434 34.0719 15.5113 34.2723 15.0278C34.4726 14.5442 34.8118 14.1309 35.247 13.8401C35.6822 13.5493 36.1938 13.394 36.7173 13.394C37.4192 13.394 38.0923 13.6729 38.5886 14.1692C39.0849 14.6655 39.3637 15.3386 39.3637 16.0405Z" fill="#FF8A76"/>
</g>
</svg>
