<svg width="1440" height="326" viewBox="0 0 1440 326" fill="none" xmlns="http://www.w3.org/2000/svg">
<g clip-path="url(#clip0_521_43942)">
<rect width="1440" height="326" fill="white"/>
<g clip-path="url(#clip1_521_43942)">
<rect width="1440" height="326" fill="url(#paint0_linear_521_43942)"/>
<path fill-rule="evenodd" clip-rule="evenodd" d="M1169.58 -42.0002C1158.87 -42.0002 1148.8 -36.36 1144.28 -26.646C1132.55 -1.44818 1126 26.6476 1126 56.2728C1126 164.922 1214.08 253 1322.73 253C1431.38 253 1519.45 164.922 1519.45 56.2728C1519.45 17.6395 1508.32 -18.3928 1489.08 -48.7893C1486.79 -52.4092 1481.45 -50.7171 1481.45 -46.4331C1481.45 -43.9849 1479.47 -42.0002 1477.02 -42.0002L1169.58 -42.0002Z" fill="url(#paint1_linear_521_43942)"/>
<mask id="mask0_521_43942" style="mask-type:luminance" maskUnits="userSpaceOnUse" x="1291" y="321" width="65" height="4">
<path d="M1291.97 323.47C1291.56 323.57 1291.63 324.15 1292.05 324.15H1295.73C1295.78 324.15 1295.84 324.145 1295.89 324.136C1300.31 323.325 1305.14 322.93 1310.52 322.93C1316.94 322.93 1323.9 323.53 1330.5 324.15H1355.41C1354.07 324.12 1352.8 324.1 1351.63 324.08C1351.2 324.09 1350.74 324.1 1350.27 324.1C1348.53 324.1 1346.75 324 1345.18 323.92C1340.82 323.67 1336.35 323.25 1332.04 322.83H1331.94C1324.93 322.15 1317.68 321.46 1310.51 321.46C1303.34 321.46 1297.48 322.12 1291.96 323.47" fill="white"/>
</mask>
<g mask="url(#mask0_521_43942)">
<mask id="mask1_521_43942" style="mask-type:luminance" maskUnits="userSpaceOnUse" x="1290" y="310" width="65" height="25">
<path d="M1348.59 320.178L1298.82 310.81C1294.79 310.05 1290.9 312.708 1290.14 316.746C1289.38 320.784 1292.03 324.674 1296.07 325.434L1345.84 334.801C1349.88 335.561 1353.77 332.904 1354.53 328.866C1355.29 324.828 1352.63 320.938 1348.59 320.178Z" fill="white"/>
</mask>
<g mask="url(#mask1_521_43942)">
<rect x="1288.55" y="309.36" width="67.44" height="26.88" rx="13.44" fill="url(#paint2_linear_521_43942)"/>
</g>
</g>
<mask id="mask2_521_43942" style="mask-type:luminance" maskUnits="userSpaceOnUse" x="1268" y="314" width="173" height="11">
<path d="M1277.38 321.36C1277.35 321.36 1277.33 321.364 1277.3 321.372C1274.35 322.316 1271.31 323.269 1268.29 324.114C1268.28 324.117 1268.28 324.128 1268.28 324.136C1268.29 324.143 1268.3 324.15 1268.3 324.15H1272.7C1273.14 324.15 1273.57 324.086 1273.99 323.958C1275.29 323.56 1276.58 323.155 1277.85 322.75C1287.84 319.61 1298.16 316.36 1309.71 316.36C1310.79 316.36 1311.87 316.39 1312.94 316.45C1318.3 316.73 1323.58 317.36 1328.7 317.97C1335.52 318.78 1342.58 319.63 1349.82 319.63C1350.17 319.63 1350.51 319.63 1350.85 319.63H1352.13C1353.47 319.63 1354.82 319.63 1356.13 319.63H1356.27C1357.61 319.63 1358.95 319.62 1360.28 319.62H1360.95C1380.1 319.65 1399.08 320.85 1421.69 322.65C1422.13 322.68 1422.62 322.69 1423.18 322.69C1423.68 322.69 1424.19 322.69 1424.67 322.67H1424.72C1425.19 322.66 1425.67 322.65 1426.15 322.65C1426.94 322.65 1427.58 322.67 1428.17 322.72H1428.21C1431.94 322.758 1435.73 322.891 1439.52 323.129C1439.95 323.156 1440.31 322.818 1440.31 322.392C1440.31 322.003 1440.01 321.681 1439.62 321.657C1435.78 321.424 1431.98 321.288 1428.27 321.26C1427.64 321.21 1426.96 321.19 1426.13 321.19C1425.65 321.19 1425.17 321.19 1424.67 321.21H1424.62C1424.13 321.21 1423.64 321.23 1423.14 321.23C1422.64 321.23 1422.18 321.23 1421.77 321.2C1399.15 319.39 1380.15 318.19 1360.93 318.16H1360.26C1359 318.16 1357.73 318.16 1356.47 318.16H1356.04C1354.75 318.16 1353.43 318.17 1352.11 318.17H1350.83C1350.49 318.17 1350.15 318.17 1349.8 318.17C1342.64 318.17 1335.63 317.33 1328.86 316.52H1328.82C1323.7 315.91 1318.41 315.27 1313.01 314.98C1311.92 314.92 1310.81 314.89 1309.71 314.89C1297.93 314.89 1287.49 318.17 1277.39 321.36" fill="white"/>
</mask>
<g mask="url(#mask2_521_43942)">
<mask id="mask3_521_43942" style="mask-type:luminance" maskUnits="userSpaceOnUse" x="1270" y="287" width="169" height="65">
<path d="M1421.89 311.415L1294.26 287.392C1283.15 285.301 1272.45 292.61 1270.36 303.718C1268.27 314.825 1275.58 325.524 1286.69 327.615L1414.32 351.639C1425.42 353.729 1436.12 346.42 1438.21 335.312C1440.3 324.205 1433 313.506 1421.89 311.415Z" fill="white"/>
</mask>
<g mask="url(#mask3_521_43942)">
<rect x="1266.47" y="283.44" width="175.68" height="72" rx="30" fill="url(#paint3_linear_521_43942)"/>
</g>
</g>
<mask id="mask4_521_43942" style="mask-type:luminance" maskUnits="userSpaceOnUse" x="1265" y="309" width="176" height="12">
<path d="M1308.25 309.81C1294.86 309.9 1283.21 313.74 1271.94 317.45C1269.8 318.15 1267.84 318.8 1265.92 319.41C1265.43 319.563 1265.24 320.148 1265.54 320.556C1265.73 320.806 1266.05 320.907 1266.34 320.813C1268.3 320.191 1270.26 319.547 1272.16 318.92L1272.42 318.84C1283.57 315.16 1295.11 311.36 1308.27 311.27C1308.66 311.27 1309.04 311.27 1309.42 311.27C1316.04 311.27 1322.71 311.87 1329.17 312.46C1332.26 312.74 1336.11 313.1 1339.83 313.33C1342.13 313.43 1344.43 313.44 1346.38 313.44H1348.1C1350.63 313.4 1353.14 313.28 1355.6 313.16C1356.1 313.14 1356.59 313.12 1357.08 313.1H1357.16C1361.39 312.9 1365.51 312.8 1369.39 312.8C1374.64 312.8 1379.54 312.97 1384.38 313.33C1391.08 313.88 1397.91 314.53 1403.94 315.1C1416.12 316.255 1427.66 317.343 1439.56 317.932C1439.98 317.953 1440.33 317.619 1440.33 317.2C1440.33 316.808 1440.02 316.485 1439.63 316.466C1427.77 315.877 1416.27 314.787 1404.16 313.64L1403.91 313.61C1397.58 313.01 1391.04 312.39 1384.49 311.85C1379.62 311.49 1374.68 311.31 1369.4 311.31C1365.49 311.31 1361.35 311.41 1357.09 311.61C1356.62 311.63 1356.14 311.66 1355.66 311.68H1355.38C1353 311.81 1350.54 311.92 1348.1 311.96H1346.31C1344.54 311.96 1342.22 311.94 1339.92 311.85C1336.35 311.62 1332.79 311.29 1329.31 310.98C1322.82 310.39 1316.11 309.78 1309.39 309.78C1309.01 309.78 1308.63 309.78 1308.26 309.78" fill="white"/>
</mask>
<g mask="url(#mask4_521_43942)">
<mask id="mask5_521_43942" style="mask-type:luminance" maskUnits="userSpaceOnUse" x="1266" y="281" width="173" height="69">
<path d="M1421 306.159L1292.26 281.927C1280.48 279.708 1269.13 287.464 1266.91 299.25C1264.69 311.036 1272.44 322.389 1284.23 324.607L1412.97 348.84C1424.76 351.058 1436.11 343.302 1438.33 331.516C1440.55 319.731 1432.79 308.378 1421 306.159Z" fill="white"/>
</mask>
<g mask="url(#mask5_521_43942)">
<rect x="1262.87" y="277.68" width="179.52" height="75.36" rx="30" fill="url(#paint4_linear_521_43942)"/>
</g>
</g>
<mask id="mask6_521_43942" style="mask-type:luminance" maskUnits="userSpaceOnUse" x="1262" y="304" width="179" height="13">
<path d="M1356.08 305.27C1355.24 305.35 1354.42 305.42 1353.58 305.5H1353.5C1350.95 305.75 1348.3 306 1345.71 306.16C1343.23 306.28 1340.59 306.34 1337.64 306.34C1333.35 306.34 1329.05 306.22 1324.89 306.1H1324.81C1320.66 305.98 1316.37 305.86 1312.11 305.86C1302.51 305.86 1295.22 306.49 1288.47 307.9C1282.84 309.09 1277.49 310.73 1272.31 312.32C1269.23 313.263 1266.07 314.23 1262.88 315.096C1262.4 315.227 1262.18 315.794 1262.46 316.21C1262.63 316.467 1262.95 316.587 1263.25 316.507C1266.49 315.64 1269.66 314.671 1272.75 313.72L1272.81 313.7C1277.95 312.13 1283.26 310.5 1288.78 309.33C1295.42 307.94 1302.62 307.32 1312.11 307.32C1316.36 307.32 1320.65 307.44 1324.8 307.56H1324.93C1329.09 307.68 1333.38 307.8 1337.67 307.8C1340.64 307.8 1343.3 307.74 1345.8 307.62C1348.47 307.46 1351.15 307.2 1353.74 306.95L1354.52 306.88L1356.23 306.72C1362.11 306.17 1367.44 305.91 1372.54 305.91C1377.92 305.91 1383 306.2 1388.06 306.81C1393.67 307.49 1399.11 308.25 1404.39 309C1416.42 310.7 1427.78 312.3 1440.17 312.78C1440.25 312.78 1440.32 312.713 1440.32 312.63V311.43C1440.32 311.364 1440.27 311.31 1440.2 311.31C1427.92 310.83 1416.6 309.24 1404.6 307.55C1399.34 306.81 1393.9 306.04 1388.23 305.36C1383.11 304.75 1377.97 304.45 1372.53 304.45C1367.38 304.45 1361.99 304.72 1356.08 305.27Z" fill="white"/>
</mask>
<g mask="url(#mask6_521_43942)">
<mask id="mask7_521_43942" style="mask-type:luminance" maskUnits="userSpaceOnUse" x="1263" y="275" width="176" height="71">
<path d="M1420.41 300.697L1290.09 276.167C1277.88 273.869 1266.12 281.903 1263.83 294.113C1261.53 306.322 1269.56 318.082 1281.77 320.381L1412.09 344.911C1424.3 347.209 1436.06 339.174 1438.36 326.965C1440.66 314.756 1432.62 302.995 1420.41 300.697Z" fill="white"/>
</mask>
<g mask="url(#mask7_521_43942)">
<rect x="1259.51" y="271.92" width="183.12" height="77.28" rx="30" fill="url(#paint5_linear_521_43942)"/>
</g>
</g>
<mask id="mask8_521_43942" style="mask-type:luminance" maskUnits="userSpaceOnUse" x="1259" y="297" width="182" height="16">
<path d="M1356.42 299.29C1353.31 299.7 1350.3 300.17 1347.51 300.61C1344.15 301.07 1341.18 301.36 1338.65 301.46C1333.58 301.66 1328.29 301.72 1323.61 301.77C1311.78 301.9 1299.54 302.03 1287.69 304.23C1282.06 305.31 1276.62 306.8 1271.37 308.24C1267.61 309.276 1263.99 310.269 1260.33 311.121C1259.84 311.235 1259.61 311.792 1259.87 312.216C1260.04 312.48 1260.35 312.614 1260.66 312.544C1264.45 311.669 1268.15 310.646 1271.77 309.66C1276.99 308.23 1282.39 306.74 1287.97 305.66C1299.69 303.49 1311.87 303.36 1323.64 303.23C1328.31 303.18 1333.61 303.13 1338.71 302.92C1341.29 302.82 1344.32 302.53 1347.74 302.06C1350.37 301.64 1353.48 301.16 1356.62 300.74C1363.36 299.86 1369.34 299.42 1374.91 299.42C1378.02 299.42 1380.98 299.55 1383.95 299.82C1393.3 300.7 1401.73 302.22 1410.66 303.83L1410.88 303.87C1415.55 304.71 1420.38 305.58 1425.33 306.34L1426.11 306.46C1429.8 307 1433.28 307.51 1437.15 307.72C1437.93 307.787 1438.71 307.859 1439.48 307.933C1439.92 307.974 1440.29 307.633 1440.29 307.198C1440.29 306.819 1440 306.501 1439.63 306.465C1438.84 306.39 1438.04 306.32 1437.24 306.25C1433.42 306.04 1429.96 305.53 1426.31 305L1425.54 304.88C1420.59 304.12 1415.77 303.25 1411.1 302.41L1410.95 302.38C1401.99 300.76 1393.52 299.23 1384.06 298.34C1381.05 298.07 1378.05 297.94 1374.89 297.94C1369.26 297.94 1363.21 298.37 1356.39 299.27" fill="white"/>
</mask>
<g mask="url(#mask8_521_43942)">
<mask id="mask9_521_43942" style="mask-type:luminance" maskUnits="userSpaceOnUse" x="1260" y="269" width="179" height="73">
<path d="M1419.43 294.015L1289.08 269.479C1276.07 267.031 1263.54 275.591 1261.1 288.598C1258.65 301.605 1267.21 314.134 1280.21 316.582L1410.57 341.118C1423.57 343.566 1436.1 335.007 1438.55 322C1441 308.993 1432.44 296.464 1419.43 294.015Z" fill="white"/>
</mask>
<g mask="url(#mask9_521_43942)">
<rect x="1256.63" y="264.96" width="186.48" height="80.64" rx="30" fill="url(#paint6_linear_521_43942)"/>
</g>
</g>
<mask id="mask10_521_43942" style="mask-type:luminance" maskUnits="userSpaceOnUse" x="1257" y="291" width="184" height="18">
<path d="M1351.41 294.73C1349.9 295 1348.37 295.29 1346.89 295.56L1346.67 295.6C1345.16 295.88 1343.6 296.17 1342.1 296.44C1341.49 296.53 1340.86 296.63 1340.27 296.73C1338.74 296.98 1337.15 297.24 1335.51 297.32C1312.68 298.03 1285.95 299.69 1260.74 306.63C1259.88 306.866 1259 307.09 1258.09 307.296C1257.61 307.406 1257.35 307.949 1257.6 308.383C1257.75 308.66 1258.07 308.805 1258.38 308.736C1259.32 308.526 1260.23 308.295 1261.13 308.05C1286.2 301.16 1312.83 299.5 1335.57 298.79C1337.32 298.7 1338.95 298.44 1340.53 298.18L1340.8 298.14C1341.3 298.06 1341.81 297.97 1342.33 297.9C1344.06 297.59 1345.82 297.26 1347.15 297.01L1347.76 296.9C1349.05 296.66 1350.36 296.41 1351.66 296.18C1358.95 294.86 1368.61 293.35 1378.74 293.35C1385.92 293.35 1392.47 294.08 1398.75 295.58C1412.36 298.834 1425.83 301.444 1439.47 303.458C1439.91 303.523 1440.3 303.182 1440.3 302.739C1440.3 302.378 1440.04 302.071 1439.68 302.018C1426.09 300.011 1412.67 297.41 1399.1 294.17C1392.69 292.64 1386.03 291.9 1378.74 291.9C1368.49 291.9 1358.74 293.43 1351.39 294.76" fill="white"/>
</mask>
<g mask="url(#mask10_521_43942)">
<mask id="mask11_521_43942" style="mask-type:luminance" maskUnits="userSpaceOnUse" x="1258" y="262" width="182" height="76">
<path d="M1418.53 287.759L1288.22 263.23C1274.49 260.647 1261.27 269.679 1258.69 283.406C1256.1 297.132 1265.14 310.354 1278.86 312.937L1409.17 337.466C1422.9 340.05 1436.12 331.017 1438.71 317.29C1441.29 303.564 1432.26 290.342 1418.53 287.759Z" fill="white"/>
</mask>
<g mask="url(#mask11_521_43942)">
<rect x="1253.99" y="258.48" width="189.6" height="83.76" rx="30" fill="url(#paint7_linear_521_43942)"/>
</g>
</g>
<mask id="mask12_521_43942" style="mask-type:luminance" maskUnits="userSpaceOnUse" x="1255" y="285" width="186" height="20">
<path d="M1349.38 289.57C1346.6 290.17 1343.82 290.83 1341.12 291.46L1339.93 291.74C1334.43 293.07 1329.03 293.91 1323.9 294.23C1298.58 295.73 1275.7 299.66 1256.66 303.29C1256.44 303.335 1256.22 303.376 1255.99 303.416C1255.5 303.502 1255.22 304.039 1255.46 304.481C1255.61 304.763 1255.92 304.915 1256.24 304.858C1256.47 304.814 1256.71 304.77 1256.94 304.73C1275.93 301.1 1298.76 297.18 1323.98 295.69C1329.19 295.36 1334.68 294.52 1340.27 293.16L1341.71 292.82C1344.32 292.21 1347.02 291.58 1349.7 290.99C1360.57 288.58 1370.12 287.4 1378.9 287.4C1382.46 287.4 1385.94 287.6 1389.24 288C1391.98 288.31 1394.7 288.72 1397.56 289.24C1404.51 290.52 1411.12 292.32 1417.52 294.06L1417.64 294.09C1423.73 295.75 1430.02 297.46 1436.69 298.75C1437.62 298.927 1438.55 299.086 1439.48 299.232C1439.92 299.302 1440.32 298.958 1440.32 298.51C1440.32 298.148 1440.06 297.84 1439.7 297.784C1438.79 297.642 1437.88 297.489 1436.98 297.31C1430.33 296.02 1424.03 294.3 1417.91 292.64L1417.84 292.62C1411.43 290.87 1404.8 289.07 1397.83 287.79C1394.91 287.25 1392.16 286.84 1389.41 286.53C1386.06 286.13 1382.53 285.92 1378.9 285.92C1370.01 285.92 1360.35 287.11 1349.38 289.54" fill="white"/>
</mask>
<g mask="url(#mask12_521_43942)">
<mask id="mask13_521_43942" style="mask-type:luminance" maskUnits="userSpaceOnUse" x="1255" y="256" width="185" height="79">
<path d="M1417.74 281.681L1287.36 257.14C1272.98 254.434 1259.13 263.894 1256.43 278.269C1253.72 292.644 1263.18 306.49 1277.56 309.196L1407.94 333.737C1422.31 336.443 1436.16 326.983 1438.86 312.608C1441.57 298.234 1432.11 284.387 1417.74 281.681Z" fill="white"/>
</mask>
<g mask="url(#mask13_521_43942)">
<rect x="1251.35" y="252.24" width="192.48" height="86.64" rx="30" fill="url(#paint8_linear_521_43942)"/>
</g>
</g>
<mask id="mask14_521_43942" style="mask-type:luminance" maskUnits="userSpaceOnUse" x="1253" y="280" width="188" height="21">
<path d="M1349.54 284.88C1346.19 285.61 1342.58 286.45 1338.17 287.52C1334.69 288.5 1331.12 289.21 1326.21 289.9C1310.99 292.07 1297 293.85 1282.18 295.74L1281.83 295.78C1273.27 296.87 1263.58 298.1 1253.76 299.41C1253.39 299.471 1253.17 299.859 1253.33 300.197C1253.39 300.341 1253.46 300.484 1253.53 300.626C1253.6 300.793 1253.79 300.896 1253.97 300.86C1263.69 299.56 1273.44 298.32 1282.05 297.23C1296.92 295.34 1310.96 293.55 1326.42 291.35C1331.4 290.66 1335.03 289.94 1338.55 288.95C1342.93 287.89 1346.53 287.06 1349.87 286.32C1361.63 283.62 1371.94 282.31 1381.4 282.31C1387.11 282.31 1392.56 282.81 1397.6 283.8C1400.8 284.39 1403.95 285.19 1406.96 286.16C1417.39 289.542 1428.14 292.298 1439.44 294.472C1439.9 294.56 1440.32 294.209 1440.32 293.744C1440.32 293.388 1440.07 293.082 1439.72 293.015C1428.48 290.853 1417.78 288.12 1407.42 284.76C1404.36 283.76 1401.15 282.96 1397.88 282.35C1392.75 281.35 1387.21 280.83 1381.4 280.83C1371.82 280.83 1361.4 282.15 1349.54 284.88Z" fill="white"/>
</mask>
<g mask="url(#mask14_521_43942)">
<mask id="mask15_521_43942" style="mask-type:luminance" maskUnits="userSpaceOnUse" x="1253" y="251" width="187" height="80">
<path d="M1417.24 276.476L1286.13 251.798C1271.38 249.02 1257.16 258.732 1254.38 273.489C1251.6 288.247 1261.32 302.462 1276.07 305.24L1407.18 329.918C1421.94 332.696 1436.15 322.984 1438.93 308.227C1441.71 293.469 1432 279.254 1417.24 276.476Z" fill="white"/>
</mask>
<g mask="url(#mask15_521_43942)">
<rect x="1249.19" y="246.72" width="194.88" height="88.32" rx="30" fill="url(#paint9_linear_521_43942)"/>
</g>
</g>
<mask id="mask16_521_43942" style="mask-type:luminance" maskUnits="userSpaceOnUse" x="1251" y="276" width="190" height="21">
<path d="M1337.99 282.95C1334.49 283.81 1330.73 284.67 1326.83 285.49C1303.83 290.346 1278.71 293.537 1252.09 294.994C1251.58 295.022 1251.25 295.547 1251.45 296.017C1251.58 296.301 1251.87 296.479 1252.17 296.462C1278.85 294.999 1304.06 291.799 1327.14 286.93C1331.03 286.1 1334.81 285.25 1338.37 284.37C1354.02 280.07 1367.84 277.97 1380.62 277.97C1387.98 277.97 1395.07 278.7 1401.69 280.13C1403.94 280.55 1406.21 281.05 1408.64 281.65C1413.5 282.869 1418.25 284.346 1422.85 285.784C1422.86 285.788 1422.88 285.79 1422.89 285.79C1422.9 285.79 1422.92 285.792 1422.93 285.796C1426.9 287.044 1431.02 288.342 1435.28 289.47C1436.65 289.826 1438.05 290.147 1439.45 290.446C1439.9 290.543 1440.33 290.195 1440.33 289.73C1440.33 289.381 1440.08 289.08 1439.74 289.009C1438.37 288.72 1437.01 288.402 1435.66 288.06C1431.46 286.94 1427.37 285.66 1423.41 284.42L1423.35 284.4C1418.72 282.95 1413.93 281.46 1409.01 280.23C1406.54 279.61 1404.25 279.11 1402 278.69C1395.28 277.23 1388.09 276.49 1380.63 276.49C1367.71 276.49 1353.77 278.6 1338 282.94" fill="white"/>
</mask>
<g mask="url(#mask16_521_43942)">
<mask id="mask17_521_43942" style="mask-type:luminance" maskUnits="userSpaceOnUse" x="1251" y="246" width="189" height="81">
<path d="M1417.09 272.125L1284.38 247.145C1269.54 244.353 1255.25 254.115 1252.46 268.948C1249.67 283.782 1259.43 298.07 1274.27 300.862L1406.98 325.842C1421.81 328.634 1436.1 318.873 1438.89 304.039C1441.68 289.206 1431.92 274.917 1417.09 272.125Z" fill="white"/>
</mask>
<g mask="url(#mask17_521_43942)">
<rect x="1247.27" y="241.92" width="196.8" height="89.04" rx="30" fill="url(#paint10_linear_521_43942)"/>
</g>
</g>
<mask id="mask18_521_43942" style="mask-type:luminance" maskUnits="userSpaceOnUse" x="1249" y="271" width="192" height="22">
<path d="M1369.74 272.43C1355.14 274.14 1340.5 278.1 1327.58 281.6L1326.41 281.92C1323.2 282.63 1319.88 283.32 1316.54 283.96C1295.23 288.046 1273 290.32 1250.4 290.741C1249.89 290.751 1249.53 291.262 1249.72 291.742C1249.83 292.029 1250.11 292.216 1250.42 292.211C1273.11 291.795 1295.43 289.499 1316.83 285.41C1320.15 284.77 1323.5 284.08 1326.77 283.35L1327.98 283.03C1345.25 278.35 1364.83 273.05 1384.15 273.05C1394.73 273.05 1403.98 274.63 1412.42 277.86C1414.31 278.5 1416.21 279.19 1418.17 279.9C1418.91 280.17 1419.65 280.44 1420.39 280.71C1422.91 281.62 1425.64 282.57 1428.58 283.42C1432.04 284.393 1435.64 285.298 1439.42 286.118C1439.88 286.218 1440.31 285.867 1440.31 285.397C1440.31 285.049 1440.07 284.748 1439.73 284.673C1435.99 283.858 1432.41 282.969 1428.98 281.99C1426.07 281.17 1423.37 280.22 1420.88 279.33C1420.31 279.12 1419.75 278.92 1419.18 278.71L1418.48 278.46C1416.66 277.79 1414.78 277.11 1412.91 276.48C1404.26 273.16 1394.82 271.55 1384.07 271.55C1379.54 271.55 1374.72 271.85 1369.73 272.43" fill="white"/>
</mask>
<g mask="url(#mask18_521_43942)">
<mask id="mask19_521_43942" style="mask-type:luminance" maskUnits="userSpaceOnUse" x="1250" y="241" width="190" height="82">
<path d="M1416.72 267.098L1283.22 241.969C1268.12 239.127 1253.57 249.063 1250.73 264.163C1247.89 279.262 1257.83 293.806 1272.92 296.649L1406.43 321.778C1421.53 324.62 1436.07 314.684 1438.92 299.584C1441.76 284.485 1431.82 269.941 1416.72 267.098Z" fill="white"/>
</mask>
<g mask="url(#mask19_521_43942)">
<rect x="1245.59" y="236.64" width="198.72" height="90.48" rx="30" fill="url(#paint11_linear_521_43942)"/>
</g>
</g>
<mask id="mask20_521_43942" style="mask-type:luminance" maskUnits="userSpaceOnUse" x="1248" y="267" width="193" height="21">
<path d="M1358.93 269.14C1351.86 270.66 1345.11 272.51 1338.59 274.29L1338.34 274.36C1333.97 275.56 1329.44 276.79 1324.88 277.91C1322.05 278.67 1319.11 279.38 1316.14 280.04C1297.7 284.15 1277.86 286.23 1257.2 286.23C1255.26 286.23 1253.28 286.21 1251.32 286.18H1248.77C1248.27 286.18 1247.91 286.671 1248.07 287.149C1248.17 287.449 1248.45 287.65 1248.77 287.65H1251.31C1253.3 287.69 1255.28 287.7 1257.2 287.7C1277.98 287.7 1297.92 285.6 1316.47 281.48C1319.44 280.82 1322.39 280.09 1325.25 279.34C1329.89 278.2 1334.47 276.95 1338.9 275.73L1338.98 275.7C1345.49 273.92 1352.22 272.07 1359.25 270.57C1364.76 269.36 1370.55 268.79 1376.94 268.79C1388.99 268.79 1401.15 270.94 1412.5 273.27C1415.66 273.94 1418.81 274.76 1421.84 275.7C1424.96 276.66 1428.06 277.78 1431.04 279.02C1433.73 280.149 1436.52 281.114 1439.39 281.939C1439.86 282.073 1440.32 281.721 1440.32 281.237C1440.32 280.907 1440.1 280.619 1439.78 280.528C1436.97 279.72 1434.24 278.77 1431.62 277.67C1428.59 276.4 1425.45 275.27 1422.29 274.3C1419.23 273.35 1416.05 272.52 1412.81 271.83C1401.38 269.49 1389.12 267.32 1376.95 267.32C1370.44 267.32 1364.55 267.92 1358.94 269.14" fill="white"/>
</mask>
<g mask="url(#mask20_521_43942)">
<mask id="mask21_521_43942" style="mask-type:luminance" maskUnits="userSpaceOnUse" x="1248" y="236" width="192" height="83">
<path d="M1416.66 262.867L1281.68 237.46C1266.57 234.617 1252.02 244.557 1249.18 259.662C1246.34 274.767 1256.28 289.316 1271.38 292.159L1406.36 317.567C1421.47 320.41 1436.02 310.47 1438.86 295.365C1441.7 280.26 1431.76 265.71 1416.66 262.867Z" fill="white"/>
</mask>
<g mask="url(#mask21_521_43942)">
<rect x="1243.91" y="232.08" width="200.16" height="90.72" rx="30" fill="url(#paint12_linear_521_43942)"/>
</g>
</g>
<mask id="mask22_521_43942" style="mask-type:luminance" maskUnits="userSpaceOnUse" x="1246" y="262" width="195" height="22">
<path d="M1356.75 265.15C1351.64 266.47 1346.64 267.98 1341.8 269.44L1341.69 269.48C1335.24 271.43 1328.57 273.44 1321.56 275.03C1318.35 275.76 1315.1 276.45 1311.9 277.07C1296.44 280.03 1280.08 281.59 1264.58 281.59H1263.8C1259.52 281.61 1255.23 281.62 1251.25 281.63H1247.35C1246.85 281.63 1246.5 282.101 1246.64 282.573C1246.73 282.886 1247.02 283.1 1247.35 283.1H1251.25C1255.24 283.1 1259.52 283.08 1263.8 283.06H1264.53C1280.16 283.06 1296.64 281.49 1312.2 278.52C1315.44 277.88 1318.71 277.19 1321.91 276.47C1328.94 274.881 1335.65 272.853 1342.14 270.894C1342.15 270.891 1342.16 270.89 1342.17 270.89C1342.18 270.89 1342.19 270.888 1342.19 270.886C1347.04 269.417 1352.05 267.899 1357.16 266.58C1363.22 264.96 1369.85 264.14 1376.85 264.14C1387.74 264.14 1399.8 266.12 1412.72 270.02C1416.21 270.97 1419.66 271.95 1422.98 272.91L1423.17 272.96C1428.51 274.486 1433.92 276.038 1439.43 277.43C1439.9 277.548 1440.35 277.195 1440.35 276.716C1440.35 276.377 1440.12 276.082 1439.79 275.999C1434.3 274.606 1428.9 273.068 1423.56 271.53L1423.2 271.43C1419.92 270.49 1416.52 269.52 1413.13 268.6C1400.09 264.66 1387.89 262.67 1376.85 262.67C1369.72 262.67 1362.96 263.51 1356.78 265.16" fill="white"/>
</mask>
<g mask="url(#mask22_521_43942)">
<mask id="mask23_521_43942" style="mask-type:luminance" maskUnits="userSpaceOnUse" x="1247" y="232" width="193" height="82">
<path d="M1416.53 258.169L1280.48 232.56C1265.29 229.702 1250.66 239.696 1247.8 254.882C1244.95 270.068 1254.94 284.696 1270.13 287.555L1406.18 313.163C1421.36 316.022 1435.99 306.028 1438.85 290.842C1441.71 275.656 1431.71 261.028 1416.53 258.169Z" fill="white"/>
</mask>
<g mask="url(#mask23_521_43942)">
<rect x="1242.47" y="227.28" width="201.6" height="91.2" rx="30" fill="url(#paint13_linear_521_43942)"/>
</g>
</g>
<mask id="mask24_521_43942" style="mask-type:luminance" maskUnits="userSpaceOnUse" x="1245" y="258" width="196" height="21">
<path d="M1365.05 259.51C1362.15 260.01 1359.17 260.66 1355.93 261.5C1353.01 262.32 1350.07 263.19 1347.22 264.03L1346.75 264.17C1334.4 267.81 1321.62 271.57 1308.57 272.8C1305.92 273.19 1303.22 273.62 1300.53 274.07C1290.41 276.2 1279.81 276.75 1271.7 277C1270.61 277.02 1269.51 277.04 1268.44 277.04C1267.14 277.04 1265.84 277.02 1264.59 276.99C1259.52 277 1255.13 277.03 1251.16 277.05H1246.08C1245.6 277.05 1245.25 277.5 1245.36 277.967C1245.44 278.293 1245.73 278.52 1246.07 278.52H1251.18C1255.16 278.5 1259.55 278.47 1264.59 278.46C1265.87 278.5 1267.17 278.51 1268.48 278.51C1269.56 278.51 1270.66 278.5 1271.76 278.47C1279.92 278.22 1290.61 277.67 1300.83 275.51C1303.52 275.06 1306.18 274.64 1308.76 274.26C1321.9 273.021 1334.73 269.244 1347.13 265.596C1347.14 265.592 1347.16 265.59 1347.17 265.59C1347.18 265.59 1347.2 265.588 1347.21 265.584C1350.45 264.617 1353.39 263.748 1356.34 262.92C1359.52 262.1 1362.46 261.46 1365.32 260.97C1369.26 260.29 1373.41 259.94 1377.67 259.94C1390.41 259.94 1402.46 262.95 1412.56 265.89C1415.32 266.62 1417.99 267.37 1420.51 268.12C1423 268.858 1425.47 269.615 1427.87 270.363C1427.88 270.367 1427.9 270.37 1427.91 270.37C1427.93 270.37 1427.95 270.372 1427.96 270.377C1431.68 271.544 1435.5 272.735 1439.42 273.801C1439.88 273.928 1440.34 273.576 1440.34 273.093C1440.34 272.761 1440.12 272.47 1439.8 272.382C1435.89 271.31 1432.07 270.126 1428.35 268.97L1428.13 268.9C1425.78 268.17 1423.36 267.42 1420.95 266.71C1418.4 265.95 1415.71 265.2 1412.98 264.48C1402.78 261.51 1390.6 258.48 1377.68 258.48C1373.34 258.48 1369.1 258.83 1365.08 259.53" fill="white"/>
</mask>
<g mask="url(#mask24_521_43942)">
<mask id="mask25_521_43942" style="mask-type:luminance" maskUnits="userSpaceOnUse" x="1246" y="227" width="194" height="83">
<path d="M1416.53 253.973L1279.24 228.131C1264.1 225.28 1249.51 235.247 1246.66 250.393C1243.81 265.538 1253.77 280.127 1268.92 282.978L1406.21 308.82C1421.35 311.671 1435.94 301.704 1438.79 286.558C1441.64 271.413 1431.68 256.824 1416.53 253.973Z" fill="white"/>
</mask>
<g mask="url(#mask25_521_43942)">
<rect x="1241.27" y="222.96" width="202.8" height="91.2" rx="30" fill="url(#paint14_linear_521_43942)"/>
</g>
</g>
<mask id="mask26_521_43942" style="mask-type:luminance" maskUnits="userSpaceOnUse" x="1244" y="254" width="197" height="20">
<path d="M1369.62 255.03C1366.82 255.25 1364.03 255.59 1361.09 256.07C1353.15 257.329 1345.44 259.595 1337.98 261.793C1337.97 261.798 1337.95 261.803 1337.94 261.81C1337.93 261.816 1337.91 261.822 1337.9 261.826C1331.11 263.824 1324.07 265.901 1316.74 267.25C1315.35 267.5 1313.91 267.78 1312.65 268.02L1312.47 268.06C1307.71 268.97 1303.23 269.83 1298.57 270.19C1295.84 270.54 1293.29 270.83 1290.8 271.08C1285.93 271.54 1281.62 271.87 1277.62 272.09C1273.44 272.32 1269.57 272.43 1265.79 272.43C1265.28 272.43 1264.76 272.43 1264.25 272.43C1259.11 272.43 1254.94 272.44 1251.1 272.46H1245.01C1244.55 272.46 1244.2 272.886 1244.3 273.342C1244.37 273.684 1244.67 273.93 1245.02 273.93H1251.11C1254.94 273.91 1259.11 273.9 1264.25 273.9C1264.76 273.9 1265.28 273.9 1265.8 273.9C1269.61 273.9 1273.5 273.79 1277.7 273.56C1281.69 273.34 1286.02 273.01 1290.95 272.55C1293.49 272.3 1296.04 272.01 1298.73 271.66C1303.45 271.3 1307.99 270.42 1312.79 269.5C1314.13 269.24 1315.56 268.97 1317.02 268.7C1324.44 267.331 1331.51 265.244 1338.34 263.225C1338.35 263.222 1338.37 263.22 1338.38 263.22C1338.39 263.22 1338.41 263.218 1338.42 263.214C1345.83 261.016 1353.5 258.769 1361.34 257.53C1364.24 257.06 1367 256.72 1369.75 256.5C1371.76 256.35 1373.83 256.26 1375.89 256.26C1388.86 256.26 1400.74 259.37 1412.23 262.38C1415.04 263.12 1418.23 263.95 1421.35 264.71C1424.27 265.44 1427.24 266.21 1430.28 267L1431.14 267.23C1433.64 267.89 1436.48 268.63 1439.2 269.31C1439.27 269.329 1439.35 269.348 1439.42 269.367C1439.88 269.485 1440.33 269.135 1440.33 268.661C1440.33 268.326 1440.1 268.032 1439.78 267.951C1439.71 267.933 1439.64 267.916 1439.57 267.9C1436.85 267.22 1434.13 266.5 1431.12 265.71L1430.67 265.58C1427.51 264.75 1424.66 264.01 1421.72 263.28C1418.62 262.522 1415.32 261.664 1412.67 260.965C1412.66 260.961 1412.64 260.96 1412.63 260.96C1412.62 260.96 1412.6 260.958 1412.59 260.955C1401.02 257.916 1389.04 254.78 1375.9 254.78C1373.8 254.78 1371.7 254.86 1369.64 255.02" fill="white"/>
</mask>
<g mask="url(#mask26_521_43942)">
<mask id="mask27_521_43942" style="mask-type:luminance" maskUnits="userSpaceOnUse" x="1245" y="223" width="195" height="82">
<path d="M1416.71 250.347L1277.9 224.219C1262.95 221.404 1248.55 231.244 1245.73 246.197C1242.92 261.15 1252.76 275.553 1267.71 278.368L1406.52 304.496C1421.47 307.311 1435.88 297.471 1438.69 282.518C1441.51 267.565 1431.67 253.162 1416.71 250.347Z" fill="white"/>
</mask>
<g mask="url(#mask27_521_43942)">
<rect x="1240.55" y="218.88" width="203.28" height="90.72" rx="30" fill="url(#paint15_linear_521_43942)"/>
</g>
</g>
<mask id="mask28_521_43942" style="mask-type:luminance" maskUnits="userSpaceOnUse" x="1243" y="251" width="198" height="19">
<path d="M1367.32 251.38H1367.25C1365.46 251.38 1363.52 251.75 1361.69 252.15C1354.12 253.75 1346.68 255.64 1339.48 257.46L1339.42 257.48C1323.09 261.61 1307.67 265.52 1291.01 266.36C1286.46 266.82 1282.69 267.15 1279.14 267.39C1274.82 267.68 1270.9 267.83 1267.16 267.86C1262.5 267.88 1258.23 267.88 1254.55 267.88H1244.15C1243.7 267.88 1243.34 268.289 1243.42 268.741C1243.47 269.094 1243.78 269.35 1244.14 269.35H1252.69C1256.7 269.35 1261.69 269.35 1267.16 269.33C1270.94 269.3 1274.89 269.15 1279.23 268.86C1282.75 268.62 1286.53 268.29 1291.12 267.83C1307.91 266.98 1323.41 263.06 1339.82 258.9L1339.95 258.86C1347.09 257.05 1354.49 255.18 1362.01 253.59C1363.76 253.21 1365.61 252.86 1367.23 252.86H1367.39C1369.52 252.69 1371.74 252.61 1373.97 252.61C1375.42 252.61 1376.9 252.65 1378.37 252.72C1390.99 253.32 1403.3 256.4 1415.21 259.37C1417.04 259.83 1418.93 260.3 1420.77 260.75C1423.69 261.42 1426.84 262.19 1430.42 263.12C1433.65 263.96 1436.78 264.8 1439.98 265.67C1440.15 265.715 1440.31 265.59 1440.31 265.418V264.801C1440.31 264.47 1440.09 264.18 1439.77 264.094C1436.97 263.34 1433.86 262.499 1430.79 261.71C1427.22 260.78 1424.05 260 1421.1 259.33C1419.26 258.88 1417.37 258.41 1415.54 257.95C1403.57 254.96 1391.2 251.88 1378.43 251.26C1376.94 251.19 1375.44 251.15 1373.97 251.15C1371.69 251.15 1369.45 251.24 1367.32 251.4" fill="white"/>
</mask>
<g mask="url(#mask28_521_43942)">
<mask id="mask29_521_43942" style="mask-type:luminance" maskUnits="userSpaceOnUse" x="1244" y="219" width="196" height="82">
<path d="M1416.91 246.72L1276.72 220.333C1261.97 217.556 1247.77 227.262 1244.99 242.012C1242.21 256.761 1251.92 270.968 1266.67 273.745L1406.86 300.132C1421.61 302.908 1435.81 293.202 1438.59 278.453C1441.37 263.704 1431.66 249.496 1416.91 246.72Z" fill="white"/>
</mask>
<g mask="url(#mask29_521_43942)">
<rect x="1239.83" y="215.28" width="204" height="90" rx="30" fill="url(#paint16_linear_521_43942)"/>
</g>
</g>
<mask id="mask30_521_43942" style="mask-type:luminance" maskUnits="userSpaceOnUse" x="1242" y="248" width="199" height="17">
<path d="M1354.59 249.48C1330.71 255.48 1306.02 261.68 1280.39 262.83C1275.67 263.13 1271.36 263.27 1267.21 263.27H1267.07C1260.97 263.29 1255.51 263.29 1251.13 263.29H1243.46C1243.01 263.29 1242.67 263.68 1242.73 264.121C1242.78 264.488 1243.09 264.76 1243.46 264.76H1251.12C1255.5 264.76 1260.96 264.76 1267.06 264.74H1267.2C1271.39 264.74 1275.73 264.6 1280.46 264.3C1306.23 263.14 1331 256.92 1354.95 250.9C1358.7 249.94 1362.84 249.48 1367.98 249.48C1370.34 249.48 1372.62 249.57 1374.84 249.65C1378.48 249.8 1382.25 250.15 1386.37 250.72C1394.63 251.87 1402.84 253.71 1410.79 255.49C1413.72 256.15 1417.04 256.89 1420.26 257.57C1423.87 258.2 1427.53 258.88 1431.26 259.59L1432.16 259.76L1432.82 259.88C1434.99 260.287 1437.22 260.703 1439.44 261.112C1439.89 261.194 1440.3 260.851 1440.3 260.396C1440.3 260.045 1440.05 259.744 1439.7 259.68C1437.4 259.255 1435.12 258.824 1432.88 258.41L1431.54 258.16C1428 257.49 1424.22 256.78 1420.54 256.14C1417.49 255.5 1414.37 254.8 1411.36 254.12L1411.11 254.07C1403.14 252.28 1394.9 250.43 1386.57 249.28C1382.4 248.7 1378.59 248.35 1374.88 248.19C1372.65 248.1 1370.35 248.01 1367.97 248.01C1362.71 248.01 1358.45 248.47 1354.58 249.47" fill="white"/>
</mask>
<g mask="url(#mask30_521_43942)">
<mask id="mask31_521_43942" style="mask-type:luminance" maskUnits="userSpaceOnUse" x="1244" y="216" width="195" height="81">
<path d="M1417.3 243.678L1275.45 216.978C1261.06 214.269 1247.2 223.739 1244.49 238.131C1241.78 252.522 1251.25 266.384 1265.64 269.093L1407.49 295.793C1421.88 298.502 1435.74 289.031 1438.45 274.64C1441.16 260.249 1431.69 246.387 1417.3 243.678Z" fill="white"/>
</mask>
<g mask="url(#mask31_521_43942)">
<rect x="1239.35" y="211.92" width="204.24" height="88.8" rx="30" fill="url(#paint17_linear_521_43942)"/>
</g>
</g>
<mask id="mask32_521_43942" style="mask-type:luminance" maskUnits="userSpaceOnUse" x="1242" y="245" width="199" height="16">
<path d="M1350.69 246.6C1348.14 247.15 1345.62 247.7 1343.09 248.25C1321.9 252.87 1301.89 257.23 1280.71 258.27C1276.31 258.56 1272.21 258.7 1268.19 258.7H1267.07C1262.43 258.71 1258.11 258.71 1254.63 258.71H1242.94C1242.51 258.71 1242.17 259.08 1242.21 259.512C1242.24 259.891 1242.56 260.18 1242.94 260.18H1254.63C1258.11 260.18 1262.43 260.18 1267.06 260.16H1268.18C1272.24 260.16 1276.36 260.02 1280.78 259.73C1302.06 258.68 1322.12 254.303 1343.37 249.676C1343.39 249.672 1343.41 249.666 1343.42 249.66C1343.44 249.653 1343.46 249.648 1343.48 249.644C1345.96 249.106 1348.47 248.558 1350.98 248.02C1355.05 247.15 1359.45 246.75 1364.83 246.75C1367.9 246.75 1370.96 246.88 1373.92 247L1374.55 247.02C1377.73 247.13 1381.06 247.36 1384.45 247.71C1396.94 248.98 1409.27 251.62 1421.23 254.18L1423.24 254.61C1426.49 255.11 1429.76 255.6 1432.96 256.05C1435.16 256.359 1437.33 256.646 1439.46 256.922C1439.9 256.979 1440.29 256.638 1440.29 256.195C1440.29 255.826 1440.02 255.515 1439.65 255.467C1437.52 255.193 1435.36 254.909 1433.16 254.6C1430.05 254.17 1426.8 253.68 1423.51 253.17C1423.51 253.17 1423.51 253.17 1423.51 253.17C1423.5 253.17 1423.5 253.169 1423.49 253.169L1421.53 252.75C1409.56 250.19 1397.19 247.53 1384.59 246.25C1381.14 245.9 1377.78 245.67 1374.6 245.56L1373.97 245.53C1370.99 245.41 1367.91 245.28 1364.81 245.28C1359.33 245.28 1354.83 245.69 1350.66 246.58" fill="white"/>
</mask>
<g mask="url(#mask32_521_43942)">
<mask id="mask33_521_43942" style="mask-type:luminance" maskUnits="userSpaceOnUse" x="1243" y="213" width="196" height="79">
<path d="M1417.81 241.057L1274.13 214.011C1260.21 211.391 1246.8 220.551 1244.18 234.47C1241.56 248.389 1250.72 261.796 1264.64 264.416L1408.32 291.462C1422.24 294.082 1435.65 284.923 1438.27 271.004C1440.89 257.085 1431.73 243.677 1417.81 241.057Z" fill="white"/>
</mask>
<g mask="url(#mask33_521_43942)">
<rect x="1239.35" y="209.04" width="203.76" height="87.36" rx="30" fill="url(#paint18_linear_521_43942)"/>
</g>
</g>
<mask id="mask34_521_43942" style="mask-type:luminance" maskUnits="userSpaceOnUse" x="1242" y="242" width="199" height="14">
<path d="M1338.51 245.08C1318.16 249.55 1293.88 254.13 1268.1 254.13H1267.08C1264.02 254.13 1261.15 254.13 1258.48 254.13H1242.74C1242.33 254.13 1242 254.459 1242 254.865C1242 255.271 1242.33 255.6 1242.74 255.6H1258.49C1258.49 255.6 1258.49 255.6 1258.49 255.6C1258.49 255.6 1265.05 255.6 1267.09 255.59H1268.15C1294.05 255.59 1318.42 251 1338.84 246.5C1346.52 244.75 1354.64 243.93 1364.36 243.93C1367.72 243.93 1371.33 244.03 1375.74 244.23C1379.02 244.4 1382.35 244.69 1385.94 245.12C1392.47 245.91 1398.88 247.08 1405.1 248.21C1408.52 248.83 1412.06 249.47 1415.59 250.05C1419.22 250.55 1422.98 250.98 1426.51 251.36C1430.81 251.831 1435.14 252.311 1439.49 252.766C1439.92 252.811 1440.3 252.473 1440.3 252.039C1440.3 251.665 1440.02 251.351 1439.64 251.311C1435.29 250.852 1430.96 250.376 1426.66 249.9C1422.99 249.5 1419.4 249.09 1415.81 248.6C1412.17 248.002 1408.4 247.325 1405.37 246.766C1405.35 246.762 1405.33 246.76 1405.31 246.76C1405.29 246.76 1405.27 246.758 1405.25 246.755C1399.04 245.627 1392.62 244.459 1386.11 243.66C1382.48 243.22 1379.11 242.92 1375.8 242.75C1371.37 242.54 1367.74 242.45 1364.35 242.45C1354.52 242.45 1346.3 243.28 1338.5 245.06" fill="white"/>
</mask>
<g mask="url(#mask34_521_43942)">
<mask id="mask35_521_43942" style="mask-type:luminance" maskUnits="userSpaceOnUse" x="1243" y="210" width="196" height="78">
<path d="M1418.32 238.315L1273.15 210.99C1259.69 208.456 1246.72 217.314 1244.19 230.774C1241.66 244.235 1250.51 257.2 1263.97 259.734L1409.14 287.059C1422.6 289.593 1435.57 280.735 1438.1 267.275C1440.64 253.814 1431.78 240.849 1418.32 238.315Z" fill="white"/>
</mask>
<g mask="url(#mask35_521_43942)">
<rect x="1239.59" y="206.4" width="203.28" height="85.44" rx="30" fill="url(#paint19_linear_521_43942)"/>
</g>
</g>
<mask id="mask36_521_43942" style="mask-type:luminance" maskUnits="userSpaceOnUse" x="1242" y="239" width="199" height="13">
<path d="M1320.25 244.12C1304.14 247.79 1287.65 249.58 1269.86 249.58C1268.45 249.58 1267.01 249.58 1265.58 249.54H1242.74C1242.33 249.54 1242 249.869 1242 250.275C1242 250.681 1242.33 251.01 1242.74 251.01H1265.57C1267.01 251.04 1268.46 251.04 1269.86 251.04C1287.77 251.04 1304.36 249.24 1320.58 245.54C1333.44 242.54 1346.25 241.08 1359.76 241.08C1365.68 241.08 1371.91 241.37 1378.3 241.93C1381.48 242.12 1384.72 242.39 1388.22 242.77C1394.02 243.4 1400.13 244.28 1408.03 245.6C1413.05 246.39 1417.96 246.84 1423.39 247.3C1425.39 247.47 1427.39 247.65 1429.39 247.83L1432.43 248.1C1434.82 248.306 1437.17 248.513 1439.49 248.712C1439.92 248.749 1440.29 248.411 1440.29 247.982C1440.29 247.602 1440 247.285 1439.62 247.252C1437.3 247.051 1434.94 246.85 1432.56 246.64L1429.95 246.41C1427.81 246.22 1425.67 246.03 1423.52 245.84C1418.14 245.38 1413.27 244.94 1408.28 244.15C1400.31 242.82 1394.17 241.94 1388.39 241.31C1384.87 240.92 1381.61 240.65 1378.41 240.46C1371.9 239.88 1365.8 239.61 1359.76 239.61C1346.14 239.61 1333.21 241.09 1320.24 244.12" fill="white"/>
</mask>
<g mask="url(#mask36_521_43942)">
<mask id="mask37_521_43942" style="mask-type:luminance" maskUnits="userSpaceOnUse" x="1243" y="207" width="196" height="77">
<path d="M1418.84 235.572L1272.34 207.995C1259.33 205.547 1246.81 214.105 1244.36 227.11C1241.91 240.114 1250.47 252.64 1263.47 255.088L1409.98 282.665C1422.98 285.113 1435.51 276.555 1437.96 263.551C1440.41 250.546 1431.85 238.02 1418.84 235.572Z" fill="white"/>
</mask>
<g mask="url(#mask37_521_43942)">
<rect x="1239.83" y="203.52" width="202.8" height="83.76" rx="30" fill="url(#paint20_linear_521_43942)"/>
</g>
</g>
<mask id="mask38_521_43942" style="mask-type:luminance" maskUnits="userSpaceOnUse" x="1242" y="235" width="199" height="12">
<path d="M1335.81 236.64C1330.08 237.509 1324.38 238.488 1318.86 239.438C1318.85 239.439 1318.84 239.44 1318.83 239.44C1318.83 239.44 1318.82 239.441 1318.81 239.443C1302.08 242.312 1286.29 245.01 1269.76 245.01C1268.37 245.01 1266.96 244.99 1265.59 244.95C1263.09 244.95 1260.72 244.95 1258.5 244.95H1242.74C1242.33 244.95 1242 245.279 1242 245.685C1242 246.091 1242.33 246.42 1242.74 246.42H1258.5C1260.73 246.42 1263.1 246.42 1265.58 246.41C1266.95 246.45 1268.35 246.47 1269.76 246.47C1286.44 246.47 1302.3 243.75 1319.1 240.87L1319.39 240.82C1324.82 239.89 1330.43 238.93 1336.05 238.08C1340.12 237.45 1344.39 237.14 1349.11 237.14C1356.44 237.14 1363.74 237.89 1370.8 238.61H1370.85C1374.87 239.03 1379.04 239.46 1383.17 239.74C1385.79 240.02 1388.4 240.31 1390.93 240.59L1392.73 240.78C1402.58 241.86 1411.48 242.79 1420.82 243.29C1424.82 243.51 1428.81 243.78 1432.68 244.07C1434.96 244.249 1437.25 244.436 1439.53 244.646C1439.96 244.685 1440.33 244.348 1440.33 243.917C1440.33 243.539 1440.04 243.224 1439.67 243.189C1437.39 242.983 1435.09 242.793 1432.79 242.62C1428.95 242.32 1424.95 242.06 1420.9 241.83C1411.63 241.34 1402.73 240.41 1392.89 239.33L1391.09 239.14C1388.57 238.86 1385.95 238.58 1383.3 238.29C1379.24 238.01 1375.12 237.59 1371.11 237.18H1370.99C1363.89 236.44 1356.54 235.68 1349.13 235.68C1344.33 235.68 1339.98 235.99 1335.83 236.63" fill="white"/>
</mask>
<g mask="url(#mask38_521_43942)">
<mask id="mask39_521_43942" style="mask-type:luminance" maskUnits="userSpaceOnUse" x="1243" y="203" width="196" height="76">
<path d="M1419.04 231.679L1272.02 204.006C1259.19 201.591 1246.83 210.036 1244.41 222.869C1242 235.703 1250.44 248.064 1263.28 250.48L1410.29 278.153C1423.13 280.569 1435.49 272.123 1437.9 259.29C1440.32 246.457 1431.87 234.095 1419.04 231.679Z" fill="white"/>
</mask>
<g mask="url(#mask39_521_43942)">
<rect x="1239.83" y="199.44" width="202.56" height="83.28" rx="30" fill="url(#paint21_linear_521_43942)"/>
</g>
</g>
<mask id="mask40_521_43942" style="mask-type:luminance" maskUnits="userSpaceOnUse" x="1242" y="231" width="199" height="11">
<path d="M1327.37 232.64C1322.88 233.38 1318.43 234.17 1314.12 234.94L1313.51 235.05C1297.92 237.85 1283.2 240.48 1267.75 240.48C1266.05 240.48 1264.34 240.44 1262.67 240.38H1242.74C1242.33 240.38 1242 240.709 1242 241.115C1242 241.521 1242.33 241.85 1242.74 241.85H1262.64C1264.35 241.91 1266.08 241.94 1267.75 241.94C1283.34 241.94 1298.13 239.29 1313.79 236.48L1313.99 236.44C1318.42 235.65 1322.99 234.83 1327.61 234.07C1331.62 233.41 1335.79 233.1 1340.36 233.1C1348.03 233.1 1355.61 234.01 1362.94 234.89L1363.13 234.92C1368.22 235.53 1373.48 236.16 1378.75 236.49C1381.43 236.63 1384.12 236.8 1386.73 236.98C1391.62 237.33 1396.6 237.79 1401.4 238.23L1401.71 238.26C1404.7 238.54 1407.78 238.82 1410.85 239.08C1414.1 239.39 1417.6 239.64 1421.53 239.82L1421.76 239.84C1423.26 239.93 1424.77 240.02 1426.29 240.1H1426.48C1428.42 240.23 1430.36 240.34 1432.3 240.45C1435.06 240.611 1437.4 240.739 1439.55 240.851C1439.97 240.872 1440.32 240.538 1440.32 240.118C1440.32 239.727 1440.01 239.404 1439.62 239.384C1437.48 239.272 1435.13 239.143 1432.38 238.99C1430.38 238.87 1428.39 238.76 1426.41 238.64L1421.62 238.36C1417.69 238.17 1414.21 237.93 1410.99 237.62C1407.95 237.36 1404.87 237.09 1401.89 236.81L1401.56 236.78C1396.73 236.34 1391.73 235.88 1386.83 235.53C1384.23 235.34 1381.54 235.18 1378.82 235.04C1373.56 234.71 1368.27 234.08 1363.14 233.46C1355.76 232.57 1348.12 231.66 1340.35 231.66C1335.71 231.66 1331.46 231.98 1327.36 232.65" fill="white"/>
</mask>
<g mask="url(#mask40_521_43942)">
<mask id="mask41_521_43942" style="mask-type:luminance" maskUnits="userSpaceOnUse" x="1244" y="199" width="195" height="76">
<path d="M1419.18 227.667L1271.79 199.923C1259.08 197.532 1246.85 205.892 1244.45 218.595C1242.06 231.298 1250.42 243.534 1263.13 245.925L1410.52 273.669C1423.22 276.06 1435.46 267.7 1437.85 254.997C1440.24 242.294 1431.88 230.058 1419.18 227.667Z" fill="white"/>
</mask>
<g mask="url(#mask41_521_43942)">
<rect x="1240.07" y="195.36" width="202.32" height="82.8" rx="30" fill="url(#paint22_linear_521_43942)"/>
</g>
</g>
<mask id="mask42_521_43942" style="mask-type:luminance" maskUnits="userSpaceOnUse" x="1242" y="226" width="199" height="12">
<path d="M1321.24 227.68C1303.87 231.7 1285.92 235.86 1266.95 235.86C1265.54 235.86 1264.12 235.84 1262.7 235.79C1259.22 235.81 1256.04 235.81 1253.19 235.81H1242.96C1242.59 235.81 1242.27 236.095 1242.24 236.471C1242.21 236.904 1242.55 237.28 1242.98 237.28H1253.22C1256.06 237.28 1259.23 237.27 1262.67 237.26C1264.06 237.31 1265.5 237.33 1266.94 237.33C1286.06 237.33 1304.12 233.16 1321.57 229.11C1325.7 228.13 1329.91 227.65 1334.46 227.65C1342.54 227.65 1350.38 229.155 1358.69 230.753C1358.72 230.758 1358.74 230.76 1358.77 230.76C1358.8 230.76 1358.82 230.763 1358.85 230.768C1363.3 231.635 1367.91 232.522 1372.58 233.14C1373.51 233.2 1374.44 233.3 1375.34 233.38H1375.46C1377.2 233.56 1378.84 233.72 1380.55 233.73C1381.79 233.8 1383.03 233.869 1384.28 233.939C1384.29 233.94 1384.31 233.94 1384.32 233.941C1384.61 233.958 1387.65 234.133 1388.59 234.19C1390.56 234.31 1392.56 234.43 1394.52 234.55L1395.91 234.64C1398.82 234.83 1401.82 235.02 1404.77 235.18C1408.78 235.49 1412.89 235.64 1418.07 235.67C1421.77 235.76 1425.58 235.86 1429.4 235.99C1432.74 236.102 1436.13 236.222 1439.55 236.359C1439.97 236.376 1440.32 236.04 1440.32 235.62C1440.32 235.223 1440.01 234.897 1439.61 234.881C1436.18 234.743 1432.79 234.623 1429.46 234.52C1425.7 234.4 1421.88 234.29 1418.1 234.2C1412.95 234.17 1408.88 234.02 1404.88 233.71C1401.96 233.55 1399.03 233.36 1396.2 233.18L1394.96 233.1C1392.89 232.97 1390.78 232.84 1388.7 232.71C1387.76 232.66 1386.83 232.6 1385.9 232.55L1384.41 232.46C1383.16 232.4 1381.92 232.32 1380.63 232.25C1378.96 232.25 1377.35 232.08 1375.64 231.92C1374.62 231.82 1373.7 231.73 1372.77 231.67C1368.18 231.06 1363.58 230.18 1359.12 229.32L1359.05 229.3C1350.65 227.69 1342.72 226.16 1334.5 226.16C1329.84 226.16 1325.52 226.65 1321.28 227.66" fill="white"/>
</mask>
<g mask="url(#mask42_521_43942)">
<mask id="mask43_521_43942" style="mask-type:luminance" maskUnits="userSpaceOnUse" x="1244" y="194" width="195" height="76">
<path d="M1418.95 222.148L1272.35 194.554C1259.43 192.122 1246.98 200.626 1244.55 213.549C1242.12 226.472 1250.62 238.92 1263.54 241.352L1410.14 268.946C1423.06 271.378 1435.51 262.874 1437.94 249.951C1440.37 237.028 1431.87 224.58 1418.95 222.148Z" fill="white"/>
</mask>
<g mask="url(#mask43_521_43942)">
<rect x="1240.07" y="190.08" width="202.32" height="83.28" rx="30" fill="url(#paint23_linear_521_43942)"/>
</g>
</g>
<mask id="mask44_521_43942" style="mask-type:luminance" maskUnits="userSpaceOnUse" x="1242" y="219" width="199" height="14">
<path d="M1319.61 221.39L1318.71 221.65C1301.71 226.65 1285.66 231.38 1268.49 231.38C1266.56 231.38 1264.64 231.32 1262.75 231.2H1262.71C1258.94 231.22 1255.5 231.23 1252.56 231.24H1243.5C1243.13 231.24 1242.82 231.517 1242.76 231.886C1242.7 232.323 1243.04 232.71 1243.48 232.71H1252.57C1255.49 232.71 1258.93 232.69 1262.68 232.67C1264.59 232.79 1266.54 232.85 1268.49 232.85C1285.88 232.85 1302.03 228.1 1319.14 223.06L1320.05 222.79C1323.15 221.81 1326.41 221.33 1330.03 221.33C1335.81 221.33 1341.56 222.59 1346.9 223.95C1359.85 227.64 1371.61 230.69 1384.32 230.69C1384.67 230.69 1385.03 230.69 1385.36 230.69C1389.14 230.77 1392.89 230.89 1396.49 231.04C1400.29 231.21 1404.05 231.42 1407.67 231.67C1410.44 231.71 1413.21 231.74 1415.98 231.79L1418.73 231.82C1425.64 231.917 1432.66 232.032 1439.54 232.147C1439.95 232.154 1440.29 231.821 1440.29 231.408C1440.29 231.004 1439.97 230.675 1439.56 230.668C1432.71 230.552 1425.71 230.437 1418.75 230.34L1416 230.31C1413.23 230.27 1410.45 230.23 1407.72 230.19C1404.06 229.94 1400.31 229.72 1396.54 229.56C1392.92 229.41 1389.15 229.28 1385.35 229.21C1384.99 229.21 1384.62 229.21 1384.26 229.21C1371.77 229.21 1360.12 226.18 1347.26 222.52C1341.8 221.13 1335.94 219.85 1330 219.85C1326.23 219.85 1322.82 220.35 1319.58 221.38" fill="white"/>
</mask>
<g mask="url(#mask44_521_43942)">
<mask id="mask45_521_43942" style="mask-type:luminance" maskUnits="userSpaceOnUse" x="1244" y="188" width="195" height="77">
<path d="M1418.43 215.725L1273.66 188.474C1260.27 185.954 1247.38 194.764 1244.86 208.151C1242.34 221.538 1251.15 234.433 1264.53 236.952L1409.31 264.204C1422.7 266.724 1435.59 257.914 1438.11 244.527C1440.63 231.14 1431.82 218.245 1418.43 215.725Z" fill="white"/>
</mask>
<g mask="url(#mask45_521_43942)">
<rect x="1240.07" y="183.84" width="202.8" height="84.96" rx="30" fill="url(#paint24_linear_521_43942)"/>
</g>
</g>
<mask id="mask46_521_43942" style="mask-type:luminance" maskUnits="userSpaceOnUse" x="1243" y="213" width="198" height="16">
<path d="M1316.03 215.65C1296.19 223.22 1279.37 226.75 1263.12 226.75C1261.27 226.75 1259.39 226.7 1257.53 226.61C1253.38 226.63 1249.83 226.64 1246.55 226.64H1244.19C1243.83 226.64 1243.53 226.901 1243.47 227.256C1243.4 227.704 1243.74 228.11 1244.19 228.11H1246.55C1249.85 228.11 1253.42 228.11 1257.49 228.08C1259.36 228.17 1261.25 228.22 1263.11 228.22C1279.56 228.22 1296.54 224.66 1316.56 217.02C1320.06 215.71 1323.7 215.07 1327.68 215.07C1336.16 215.07 1344.75 218.03 1353.05 220.88C1356.96 222.22 1360.99 223.61 1364.99 224.69C1370.99 226.19 1377.18 227 1383.41 227.09C1385.27 227.13 1387.17 227.17 1389.01 227.21C1390.5 227.23 1392 227.26 1393.49 227.3C1396.86 227.37 1400.25 227.47 1403.57 227.6L1411.19 227.65C1412.57 227.65 1413.94 227.66 1415.33 227.68C1422.78 227.73 1430.47 227.8 1437.25 227.85H1438.96C1439.17 227.859 1439.37 227.864 1439.58 227.868C1439.98 227.875 1440.32 227.545 1440.32 227.137C1440.32 226.735 1439.99 226.41 1439.59 226.41C1439.37 226.41 1439.14 226.41 1438.91 226.41H1437.3C1430.49 226.35 1422.76 226.28 1415.35 226.23C1413.92 226.23 1412.48 226.21 1411.04 226.2L1403.61 226.16C1400.29 226.03 1396.9 225.93 1393.52 225.86C1392.03 225.82 1390.53 225.8 1389.03 225.77C1387.2 225.73 1385.3 225.7 1383.43 225.65C1377.32 225.57 1371.24 224.78 1365.36 223.3C1361.4 222.23 1357.39 220.85 1353.52 219.52C1345.09 216.62 1336.39 213.63 1327.67 213.63C1323.5 213.63 1319.69 214.3 1316.01 215.68" fill="white"/>
</mask>
<g mask="url(#mask46_521_43942)">
<mask id="mask47_521_43942" style="mask-type:luminance" maskUnits="userSpaceOnUse" x="1244" y="182" width="195" height="78">
<path d="M1418 209.387L1275.04 182.476C1261.25 179.881 1247.96 188.955 1245.37 202.743C1242.77 216.532 1251.85 229.814 1265.64 232.409L1408.61 259.32C1422.39 261.916 1435.68 252.842 1438.27 239.053C1440.87 225.265 1431.79 211.983 1418 209.387Z" fill="white"/>
</mask>
<g mask="url(#mask47_521_43942)">
<rect x="1240.55" y="177.6" width="202.56" height="86.64" rx="30" fill="url(#paint25_linear_521_43942)"/>
</g>
</g>
<mask id="mask48_521_43942" style="mask-type:luminance" maskUnits="userSpaceOnUse" x="1244" y="208" width="197" height="17">
<path d="M1316.22 210.5C1314.33 211.23 1312.38 212 1310.56 212.72C1297.34 217.95 1283.69 223.36 1269.09 223.36C1267.16 223.36 1265.23 223.26 1263.34 223.07H1263.28C1259.53 223.12 1256.18 223.14 1253.22 223.16H1244.86C1244.51 223.16 1244.21 223.406 1244.14 223.748C1244.05 224.204 1244.4 224.63 1244.87 224.63H1253.15C1256.13 224.61 1259.51 224.59 1263.26 224.53C1265.18 224.72 1267.15 224.82 1269.12 224.82C1283.99 224.82 1297.78 219.36 1311.13 214.08C1312.94 213.36 1314.87 212.6 1316.79 211.86C1319.45 210.79 1322.3 210.26 1325.49 210.26C1330.99 210.26 1336.62 211.84 1341.39 213.4C1344.16 214.34 1346.98 215.37 1349.7 216.37L1349.82 216.41C1360.96 220.49 1372.47 224.71 1384.66 224.7C1385.79 224.7 1386.93 224.66 1388.01 224.59H1398.02C1404.7 224.59 1411.38 224.6 1418.08 224.61C1420.29 224.61 1422.48 224.61 1424.64 224.61H1439.59C1439.99 224.61 1440.32 224.283 1440.32 223.88C1440.32 223.477 1439.99 223.15 1439.59 223.15H1424.22C1422.2 223.15 1420.15 223.15 1418.08 223.14C1411.7 223.14 1405.33 223.14 1398.96 223.12H1387.96C1386.88 223.19 1385.77 223.23 1384.67 223.23C1372.74 223.23 1361.34 219.06 1350.33 215.02L1350.04 214.91C1347.37 213.94 1344.61 212.92 1341.88 211.99C1336.98 210.4 1331.2 208.77 1325.5 208.77C1322.11 208.77 1319.08 209.33 1316.25 210.47" fill="white"/>
</mask>
<g mask="url(#mask48_521_43942)">
<mask id="mask49_521_43942" style="mask-type:luminance" maskUnits="userSpaceOnUse" x="1245" y="177" width="194" height="80">
<path d="M1417.63 204.524L1276.27 177.914C1262.13 175.254 1248.52 184.553 1245.86 198.684C1243.2 212.814 1252.5 226.426 1266.63 229.086L1408 255.695C1422.13 258.355 1435.74 249.056 1438.4 234.925C1441.06 220.795 1431.76 207.183 1417.63 204.524Z" fill="white"/>
</mask>
<g mask="url(#mask49_521_43942)">
<rect x="1241.03" y="173.04" width="202.32" height="87.6" rx="30" fill="url(#paint26_linear_521_43942)"/>
</g>
</g>
<mask id="mask50_521_43942" style="mask-type:luminance" maskUnits="userSpaceOnUse" x="1245" y="202" width="196" height="19">
<path d="M1311.66 205.54L1310 206.31C1296.19 212.71 1283.15 218.76 1268.43 218.76C1266.74 218.76 1265.04 218.68 1263.34 218.51H1263.29C1259.28 218.55 1255.78 218.57 1252.69 218.58H1245.88C1245.54 218.58 1245.24 218.811 1245.16 219.14C1245.05 219.603 1245.4 220.05 1245.88 220.05H1252.58C1255.35 220.05 1259.14 220.03 1263.24 219.98C1264.96 220.14 1266.7 220.22 1268.43 220.22C1283.47 220.22 1296.66 214.11 1310.62 207.64L1312.27 206.87C1316.36 205.02 1320.54 204.11 1325.05 204.11C1334.07 204.11 1342.92 207.72 1352.3 211.55C1358.09 213.91 1364.07 216.35 1370.09 217.81C1375.64 219.11 1380.5 219.74 1384.95 219.75C1388.59 219.83 1392.31 219.83 1395.9 219.84H1396.33C1410.62 219.85 1425.15 219.908 1439.56 220.024C1439.97 220.027 1440.3 219.698 1440.3 219.289C1440.3 218.886 1439.97 218.558 1439.57 218.555C1425.17 218.448 1410.63 218.39 1396.33 218.37H1395.88C1392.3 218.37 1388.6 218.37 1384.97 218.28C1380.64 218.28 1375.88 217.65 1370.45 216.38C1364.55 214.941 1358.63 212.534 1352.89 210.186C1352.88 210.182 1352.87 210.18 1352.86 210.18C1352.85 210.18 1352.84 210.178 1352.84 210.174C1346.21 207.456 1339.36 204.669 1332.56 203.39C1329.97 202.91 1327.46 202.66 1325.06 202.66C1320.29 202.66 1315.91 203.6 1311.66 205.52" fill="white"/>
</mask>
<g mask="url(#mask50_521_43942)">
<mask id="mask51_521_43942" style="mask-type:luminance" maskUnits="userSpaceOnUse" x="1246" y="171" width="194" height="81">
<path d="M1417.27 198.34L1277.86 172.098C1263.37 169.372 1249.42 178.904 1246.69 193.39C1243.97 207.877 1253.5 221.83 1267.98 224.557L1407.4 250.798C1421.88 253.525 1435.84 243.992 1438.56 229.506C1441.29 215.02 1431.76 201.066 1417.27 198.34Z" fill="white"/>
</mask>
<g mask="url(#mask51_521_43942)">
<rect x="1241.75" y="167.04" width="201.84" height="88.8" rx="30" fill="url(#paint27_linear_521_43942)"/>
</g>
</g>
<mask id="mask52_521_43942" style="mask-type:luminance" maskUnits="userSpaceOnUse" x="1246" y="197" width="195" height="19">
<path d="M1318.56 197.64C1311.28 198.5 1305.2 201.99 1299.32 205.37C1295.87 207.35 1292.31 209.4 1288.53 210.89C1281.13 213.88 1272.91 213.91 1264.95 213.93H1264.76C1264.26 213.93 1263.76 213.93 1263.27 213.94C1259.22 213.98 1255.69 214 1252.58 214.01H1247.09C1246.76 214.01 1246.47 214.231 1246.38 214.55C1246.24 215.019 1246.6 215.48 1247.09 215.48H1252.6C1255.72 215.47 1259.25 215.45 1263.3 215.41C1263.77 215.41 1264.23 215.41 1264.7 215.41H1264.97C1273.07 215.38 1281.44 215.36 1289.09 212.26C1292.97 210.73 1296.58 208.66 1300.08 206.65C1305.82 203.35 1311.76 199.94 1318.75 199.12C1320.3 198.93 1321.9 198.83 1323.5 198.83C1333.44 198.83 1342.75 202.52 1351.77 206.09L1351.83 206.12C1356.36 207.91 1361.04 209.77 1365.77 211.15C1373.83 213.48 1380.8 214.63 1387.7 214.77H1389.81C1392.82 214.77 1395.76 214.77 1398.53 214.79C1412.18 214.859 1425.98 215.072 1439.57 215.411C1439.99 215.421 1440.33 215.087 1440.33 214.671C1440.33 214.27 1440.01 213.942 1439.61 213.931C1426 213.583 1412.2 213.369 1398.54 213.31C1395.78 213.29 1392.84 213.29 1389.82 213.29H1387.71C1380.94 213.16 1374.11 212.03 1366.19 209.74C1361.53 208.37 1356.87 206.53 1352.36 204.75L1352.32 204.73C1343.18 201.11 1333.73 197.37 1323.52 197.37C1321.86 197.37 1320.2 197.47 1318.58 197.67" fill="white"/>
</mask>
<g mask="url(#mask52_521_43942)">
<mask id="mask53_521_43942" style="mask-type:luminance" maskUnits="userSpaceOnUse" x="1247" y="166" width="193" height="81">
<path d="M1417.19 192.978L1279.16 166.998C1264.57 164.252 1250.52 173.851 1247.78 188.438C1245.03 203.024 1254.63 217.075 1269.22 219.82L1407.24 245.801C1421.83 248.546 1435.88 238.947 1438.63 224.361C1441.37 209.774 1431.77 195.724 1417.19 192.978Z" fill="white"/>
</mask>
<g mask="url(#mask53_521_43942)">
<rect x="1242.71" y="162" width="201.12" height="88.8" rx="30" fill="url(#paint28_linear_521_43942)"/>
</g>
</g>
<mask id="mask54_521_43942" style="mask-type:luminance" maskUnits="userSpaceOnUse" x="1247" y="191" width="194" height="20">
<path d="M1292.35 203.67C1284.63 208.41 1276.23 209.38 1266 209.38C1265.07 209.38 1264.14 209.38 1263.19 209.36C1257.9 209.41 1253.24 209.41 1249.5 209.41H1248.5C1248.19 209.41 1247.9 209.614 1247.8 209.917C1247.65 210.392 1248 210.88 1248.5 210.88H1249.5C1253.24 210.88 1257.9 210.88 1263.19 210.82C1264.08 210.83 1264.98 210.84 1265.88 210.84C1275.02 210.84 1284.65 210.12 1293.13 204.91C1302.39 199.3 1313.21 193.33 1324.54 193.33C1327.85 193.33 1331.16 193.84 1334.35 194.85C1339.69 196.45 1344.96 198.4 1350.07 200.28C1362.04 204.7 1374.42 209.27 1387.79 209.39C1389.83 209.37 1391.89 209.37 1393.91 209.37C1395.49 209.37 1397.06 209.37 1398.6 209.37C1413.04 209.439 1426.46 209.834 1439.53 210.575C1439.96 210.599 1440.31 210.264 1440.31 209.843C1440.31 209.454 1440.01 209.132 1439.62 209.111C1426.54 208.375 1413.09 207.969 1398.61 207.9C1397.07 207.9 1395.5 207.9 1393.91 207.9C1391.86 207.9 1389.81 207.9 1387.79 207.92C1374.7 207.8 1362.43 203.28 1350.57 198.9C1345.45 197.01 1340.15 195.05 1334.78 193.45C1331.45 192.4 1327.99 191.86 1324.53 191.86C1312.83 191.86 1301.79 197.95 1292.35 203.66" fill="white"/>
</mask>
<g mask="url(#mask54_521_43942)">
<mask id="mask55_521_43942" style="mask-type:luminance" maskUnits="userSpaceOnUse" x="1248" y="161" width="192" height="81">
<path d="M1417.05 187.489L1280.79 161.842C1266.04 159.065 1251.83 168.773 1249.05 183.525C1246.27 198.277 1255.98 212.487 1270.73 215.264L1406.99 240.911C1421.74 243.688 1435.95 233.98 1438.73 219.228C1441.51 204.476 1431.8 190.266 1417.05 187.489Z" fill="white"/>
</mask>
<g mask="url(#mask55_521_43942)">
<rect x="1243.91" y="156.72" width="199.92" height="89.28" rx="30" fill="url(#paint29_linear_521_43942)"/>
</g>
</g>
<mask id="mask56_521_43942" style="mask-type:luminance" maskUnits="userSpaceOnUse" x="1249" y="187" width="192" height="20">
<path d="M1312.97 188.68C1307.16 190.2 1302.1 193.06 1297.21 195.83C1292.78 198.33 1288.2 200.92 1283.11 202.45C1276.84 204.27 1270.24 204.39 1263.85 204.5C1260.96 204.55 1257.98 204.6 1255.1 204.81C1253.5 204.828 1251.88 204.83 1250.11 204.838C1249.8 204.839 1249.53 205.027 1249.42 205.314C1249.23 205.797 1249.59 206.31 1250.1 206.308C1251.73 206.303 1253.4 206.288 1255.16 206.28C1258.01 206.07 1260.95 206.02 1263.8 205.97H1263.91C1270.38 205.85 1277.07 205.74 1283.54 203.86C1288.81 202.27 1293.47 199.63 1297.97 197.08C1302.77 194.36 1307.73 191.56 1313.35 190.09C1316.64 189.25 1319.91 188.84 1323.34 188.84C1333.02 188.84 1342.1 192.15 1351.71 195.66L1351.76 195.68C1357.56 197.79 1363.55 199.98 1369.73 201.37C1374.63 202.49 1379.95 203.52 1385.7 203.52C1386.21 203.52 1386.72 203.51 1387.23 203.49C1389.31 203.44 1391.44 203.41 1393.56 203.41H1394.84C1397.24 203.41 1399.72 203.47 1402.41 203.55C1410.4 203.78 1418.39 204.33 1426.1 204.86H1426.13C1430.55 205.163 1435.03 205.474 1439.55 205.727C1439.97 205.751 1440.32 205.416 1440.32 204.995C1440.32 204.605 1440.02 204.283 1439.63 204.262C1435.12 204.009 1430.64 203.704 1426.24 203.4H1426.2C1418.46 202.86 1410.47 202.31 1402.45 202.07C1399.74 201.99 1397.26 201.94 1394.84 201.93H1393.56C1391.42 201.93 1389.28 201.96 1387.18 202.01C1386.69 202.02 1386.2 202.04 1385.7 202.04C1380.1 202.04 1374.88 201.02 1370.06 199.93C1363.96 198.55 1357.99 196.37 1352.22 194.26C1342.48 190.71 1333.28 187.35 1323.35 187.35C1319.79 187.35 1316.4 187.77 1312.98 188.65" fill="white"/>
</mask>
<g mask="url(#mask56_521_43942)">
<mask id="mask57_521_43942" style="mask-type:luminance" maskUnits="userSpaceOnUse" x="1250" y="157" width="190" height="80">
<path d="M1417.22 183.034L1282.11 157.603C1267.46 154.845 1253.35 164.486 1250.59 179.138C1247.83 193.79 1257.47 207.903 1272.12 210.661L1407.23 236.092C1421.88 238.85 1436 229.208 1438.75 214.556C1441.51 199.905 1431.87 185.792 1417.22 183.034Z" fill="white"/>
</mask>
<g mask="url(#mask57_521_43942)">
<rect x="1245.59" y="152.4" width="198.24" height="88.8" rx="30" fill="url(#paint30_linear_521_43942)"/>
</g>
</g>
<mask id="mask58_521_43942" style="mask-type:luminance" maskUnits="userSpaceOnUse" x="1251" y="182" width="190" height="20">
<path d="M1299.43 189.14C1287.35 196.28 1276.75 199.61 1266.06 199.61C1265.61 199.61 1265.14 199.61 1264.72 199.6H1264.63C1261.3 199.78 1258.19 199.93 1255.13 200.04C1254.12 200.075 1253.07 200.102 1251.98 200.135C1251.69 200.144 1251.44 200.32 1251.32 200.585C1251.12 201.078 1251.49 201.617 1252.02 201.603C1253.04 201.577 1254.1 201.546 1255.18 201.51C1258.27 201.4 1261.37 201.25 1264.66 201.07C1265.13 201.09 1265.61 201.09 1266.08 201.09C1277.03 201.09 1287.87 197.7 1300.18 190.41C1307.21 186.3 1314.98 184.23 1323.31 184.23C1328.06 184.23 1332.96 184.92 1337.89 186.28C1342.95 187.62 1347.92 189.24 1352.74 190.81C1363.54 194.32 1373.72 197.64 1384.94 198.2C1385.39 198.2 1385.84 198.2 1386.29 198.2C1388.35 198.2 1390.43 198.17 1392.27 198.14H1392.52C1396.23 197.99 1400.07 197.91 1403.95 197.91C1416.22 197.91 1428.09 198.664 1439.51 199.706C1439.94 199.745 1440.31 199.406 1440.31 198.972C1440.31 198.591 1440.02 198.273 1439.64 198.238C1428.19 197.19 1416.28 196.43 1403.96 196.43C1400.07 196.43 1396.21 196.51 1392.49 196.66H1392.25C1390.42 196.7 1388.34 196.73 1386.3 196.73H1384.99C1374 196.19 1363.9 192.9 1353.2 189.4C1348.36 187.83 1343.36 186.2 1338.29 184.86C1333.23 183.46 1328.19 182.75 1323.31 182.75C1314.72 182.75 1306.68 184.9 1299.43 189.14Z" fill="white"/>
</mask>
<g mask="url(#mask58_521_43942)">
<mask id="mask59_521_43942" style="mask-type:luminance" maskUnits="userSpaceOnUse" x="1251" y="152" width="189" height="80">
<path d="M1417.4 178.432L1283.7 153.265C1269.15 150.527 1255.14 160.099 1252.41 174.645C1249.67 189.191 1259.24 203.202 1273.79 205.94L1407.49 231.107C1422.03 233.845 1436.04 224.273 1438.78 209.727C1441.52 195.181 1431.95 181.17 1417.4 178.432Z" fill="white"/>
</mask>
<g mask="url(#mask59_521_43942)">
<rect x="1246" y="149" width="196.56" height="88.08" rx="30" fill="url(#paint31_linear_521_43942)"/>
</g>
</g>
<mask id="mask60_521_43942" style="mask-type:luminance" maskUnits="userSpaceOnUse" x="1253" y="178" width="188" height="19">
<path d="M1309.37 180.46C1304.81 182.02 1300.4 184.09 1296.13 186.09C1287.67 190.06 1278.93 194.16 1269.09 194.16C1268.77 194.16 1268.45 194.16 1268.09 194.14H1268.06C1266.51 194.25 1264.98 194.35 1263.44 194.45L1258.2 194.8C1256.88 194.89 1255.54 194.973 1254.2 195.069C1253.94 195.088 1253.71 195.242 1253.6 195.477C1253.35 195.987 1253.75 196.572 1254.32 196.534C1255.65 196.443 1256.98 196.353 1258.29 196.27C1259.67 196.18 1261.05 196.09 1262.43 195.99L1262.66 195.97C1264.48 195.85 1266.3 195.73 1268.1 195.6C1268.43 195.6 1268.77 195.62 1269.1 195.62C1279.26 195.62 1288.15 191.45 1296.77 187.41C1300.99 185.43 1305.36 183.38 1309.83 181.84C1313.62 180.64 1317.62 180.06 1322.09 180.06C1326.56 180.06 1330.55 180.65 1333.24 181.1C1340.1 182.31 1346.77 184.18 1353.23 185.99L1353.32 186.01C1364.28 189.08 1374.63 191.98 1385.97 191.98C1386.24 191.98 1386.52 191.98 1386.82 191.98L1388.75 191.88C1390.57 191.79 1392.39 191.69 1394.21 191.6C1398.11 191.42 1403.27 191.21 1408.6 191.21C1414.2 191.21 1419.24 191.43 1424.03 191.9C1429.3 192.421 1434.46 193.219 1439.47 194.015C1439.92 194.086 1440.32 193.743 1440.32 193.293C1440.32 192.934 1440.06 192.628 1439.71 192.571C1434.68 191.764 1429.49 190.969 1424.19 190.45C1419.36 189.97 1414.26 189.75 1408.61 189.75C1403.27 189.75 1398.08 189.96 1394.16 190.15C1392.37 190.23 1390.58 190.33 1388.79 190.42L1386.78 190.52C1386.51 190.52 1386.24 190.52 1385.97 190.52C1374.84 190.52 1364.57 187.64 1353.7 184.6L1353.6 184.57C1347.12 182.76 1340.42 180.87 1333.49 179.66C1330.75 179.2 1326.59 178.59 1322.1 178.59C1317.61 178.59 1313.32 179.2 1309.37 180.45" fill="white"/>
</mask>
<g mask="url(#mask60_521_43942)">
<mask id="mask61_521_43942" style="mask-type:luminance" maskUnits="userSpaceOnUse" x="1254" y="148" width="186" height="79">
<path d="M1417.86 174.366L1285.2 149.396C1270.99 146.721 1257.3 156.072 1254.63 170.281C1251.95 184.491 1261.3 198.178 1275.51 200.852L1408.17 225.823C1422.38 228.497 1436.07 219.147 1438.74 204.937C1441.42 190.728 1432.07 177.041 1417.86 174.366Z" fill="white"/>
</mask>
<g mask="url(#mask61_521_43942)">
<rect x="1249.67" y="144.48" width="194.16" height="86.4" rx="30" fill="url(#paint32_linear_521_43942)"/>
</g>
</g>
<mask id="mask62_521_43942" style="mask-type:luminance" maskUnits="userSpaceOnUse" x="1255" y="174" width="186" height="18">
<path d="M1285.99 185.25C1278.61 188.12 1270.81 188.91 1264.82 189.27C1262.27 189.518 1259.53 189.766 1256.78 189.997C1256.54 190.018 1256.32 190.159 1256.2 190.377C1256.1 190.569 1256 190.763 1255.9 190.956C1255.76 191.221 1255.97 191.536 1256.27 191.51C1259.35 191.26 1262.38 190.97 1264.94 190.74C1271.02 190.37 1278.97 189.56 1286.55 186.61C1299.09 181.42 1312.06 176.05 1326.19 176.05C1329.42 176.05 1332.65 176.34 1335.79 176.9C1341.35 177.95 1346.83 179.36 1352.13 180.71C1362.76 183.43 1372.81 186 1383.47 186C1385.41 186 1387.35 185.91 1389.24 185.74C1390.43 185.65 1391.62 185.55 1392.81 185.45H1392.9C1394.49 185.31 1396.08 185.18 1397.68 185.06C1403.03 184.64 1408.78 184.26 1414.56 184.26C1420.75 184.26 1426.27 184.7 1431.45 185.6C1434.13 186.077 1436.81 186.618 1439.45 187.173C1439.91 187.269 1440.34 186.921 1440.34 186.455C1440.34 186.108 1440.1 185.809 1439.76 185.737C1437.11 185.18 1434.42 184.635 1431.73 184.16C1426.47 183.24 1420.86 182.8 1414.57 182.8C1408.74 182.8 1402.96 183.18 1397.59 183.6C1396 183.72 1394.4 183.85 1392.8 183.98L1391.81 184.06C1390.92 184.13 1390.02 184.21 1389.12 184.27C1387.28 184.44 1385.39 184.53 1383.49 184.53C1373.02 184.53 1363.06 181.98 1352.51 179.28C1347.2 177.92 1341.7 176.51 1336.08 175.45C1332.84 174.87 1329.51 174.58 1326.19 174.58C1311.78 174.58 1298.68 180.01 1286.01 185.25" fill="white"/>
</mask>
<g mask="url(#mask62_521_43942)">
<mask id="mask63_521_43942" style="mask-type:luminance" maskUnits="userSpaceOnUse" x="1256" y="145" width="184" height="76">
<path d="M1418.4 170.459L1286.89 145.705C1273.09 143.107 1259.79 152.191 1257.19 165.996C1254.59 179.801 1263.68 193.099 1277.48 195.697L1408.99 220.451C1422.8 223.05 1436.1 213.965 1438.7 200.16C1441.29 186.355 1432.21 173.058 1418.4 170.459Z" fill="white"/>
</mask>
<g mask="url(#mask63_521_43942)">
<rect x="1252.31" y="140.88" width="191.28" height="84.48" rx="30" fill="url(#paint33_linear_521_43942)"/>
</g>
</g>
<mask id="mask64_521_43942" style="mask-type:luminance" maskUnits="userSpaceOnUse" x="1259" y="170" width="182" height="16">
<path d="M1291.89 178.15C1289.67 178.9 1286.91 179.82 1284.26 180.66C1279.69 182.14 1274.71 183.04 1268.59 183.5L1265.51 183.85C1263.94 184.03 1262.37 184.21 1260.8 184.39L1259.94 184.489C1259.71 184.515 1259.51 184.642 1259.39 184.837C1259.07 185.359 1259.49 186.013 1260.1 185.946L1260.96 185.85C1262.4 185.69 1263.84 185.53 1265.28 185.36L1265.67 185.32C1266.7 185.2 1267.72 185.09 1268.72 184.97C1274.94 184.51 1280.02 183.58 1284.71 182.07C1287.28 181.25 1289.84 180.4 1292.32 179.57L1292.37 179.55C1303.2 175.92 1314.41 172.17 1326.18 172.17C1327.65 172.17 1329.12 172.23 1330.54 172.34C1338.76 173.09 1346.82 174.64 1354.63 176.15C1360.8 177.34 1367.19 178.57 1373.72 179.42L1374.09 179.46C1376.68 179.74 1379.13 180 1381.59 180C1382.47 180 1383.29 179.96 1384.08 179.89C1387.4 179.71 1390.74 179.41 1392.97 179.21C1394.44 179.07 1395.91 178.94 1397.38 178.8C1404.35 178.13 1411.56 177.46 1418.66 177.46C1425.76 177.46 1431.46 178.1 1436.87 179.43C1437.7 179.627 1438.54 179.835 1439.38 180.053C1439.84 180.175 1440.3 179.825 1440.3 179.343C1440.3 179.011 1440.08 178.721 1439.76 178.637C1438.91 178.418 1438.07 178.207 1437.22 178.01C1431.7 176.66 1425.63 175.99 1418.67 175.99C1411.71 175.99 1404.25 176.68 1397.23 177.35H1397.08C1395.67 177.5 1394.25 177.63 1392.84 177.76C1390.41 177.98 1387.2 178.26 1383.98 178.44C1383.21 178.5 1382.43 178.54 1381.59 178.54C1379.2 178.54 1376.8 178.28 1374.26 178.01L1373.9 177.97C1367.39 177.12 1361.05 175.9 1354.91 174.71C1347.07 173.2 1338.97 171.64 1330.67 170.89C1329.2 170.77 1327.68 170.71 1326.17 170.71C1314.16 170.71 1302.83 174.5 1291.87 178.17" fill="white"/>
</mask>
<g mask="url(#mask64_521_43942)">
<mask id="mask65_521_43942" style="mask-type:luminance" maskUnits="userSpaceOnUse" x="1259" y="141" width="181" height="75">
<path d="M1419.15 166.708L1288.81 142.174C1275.58 139.684 1262.84 148.39 1260.35 161.62C1257.86 174.849 1266.56 187.593 1279.79 190.083L1410.14 214.617C1423.36 217.107 1436.11 208.401 1438.6 195.172C1441.09 181.942 1432.38 169.199 1419.15 166.708Z" fill="white"/>
</mask>
<g mask="url(#mask65_521_43942)">
<rect x="1255.67" y="137.52" width="187.68" height="81.84" rx="30" fill="url(#paint34_linear_521_43942)"/>
</g>
</g>
<mask id="mask66_521_43942" style="mask-type:luminance" maskUnits="userSpaceOnUse" x="1262" y="166" width="179" height="15">
<path d="M1308.04 168.98C1305.91 169.6 1303.8 170.21 1302.2 170.68C1290.77 174.03 1279.98 177.19 1268.29 178.25L1263.57 178.858C1263.37 178.885 1263.18 178.998 1263.06 179.17C1262.71 179.692 1263.14 180.391 1263.76 180.309L1268.45 179.7C1280.27 178.62 1291.13 175.44 1302.63 172.08L1302.9 172C1304.72 171.47 1306.59 170.92 1308.45 170.38C1314.42 168.7 1320.75 167.88 1327.77 167.88C1337.67 167.88 1347.56 169.52 1357.12 171.1C1364.02 172.25 1371.15 173.43 1378.29 174.01C1379.18 174.05 1380.1 174.06 1381.03 174.06C1383.17 174.06 1385.45 173.96 1388 173.77C1392.2 173.45 1396.43 172.95 1400.52 172.47H1400.56C1405.65 171.85 1410.92 171.23 1416.31 170.94C1417.37 170.88 1418.45 170.86 1419.53 170.86C1426.54 170.86 1433.1 172.05 1439.4 173.703C1439.86 173.826 1440.32 173.475 1440.32 172.993C1440.32 172.661 1440.1 172.37 1439.78 172.286C1433.37 170.61 1426.7 169.4 1419.53 169.4C1418.43 169.4 1417.32 169.43 1416.22 169.49C1410.81 169.78 1405.51 170.41 1400.37 171.02H1400.33C1396.26 171.51 1392.06 172.01 1387.89 172.32C1385.36 172.51 1383.11 172.61 1381.01 172.61C1380.12 172.61 1379.24 172.59 1378.39 172.56C1371.36 171.99 1364.25 170.81 1357.37 169.67C1347.75 168.07 1337.79 166.42 1327.78 166.42C1320.62 166.42 1314.17 167.26 1308.06 168.98" fill="white"/>
</mask>
<g mask="url(#mask66_521_43942)">
<mask id="mask67_521_43942" style="mask-type:luminance" maskUnits="userSpaceOnUse" x="1263" y="137" width="176" height="72">
<path d="M1419.86 162.57L1291.24 138.36C1278.54 135.969 1266.3 144.33 1263.91 157.036C1261.51 169.742 1269.88 181.981 1282.58 184.372L1411.2 208.582C1423.91 210.974 1436.15 202.613 1438.54 189.907C1440.93 177.201 1432.57 164.962 1419.86 162.57Z" fill="white"/>
</mask>
<g mask="url(#mask67_521_43942)">
<rect x="1259.51" y="133.92" width="183.6" height="79.2" rx="30" fill="url(#paint35_linear_521_43942)"/>
</g>
</g>
<mask id="mask68_521_43942" style="mask-type:luminance" maskUnits="userSpaceOnUse" x="1266" y="162" width="175" height="13">
<path d="M1310.41 164.58L1310.27 164.62C1295.81 168.283 1282.12 171.729 1267.64 173.315C1267.44 173.338 1267.25 173.443 1267.12 173.606C1266.86 173.94 1266.6 174.277 1266.35 174.614C1266.25 174.747 1266.35 174.936 1266.52 174.92C1281.58 173.4 1295.7 169.82 1310.64 166.05L1310.78 166.01C1317.36 164.38 1324.36 163.59 1332.2 163.59C1341.71 163.59 1351.2 164.75 1360.38 165.88L1360.57 165.91C1367.27 166.73 1374.2 167.58 1381.13 167.98H1382.93C1384.71 167.98 1387.06 167.96 1389.4 167.87C1392.93 167.64 1396.49 167.32 1399.95 167L1400.17 166.98C1406.58 166.4 1413.2 165.8 1419.78 165.8C1420.17 165.8 1420.56 165.8 1420.96 165.8C1427.45 165.848 1433.55 166.798 1439.4 168.189C1439.86 168.299 1440.31 167.948 1440.31 167.469C1440.31 167.129 1440.08 166.833 1439.75 166.755C1433.8 165.338 1427.6 164.369 1420.97 164.33C1420.59 164.33 1420.21 164.33 1419.83 164.33C1413.11 164.33 1406.4 164.94 1399.92 165.53H1399.83C1396.39 165.85 1392.83 166.17 1389.32 166.4C1387.02 166.5 1384.71 166.51 1382.77 166.51H1381.17C1374.27 166.11 1367.3 165.25 1360.56 164.42C1351.34 163.29 1341.79 162.12 1332.19 162.12C1324.24 162.12 1317.11 162.92 1310.41 164.58Z" fill="white"/>
</mask>
<g mask="url(#mask68_521_43942)">
<mask id="mask69_521_43942" style="mask-type:luminance" maskUnits="userSpaceOnUse" x="1267" y="134" width="172" height="69">
<path d="M1420.6 158.406L1294.09 134.592C1281.92 132.301 1270.19 140.311 1267.9 152.482C1265.61 164.653 1273.62 176.377 1285.79 178.668L1412.31 202.482C1424.48 204.773 1436.2 196.764 1438.49 184.593C1440.79 172.421 1432.78 160.697 1420.6 158.406Z" fill="white"/>
</mask>
<g mask="url(#mask69_521_43942)">
<rect x="1263.59" y="130.32" width="179.28" height="76.32" rx="30" fill="url(#paint36_linear_521_43942)"/>
</g>
</g>
<mask id="mask70_521_43942" style="mask-type:luminance" maskUnits="userSpaceOnUse" x="1270" y="157" width="171" height="13">
<path d="M1312.98 159.98C1299.16 163.07 1286.1 165.991 1272.18 167.775C1272 167.798 1271.83 167.885 1271.72 168.021C1271.45 168.327 1271.19 168.633 1270.92 168.942C1270.76 169.127 1270.92 169.412 1271.16 169.38C1285.61 167.621 1299.67 164.473 1313.26 161.434C1313.27 161.432 1313.29 161.43 1313.3 161.43C1313.31 161.43 1313.33 161.429 1313.34 161.426C1321.87 159.499 1330.74 158.57 1340.44 158.57C1350.97 158.57 1361.05 159.62 1372.96 161.21L1374.51 161.37C1377.43 161.66 1380.44 161.96 1383.44 162.14C1385.94 162.26 1388.61 162.32 1391.59 162.32C1395.9 162.32 1400.21 162.19 1404.39 162.07H1404.43C1408.57 161.95 1412.85 161.83 1417.1 161.83C1426.12 161.83 1433.07 162.388 1439.44 163.633C1439.9 163.722 1440.32 163.377 1440.32 162.915C1440.32 162.569 1440.08 162.27 1439.74 162.204C1433.27 160.936 1426.23 160.37 1417.11 160.37C1412.83 160.37 1408.53 160.48 1404.38 160.6C1400.21 160.72 1395.91 160.84 1391.58 160.84C1388.64 160.84 1386 160.79 1383.53 160.67C1380.52 160.49 1377.48 160.18 1374.56 159.89L1373.15 159.75C1364.31 158.57 1353.86 157.35 1343.35 157.15C1342.35 157.13 1341.35 157.12 1340.38 157.12C1330.56 157.12 1321.6 158.06 1313 159.99" fill="white"/>
</mask>
<g mask="url(#mask70_521_43942)">
<mask id="mask71_521_43942" style="mask-type:luminance" maskUnits="userSpaceOnUse" x="1271" y="129" width="168" height="68">
<path d="M1421.14 153.504L1297.68 130.265C1285.86 128.04 1274.47 135.819 1272.25 147.641C1270.02 159.462 1277.8 170.848 1289.62 173.074L1413.09 196.313C1424.91 198.538 1436.29 190.759 1438.52 178.937C1440.74 167.116 1432.96 155.73 1421.14 153.504Z" fill="white"/>
</mask>
<g mask="url(#mask71_521_43942)">
<rect x="1268.15" y="126" width="174.48" height="74.4" rx="30" fill="url(#paint37_linear_521_43942)"/>
</g>
</g>
<mask id="mask72_521_43942" style="mask-type:luminance" maskUnits="userSpaceOnUse" x="1275" y="151" width="166" height="14">
<path d="M1333.12 152.62C1321.6 153.7 1309.02 155.91 1293.53 159.6C1287.93 161.076 1282.33 161.854 1277.1 162.47C1276.93 162.489 1276.77 162.565 1276.66 162.684C1276.4 162.943 1276.14 163.202 1275.89 163.463C1275.66 163.698 1275.85 164.087 1276.18 164.05C1281.87 163.4 1287.96 162.58 1293.9 161.02C1309.87 157.22 1328.92 153.33 1349.21 153.33C1357.31 153.33 1365.17 153.97 1372.6 155.24C1375.8 155.66 1378.87 156.14 1381.5 156.56C1384.92 157.03 1387.95 157.32 1390.51 157.42C1395.63 157.63 1400.92 157.68 1405.59 157.73C1416.76 157.857 1428.29 157.974 1439.45 159.842C1439.9 159.917 1440.31 159.572 1440.31 159.117C1440.31 158.76 1440.05 158.455 1439.7 158.396C1428.4 156.506 1416.82 156.388 1405.58 156.27C1400.66 156.22 1395.58 156.16 1390.56 155.96C1388.03 155.86 1385.05 155.58 1381.71 155.11C1379.06 154.69 1375.99 154.21 1372.81 153.79C1365.11 152.48 1357.37 151.84 1349.14 151.84C1344 151.84 1338.61 152.1 1333.12 152.61" fill="white"/>
</mask>
<g mask="url(#mask72_521_43942)">
<mask id="mask73_521_43942" style="mask-type:luminance" maskUnits="userSpaceOnUse" x="1276" y="125" width="163" height="66">
<path d="M1421.6 148.324L1301.82 125.779C1290.25 123.6 1279.1 131.217 1276.92 142.791C1274.74 154.365 1282.36 165.514 1293.93 167.693L1413.71 190.238C1425.28 192.417 1436.43 184.8 1438.61 173.226C1440.79 161.652 1433.17 150.503 1421.6 148.324Z" fill="white"/>
</mask>
<g mask="url(#mask73_521_43942)">
<rect x="1272.95" y="121.68" width="169.68" height="72.72" rx="30" fill="url(#paint38_linear_521_43942)"/>
</g>
</g>
<mask id="mask74_521_43942" style="mask-type:luminance" maskUnits="userSpaceOnUse" x="1280" y="145" width="161" height="15">
<path d="M1305.79 152.52C1300.03 153.84 1293.51 155.33 1287.07 156.54C1285.03 157.009 1283.49 157.319 1282.04 157.568C1282.03 157.569 1282.03 157.57 1282.02 157.57C1281.99 157.57 1281.97 157.58 1281.95 157.597C1281.64 157.88 1281.33 158.165 1281.02 158.45C1280.73 158.721 1280.96 159.21 1281.36 159.15C1283.08 158.89 1284.87 158.54 1287.36 157.97C1293.68 156.78 1299.96 155.35 1306.02 153.97L1306.11 153.95C1320.72 150.61 1334.51 147.46 1348.78 147.46C1353.31 147.46 1357.59 147.77 1361.88 148.42C1364.45 148.68 1367.09 149.01 1369.73 149.39C1372.17 149.75 1374.71 150.16 1377.52 150.67C1379.02 150.94 1380.54 151.23 1382.02 151.5L1382.36 151.56C1383.84 151.83 1385.36 152.12 1386.88 152.39C1387.44 152.47 1388.01 152.57 1388.57 152.66L1388.66 152.68C1390.23 152.94 1391.86 153.2 1393.63 153.29C1406.44 153.683 1422.82 154.454 1439.44 156.772C1439.88 156.834 1440.28 156.491 1440.28 156.046C1440.28 155.681 1440.01 155.372 1439.65 155.321C1422.95 152.99 1406.49 152.215 1393.69 151.82C1392 151.74 1390.35 151.46 1388.89 151.23L1388.6 151.18C1388.1 151.1 1387.59 151.01 1387.11 150.95C1385.5 150.66 1383.87 150.36 1382.29 150.06C1380.81 149.78 1379.28 149.5 1377.77 149.22C1374.97 148.72 1372.41 148.29 1369.93 147.93C1367.24 147.53 1364.59 147.21 1362.05 146.95C1357.71 146.29 1353.36 145.98 1348.75 145.98C1334.33 145.98 1320.44 149.15 1305.75 152.5" fill="white"/>
</mask>
<g mask="url(#mask74_521_43942)">
<mask id="mask75_521_43942" style="mask-type:luminance" maskUnits="userSpaceOnUse" x="1281" y="120" width="159" height="65">
<path d="M1421.72 142.485L1306.56 120.809C1294.95 118.624 1283.77 126.264 1281.58 137.873C1279.39 149.483 1287.03 160.666 1298.64 162.851L1413.8 184.527C1425.41 186.712 1436.59 179.072 1438.78 167.463C1440.96 155.853 1433.32 144.671 1421.72 142.485Z" fill="white"/>
</mask>
<g mask="url(#mask75_521_43942)">
<rect x="1277.51" y="116.64" width="165.36" height="72" rx="30" fill="url(#paint39_linear_521_43942)"/>
</g>
</g>
<mask id="mask76_521_43942" style="mask-type:luminance" maskUnits="userSpaceOnUse" x="1286" y="140" width="155" height="15">
<path d="M1307.15 147.76L1306.97 147.81C1301.46 149.31 1295.78 150.85 1290.05 152.14C1289.39 152.25 1288.82 152.35 1288.29 152.43C1288.22 152.443 1288.15 152.474 1288.09 152.519L1288.09 152.52C1287.77 152.76 1287.46 153 1287.15 153.25C1286.79 153.535 1287.03 154.116 1287.49 154.05C1288.47 153.91 1289.42 153.75 1290.35 153.6C1296.21 152.282 1301.96 150.724 1307.52 149.215C1307.53 149.212 1307.55 149.21 1307.56 149.21C1307.57 149.21 1307.59 149.208 1307.6 149.205C1321.36 145.457 1334.36 141.92 1348.43 141.92C1348.92 141.92 1349.42 141.92 1349.92 141.93C1353.23 141.94 1356.64 142.1 1360.02 142.41C1366.11 142.96 1372.48 143.98 1379.49 145.54C1382.3 146.15 1385.11 146.81 1387.84 147.45L1388.91 147.7C1394.5 149.05 1399.99 149.9 1405.2 150.23C1416.37 150.895 1427.77 152.062 1440.01 153.799C1440.16 153.821 1440.3 153.704 1440.3 153.551C1440.3 153.475 1440.27 153.402 1440.21 153.355C1439.89 153.106 1439.58 152.856 1439.27 152.607C1438.89 152.301 1438.43 152.104 1437.95 152.038C1426.55 150.473 1415.84 149.397 1405.3 148.77C1400.18 148.45 1394.78 147.62 1389.27 146.28L1388.17 146.02C1385.44 145.38 1382.62 144.72 1379.83 144.11C1372.76 142.54 1366.32 141.51 1360.17 140.95C1356.72 140.64 1353.28 140.48 1349.94 140.47C1349.44 140.47 1348.94 140.45 1348.44 140.45C1334.15 140.45 1321.04 144.01 1307.16 147.78" fill="white"/>
</mask>
<g mask="url(#mask76_521_43942)">
<mask id="mask77_521_43942" style="mask-type:luminance" maskUnits="userSpaceOnUse" x="1286" y="115" width="154" height="64">
<path d="M1422.09 136.994L1311.84 116.241C1300.39 114.086 1289.36 121.62 1287.21 133.07C1285.05 144.519 1292.59 155.548 1304.03 157.703L1414.29 178.456C1425.74 180.611 1436.77 173.077 1438.92 161.627C1441.08 150.178 1433.54 139.149 1422.09 136.994Z" fill="white"/>
</mask>
<g mask="url(#mask77_521_43942)">
<rect x="1283.27" y="112.32" width="159.6" height="70.08" rx="30" fill="url(#paint40_linear_521_43942)"/>
</g>
</g>
<mask id="mask78_521_43942" style="mask-type:luminance" maskUnits="userSpaceOnUse" x="1295" y="135" width="142" height="16">
<path d="M1347.63 135.345C1347.63 135.344 1347.63 135.34 1347.62 135.34H1346.89C1340.34 135.34 1334.48 136.01 1328.47 137.42C1323.11 138.74 1317.69 140.25 1312.9 141.57C1308.09 142.9 1303.12 144.28 1298.22 145.49C1298.17 145.503 1298.13 145.523 1298.09 145.55C1297.58 145.86 1297.07 146.19 1296.56 146.52L1295.47 147.276C1295.38 147.336 1295.35 147.45 1295.4 147.546C1295.44 147.641 1295.54 147.692 1295.64 147.668C1300.91 146.4 1307.51 144.592 1313.3 142.99L1313.48 142.94C1318.46 141.56 1323.61 140.14 1328.82 138.86C1334.71 137.47 1340.45 136.82 1346.88 136.82H1347.83C1350.37 136.82 1353.03 136.92 1355.72 137.11C1363.03 137.64 1370.76 138.86 1379.33 140.83C1382.7 141.56 1386.29 142.4 1390.62 143.45C1394.16 144.45 1397.8 145.17 1402.78 145.86C1415.02 147.61 1426.57 149.11 1436.25 150.35C1436.28 150.357 1436.3 150.318 1436.27 150.3C1435.53 149.749 1434.77 149.205 1434.02 148.661C1433.93 148.601 1433.84 148.563 1433.74 148.55C1424.79 147.404 1414.3 146.021 1402.98 144.41C1398.07 143.73 1394.49 143.01 1390.99 142.03C1386.62 140.96 1383.02 140.13 1379.65 139.39C1370.99 137.4 1363.19 136.18 1355.81 135.65C1353.09 135.45 1350.44 135.35 1347.94 135.35H1347.63C1347.62 135.35 1347.62 135.346 1347.63 135.345Z" fill="white"/>
</mask>
<g mask="url(#mask78_521_43942)">
<mask id="mask79_521_43942" style="mask-type:luminance" maskUnits="userSpaceOnUse" x="1296" y="113" width="140" height="60">
<path d="M1419.05 132.072L1320.23 113.473C1309.14 111.385 1298.46 118.684 1296.37 129.775C1294.28 140.866 1301.58 151.55 1312.67 153.637L1411.49 172.237C1422.58 174.325 1433.26 167.026 1435.35 155.935C1437.44 144.844 1430.14 134.16 1419.05 132.072Z" fill="white"/>
</mask>
<g mask="url(#mask79_521_43942)">
<rect x="1292.39" y="109.68" width="146.88" height="66.48" rx="30" fill="url(#paint41_linear_521_43942)"/>
</g>
</g>
<mask id="mask80_521_43942" style="mask-type:luminance" maskUnits="userSpaceOnUse" x="1312" y="131" width="119" height="16">
<path d="M1348.67 131.035C1348.67 131.034 1348.67 131.03 1348.67 131.03C1345.01 131.03 1341.45 131.2 1338.05 131.53C1332 132.199 1325.75 133.397 1318.4 135.304C1318.39 135.308 1318.37 135.314 1318.36 135.322C1318.35 135.327 1318.35 135.331 1318.34 135.335C1317.55 135.647 1316.29 136.273 1315.08 136.87C1314.29 137.267 1313.53 137.64 1312.99 137.885C1312.89 137.928 1312.85 138.035 1312.88 138.133C1312.91 138.232 1313.02 138.288 1313.12 138.26L1314.62 137.85C1323.91 135.28 1331.18 133.78 1338.2 133C1341.55 132.68 1345.07 132.51 1348.67 132.51H1348.97C1361.7 132.56 1375.4 134.65 1390.85 138.9C1394.45 139.79 1398.12 140.62 1402.06 141.45C1411.15 143.38 1420.69 145.05 1430.39 146.44C1430.52 146.467 1430.59 146.301 1430.48 146.231C1429.66 145.695 1428.84 145.172 1428.02 144.662C1427.94 144.614 1427.85 144.583 1427.76 144.569C1419.06 143.264 1410.52 141.741 1402.36 140.02C1398.41 139.19 1394.77 138.35 1391.22 137.48C1375.65 133.2 1361.83 131.09 1348.97 131.04H1348.67C1348.67 131.04 1348.67 131.036 1348.67 131.035Z" fill="white"/>
</mask>
<g mask="url(#mask80_521_43942)">
<mask id="mask81_521_43942" style="mask-type:luminance" maskUnits="userSpaceOnUse" x="1313" y="112" width="118" height="53">
<path d="M1415.58 128.118L1335.11 112.971C1325.04 111.075 1315.33 117.706 1313.44 127.782C1311.54 137.858 1318.17 147.564 1328.25 149.461L1408.71 164.607C1418.79 166.503 1428.49 159.873 1430.39 149.796C1432.29 139.72 1425.66 130.014 1415.58 128.118Z" fill="white"/>
</mask>
<g mask="url(#mask81_521_43942)">
<rect x="1309.91" y="109.44" width="124.08" height="58.8" rx="29.4" fill="url(#paint42_linear_521_43942)"/>
</g>
</g>
<mask id="mask82_521_43942" style="mask-type:luminance" maskUnits="userSpaceOnUse" x="1351" y="126" width="72" height="16">
<path d="M1355.19 126.996C1355.2 126.997 1355.2 127.001 1355.19 127.001C1354.87 127.031 1354.53 127.07 1354.2 127.1C1353.35 127.189 1352.54 127.269 1352.03 127.314C1351.93 127.324 1351.85 127.41 1351.85 127.514C1351.85 127.619 1351.93 127.706 1352.04 127.714L1354.35 127.88C1370.35 129.17 1386.74 133.6 1401.2 137.51L1402.47 137.86C1405.69 138.58 1409.03 139.26 1412.38 139.91C1415.57 140.52 1418.8 141.1 1422 141.62C1422.25 141.652 1422.36 141.321 1422.14 141.2C1421.22 140.694 1420.3 140.202 1419.37 139.72C1419.29 139.68 1419.21 139.653 1419.12 139.638C1416.95 139.265 1414.78 138.872 1412.66 138.46C1409.43 137.84 1406.12 137.16 1402.83 136.43L1401.62 136.1C1390.42 133.07 1377.72 129.63 1365.02 127.68C1363.33 127.42 1361.66 127.19 1360.01 126.99H1355.2C1355.19 126.99 1355.19 126.994 1355.19 126.996Z" fill="white"/>
</mask>
<g mask="url(#mask82_521_43942)">
<mask id="mask83_521_43942" style="mask-type:luminance" maskUnits="userSpaceOnUse" x="1351" y="116" width="73" height="37">
<path d="M1412.25 124.94L1367.92 116.595C1360.4 115.18 1353.15 120.128 1351.74 127.648C1350.32 135.168 1355.27 142.411 1362.79 143.827L1407.12 152.171C1414.64 153.587 1421.89 148.638 1423.3 141.118C1424.72 133.598 1419.77 126.355 1412.25 124.94Z" fill="white"/>
</mask>
<g mask="url(#mask83_521_43942)">
<rect x="1349.03" y="114" width="77.04" height="40.8" rx="20.4" fill="url(#paint43_linear_521_43942)"/>
</g>
</g>
<mask id="mask84_521_43942" style="mask-type:luminance" maskUnits="userSpaceOnUse" x="1389" y="129" width="15" height="5">
<path d="M1389.38 129.992C1389.38 129.997 1389.38 130.001 1389.39 130.002L1390.27 130.24C1394.22 131.32 1398.68 132.54 1403.05 133.63C1403.15 133.653 1403.25 133.592 1403.28 133.493L1403.34 133.286C1403.4 133.069 1403.28 132.842 1403.07 132.769C1401.71 132.299 1400.33 131.861 1398.94 131.44C1395.91 130.57 1392.85 129.81 1389.77 129.17C1389.67 129.153 1389.57 129.217 1389.55 129.317L1389.38 129.989C1389.38 129.99 1389.38 129.991 1389.38 129.992Z" fill="white"/>
</mask>
<g mask="url(#mask84_521_43942)">
<mask id="mask85_521_43942" style="mask-type:luminance" maskUnits="userSpaceOnUse" x="1389" y="127" width="15" height="9">
<path d="M1400.81 128.635L1393.34 127.229C1391.42 126.868 1389.58 128.129 1389.22 130.045C1388.85 131.961 1390.12 133.806 1392.03 134.167L1399.5 135.573C1401.42 135.933 1403.26 134.673 1403.62 132.757C1403.98 130.841 1402.72 128.995 1400.81 128.635Z" fill="white"/>
</mask>
<g mask="url(#mask85_521_43942)">
<rect x="1388.39" y="126.48" width="16.08" height="9.84" rx="4.92" fill="url(#paint44_linear_521_43942)"/>
</g>
</g>
</g>
</g>
<defs>
<linearGradient id="paint0_linear_521_43942" x1="-5.97004e-06" y1="343" x2="1439.45" y2="-127.209" gradientUnits="userSpaceOnUse">
<stop stop-color="#072B55"/>
<stop offset="1" stop-color="#0085F0"/>
</linearGradient>
<linearGradient id="paint1_linear_521_43942" x1="1049.12" y1="357.446" x2="1518.91" y2="308.871" gradientUnits="userSpaceOnUse">
<stop stop-color="#072B55"/>
<stop offset="1" stop-color="#0085F0"/>
</linearGradient>
<linearGradient id="paint2_linear_521_43942" x1="1287.03" y1="345.757" x2="1365.45" y2="330.504" gradientUnits="userSpaceOnUse">
<stop stop-color="#072B55"/>
<stop offset="1" stop-color="#0085F0"/>
</linearGradient>
<linearGradient id="paint3_linear_521_43942" x1="1262.51" y1="380.932" x2="1467.19" y2="342.214" gradientUnits="userSpaceOnUse">
<stop stop-color="#072B55"/>
<stop offset="1" stop-color="#0085F0"/>
</linearGradient>
<linearGradient id="paint4_linear_521_43942" x1="1258.82" y1="379.721" x2="1468.31" y2="341.033" gradientUnits="userSpaceOnUse">
<stop stop-color="#072B55"/>
<stop offset="1" stop-color="#0085F0"/>
</linearGradient>
<linearGradient id="paint5_linear_521_43942" x1="1255.38" y1="376.561" x2="1469.15" y2="337.292" gradientUnits="userSpaceOnUse">
<stop stop-color="#072B55"/>
<stop offset="1" stop-color="#0085F0"/>
</linearGradient>
<linearGradient id="paint6_linear_521_43942" x1="1252.42" y1="374.151" x2="1470.45" y2="335.063" gradientUnits="userSpaceOnUse">
<stop stop-color="#072B55"/>
<stop offset="1" stop-color="#0085F0"/>
</linearGradient>
<linearGradient id="paint7_linear_521_43942" x1="1249.71" y1="371.896" x2="1471.68" y2="332.944" gradientUnits="userSpaceOnUse">
<stop stop-color="#072B55"/>
<stop offset="1" stop-color="#0085F0"/>
</linearGradient>
<linearGradient id="paint8_linear_521_43942" x1="1247.01" y1="369.555" x2="1472.59" y2="330.703" gradientUnits="userSpaceOnUse">
<stop stop-color="#072B55"/>
<stop offset="1" stop-color="#0085F0"/>
</linearGradient>
<linearGradient id="paint9_linear_521_43942" x1="1244.79" y1="366.31" x2="1473.28" y2="327.225" gradientUnits="userSpaceOnUse">
<stop stop-color="#072B55"/>
<stop offset="1" stop-color="#0085F0"/>
</linearGradient>
<linearGradient id="paint10_linear_521_43942" x1="1242.83" y1="362.485" x2="1473.55" y2="322.952" gradientUnits="userSpaceOnUse">
<stop stop-color="#072B55"/>
<stop offset="1" stop-color="#0085F0"/>
</linearGradient>
<linearGradient id="paint11_linear_521_43942" x1="1241.11" y1="359.155" x2="1474.16" y2="319.474" gradientUnits="userSpaceOnUse">
<stop stop-color="#072B55"/>
<stop offset="1" stop-color="#0085F0"/>
</linearGradient>
<linearGradient id="paint12_linear_521_43942" x1="1239.39" y1="354.92" x2="1474.08" y2="314.778" gradientUnits="userSpaceOnUse">
<stop stop-color="#072B55"/>
<stop offset="1" stop-color="#0085F0"/>
</linearGradient>
<linearGradient id="paint13_linear_521_43942" x1="1237.92" y1="350.77" x2="1474.27" y2="310.268" gradientUnits="userSpaceOnUse">
<stop stop-color="#072B55"/>
<stop offset="1" stop-color="#0085F0"/>
</linearGradient>
<linearGradient id="paint14_linear_521_43942" x1="1236.7" y1="346.45" x2="1474.36" y2="305.478" gradientUnits="userSpaceOnUse">
<stop stop-color="#072B55"/>
<stop offset="1" stop-color="#0085F0"/>
</linearGradient>
<linearGradient id="paint15_linear_521_43942" x1="1235.96" y1="341.72" x2="1474.09" y2="300.354" gradientUnits="userSpaceOnUse">
<stop stop-color="#072B55"/>
<stop offset="1" stop-color="#0085F0"/>
</linearGradient>
<linearGradient id="paint16_linear_521_43942" x1="1235.23" y1="337.145" x2="1474.03" y2="295.181" gradientUnits="userSpaceOnUse">
<stop stop-color="#072B55"/>
<stop offset="1" stop-color="#0085F0"/>
</linearGradient>
<linearGradient id="paint17_linear_521_43942" x1="1234.74" y1="332.16" x2="1473.62" y2="289.567" gradientUnits="userSpaceOnUse">
<stop stop-color="#072B55"/>
<stop offset="1" stop-color="#0085F0"/>
</linearGradient>
<linearGradient id="paint18_linear_521_43942" x1="1234.75" y1="327.33" x2="1472.86" y2="284.276" gradientUnits="userSpaceOnUse">
<stop stop-color="#072B55"/>
<stop offset="1" stop-color="#0085F0"/>
</linearGradient>
<linearGradient id="paint19_linear_521_43942" x1="1235" y1="322.091" x2="1472.24" y2="278.332" gradientUnits="userSpaceOnUse">
<stop stop-color="#072B55"/>
<stop offset="1" stop-color="#0085F0"/>
</linearGradient>
<linearGradient id="paint20_linear_521_43942" x1="1235.26" y1="316.936" x2="1471.66" y2="272.562" gradientUnits="userSpaceOnUse">
<stop stop-color="#072B55"/>
<stop offset="1" stop-color="#0085F0"/>
</linearGradient>
<linearGradient id="paint21_linear_521_43942" x1="1235.26" y1="312.206" x2="1471.31" y2="267.696" gradientUnits="userSpaceOnUse">
<stop stop-color="#072B55"/>
<stop offset="1" stop-color="#0085F0"/>
</linearGradient>
<linearGradient id="paint22_linear_521_43942" x1="1235.51" y1="307.476" x2="1471.2" y2="262.828" gradientUnits="userSpaceOnUse">
<stop stop-color="#072B55"/>
<stop offset="1" stop-color="#0085F0"/>
</linearGradient>
<linearGradient id="paint23_linear_521_43942" x1="1235.51" y1="302.845" x2="1471.3" y2="258.437" gradientUnits="userSpaceOnUse">
<stop stop-color="#072B55"/>
<stop offset="1" stop-color="#0085F0"/>
</linearGradient>
<linearGradient id="paint24_linear_521_43942" x1="1235.5" y1="298.88" x2="1472.12" y2="255.091" gradientUnits="userSpaceOnUse">
<stop stop-color="#072B55"/>
<stop offset="1" stop-color="#0085F0"/>
</linearGradient>
<linearGradient id="paint25_linear_521_43942" x1="1235.98" y1="294.915" x2="1472.65" y2="252.019" gradientUnits="userSpaceOnUse">
<stop stop-color="#072B55"/>
<stop offset="1" stop-color="#0085F0"/>
</linearGradient>
<linearGradient id="paint26_linear_521_43942" x1="1236.47" y1="291.655" x2="1473.03" y2="249.298" gradientUnits="userSpaceOnUse">
<stop stop-color="#072B55"/>
<stop offset="1" stop-color="#0085F0"/>
</linearGradient>
<linearGradient id="paint27_linear_521_43942" x1="1237.2" y1="287.28" x2="1473.44" y2="245.652" gradientUnits="userSpaceOnUse">
<stop stop-color="#072B55"/>
<stop offset="1" stop-color="#0085F0"/>
</linearGradient>
<linearGradient id="paint28_linear_521_43942" x1="1238.17" y1="282.24" x2="1473.62" y2="240.9" gradientUnits="userSpaceOnUse">
<stop stop-color="#072B55"/>
<stop offset="1" stop-color="#0085F0"/>
</linearGradient>
<linearGradient id="paint29_linear_521_43942" x1="1239.4" y1="277.61" x2="1473.6" y2="236.954" gradientUnits="userSpaceOnUse">
<stop stop-color="#072B55"/>
<stop offset="1" stop-color="#0085F0"/>
</linearGradient>
<linearGradient id="paint30_linear_521_43942" x1="1241.12" y1="272.64" x2="1473.39" y2="232.441" gradientUnits="userSpaceOnUse">
<stop stop-color="#072B55"/>
<stop offset="1" stop-color="#0085F0"/>
</linearGradient>
<linearGradient id="paint31_linear_521_43942" x1="1241.57" y1="268.265" x2="1471.87" y2="228.42" gradientUnits="userSpaceOnUse">
<stop stop-color="#072B55"/>
<stop offset="1" stop-color="#0085F0"/>
</linearGradient>
<linearGradient id="paint32_linear_521_43942" x1="1245.29" y1="261.47" x2="1472.69" y2="221.853" gradientUnits="userSpaceOnUse">
<stop stop-color="#072B55"/>
<stop offset="1" stop-color="#0085F0"/>
</linearGradient>
<linearGradient id="paint33_linear_521_43942" x1="1247.99" y1="255.271" x2="1471.93" y2="215.964" gradientUnits="userSpaceOnUse">
<stop stop-color="#072B55"/>
<stop offset="1" stop-color="#0085F0"/>
</linearGradient>
<linearGradient id="paint34_linear_521_43942" x1="1251.44" y1="248.336" x2="1470.98" y2="209.304" gradientUnits="userSpaceOnUse">
<stop stop-color="#072B55"/>
<stop offset="1" stop-color="#0085F0"/>
</linearGradient>
<linearGradient id="paint35_linear_521_43942" x1="1255.37" y1="241.161" x2="1470" y2="202.589" gradientUnits="userSpaceOnUse">
<stop stop-color="#072B55"/>
<stop offset="1" stop-color="#0085F0"/>
</linearGradient>
<linearGradient id="paint36_linear_521_43942" x1="1259.55" y1="233.661" x2="1468.95" y2="195.527" gradientUnits="userSpaceOnUse">
<stop stop-color="#072B55"/>
<stop offset="1" stop-color="#0085F0"/>
</linearGradient>
<linearGradient id="paint37_linear_521_43942" x1="1264.21" y1="226.742" x2="1468.03" y2="189.686" gradientUnits="userSpaceOnUse">
<stop stop-color="#072B55"/>
<stop offset="1" stop-color="#0085F0"/>
</linearGradient>
<linearGradient id="paint38_linear_521_43942" x1="1269.12" y1="220.147" x2="1467.4" y2="184.281" gradientUnits="userSpaceOnUse">
<stop stop-color="#072B55"/>
<stop offset="1" stop-color="#0085F0"/>
</linearGradient>
<linearGradient id="paint39_linear_521_43942" x1="1273.78" y1="214.132" x2="1467.2" y2="179.694" gradientUnits="userSpaceOnUse">
<stop stop-color="#072B55"/>
<stop offset="1" stop-color="#0085F0"/>
</linearGradient>
<linearGradient id="paint40_linear_521_43942" x1="1279.67" y1="207.212" x2="1466.45" y2="174.235" gradientUnits="userSpaceOnUse">
<stop stop-color="#072B55"/>
<stop offset="1" stop-color="#0085F0"/>
</linearGradient>
<linearGradient id="paint41_linear_521_43942" x1="1289.08" y1="199.698" x2="1461.27" y2="170.203" gradientUnits="userSpaceOnUse">
<stop stop-color="#072B55"/>
<stop offset="1" stop-color="#0085F0"/>
</linearGradient>
<linearGradient id="paint42_linear_521_43942" x1="1307.11" y1="189.059" x2="1452.94" y2="165.201" gradientUnits="userSpaceOnUse">
<stop stop-color="#072B55"/>
<stop offset="1" stop-color="#0085F0"/>
</linearGradient>
<linearGradient id="paint43_linear_521_43942" x1="1347.29" y1="169.245" x2="1438.31" y2="155.922" gradientUnits="userSpaceOnUse">
<stop stop-color="#072B55"/>
<stop offset="1" stop-color="#0085F0"/>
</linearGradient>
<linearGradient id="paint44_linear_521_43942" x1="1388.03" y1="139.804" x2="1407.13" y2="137.384" gradientUnits="userSpaceOnUse">
<stop stop-color="#072B55"/>
<stop offset="1" stop-color="#0085F0"/>
</linearGradient>
<clipPath id="clip0_521_43942">
<rect width="1440" height="326" fill="white"/>
</clipPath>
<clipPath id="clip1_521_43942">
<rect width="1486" height="326" fill="white" transform="translate(-23)"/>
</clipPath>
</defs>
</svg>
