<svg width="32" height="32" viewBox="0 0 32 32" fill="none" xmlns="http://www.w3.org/2000/svg">
<g id="fire">
<path id="Vector" d="M27 18C27 20.9174 25.8411 23.7153 23.7782 25.7782C21.7153 27.8411 18.9174 29 16 29C13.0826 29 10.2847 27.8411 8.22183 25.7782C6.15893 23.7153 5 20.9174 5 18C5 14.51 6.375 10.9412 9.0825 7.39373C9.1682 7.2814 9.27674 7.18851 9.40095 7.12117C9.52516 7.05384 9.66223 7.01359 9.80313 7.00308C9.94403 6.99257 10.0856 7.01203 10.2184 7.06019C10.3512 7.10835 10.4723 7.18411 10.5737 7.28248L13.5887 10.2087L16.3388 2.65748C16.3937 2.50687 16.484 2.37168 16.6022 2.2633C16.7203 2.15493 16.8628 2.07654 17.0175 2.03475C17.1723 1.99296 17.3349 1.989 17.4915 2.0232C17.6481 2.05739 17.7942 2.12874 17.9175 2.23123C20.6512 4.49998 27 10.5687 27 18ZM25 18C25 12.2387 20.5262 7.25998 17.7237 4.70873L14.94 12.3425C14.8829 12.4993 14.7874 12.6393 14.6623 12.7497C14.5372 12.8602 14.3865 12.9376 14.2238 12.9748C14.0612 13.0121 13.8918 13.0081 13.7311 12.9631C13.5704 12.9182 13.4235 12.8337 13.3038 12.7175L10.0075 9.51998C8.01125 12.4012 7 15.25 7 18C7 20.3869 7.94821 22.6761 9.63604 24.3639C11.3239 26.0518 13.6131 27 16 27C18.3869 27 20.6761 26.0518 22.364 24.3639C24.0518 22.6761 25 20.3869 25 18Z" fill="#A9DFDA"/>
<path id="Vector_2" d="M22.9862 19.1675C22.7269 20.6159 22.0301 21.9501 20.9895 22.9904C19.949 24.0307 18.6147 24.7273 17.1662 24.9863C17.1113 24.9951 17.0557 24.9997 17 25C16.7491 24.9999 16.5075 24.9056 16.3229 24.7357C16.1384 24.5658 16.0244 24.3328 16.0037 24.0828C15.9829 23.8328 16.0569 23.5842 16.2108 23.3861C16.3648 23.1881 16.5876 23.0552 16.835 23.0138C18.9062 22.665 20.6637 20.9075 21.015 18.8325C21.0594 18.5709 21.2059 18.3377 21.4223 18.1842C21.6387 18.0306 21.9072 17.9693 22.1687 18.0138C22.4303 18.0582 22.6635 18.2047 22.8171 18.4211C22.9706 18.6374 23.0319 18.9059 22.9875 19.1675H22.9862Z" fill="#FF8A76"/>
</g>
</svg>
