<svg width="32" height="32" viewBox="0 0 32 32" fill="none" xmlns="http://www.w3.org/2000/svg">
    <g id="fire">
    <path id="Vector" d="M27 17.9998C27 20.9172 25.8411 23.7151 23.7782 25.778C21.7153 27.8409 18.9174 28.9998 16 28.9998C13.0826 28.9998 10.2847 27.8409 8.22183 25.778C6.15893 23.7151 5 20.9172 5 17.9998C5 14.5098 6.375 10.941 9.0825 7.39355C9.1682 7.28122 9.27674 7.18833 9.40095 7.12099C9.52516 7.05365 9.66223 7.01341 9.80313 7.00289C9.94403 6.99238 10.0856 7.01185 10.2184 7.06001C10.3512 7.10817 10.4723 7.18393 10.5737 7.2823L13.5887 10.2085L16.3388 2.6573C16.3937 2.50669 16.484 2.3715 16.6022 2.26312C16.7203 2.15474 16.8628 2.07636 17.0175 2.03457C17.1723 1.99278 17.3349 1.98882 17.4915 2.02301C17.6481 2.05721 17.7942 2.12856 17.9175 2.23105C20.6512 4.4998 27 10.5685 27 17.9998ZM25 17.9998C25 12.2385 20.5262 7.2598 17.7237 4.70855L14.94 12.3423C14.8829 12.4991 14.7874 12.6391 14.6623 12.7495C14.5372 12.86 14.3865 12.9374 14.2238 12.9747C14.0612 13.0119 13.8918 13.0079 13.7311 12.963C13.5704 12.918 13.4235 12.8336 13.3038 12.7173L10.0075 9.5198C8.01125 12.401 7 15.2498 7 17.9998C7 20.3867 7.94821 22.6759 9.63604 24.3638C11.3239 26.0516 13.6131 26.9998 16 26.9998C18.3869 26.9998 20.6761 26.0516 22.364 24.3638C24.0518 22.6759 25 20.3867 25 17.9998Z" fill="#02293B"/>
    <path id="Vector_2" d="M22.9862 19.1674C22.7269 20.6158 22.0301 21.9499 20.9895 22.9903C19.949 24.0306 18.6147 24.7271 17.1662 24.9861C17.1113 24.9949 17.0557 24.9995 17 24.9999C16.7491 24.9998 16.5075 24.9055 16.3229 24.7356C16.1384 24.5657 16.0244 24.3327 16.0037 24.0827C15.9829 23.8327 16.0569 23.584 16.2108 23.386C16.3648 23.188 16.5876 23.0551 16.835 23.0136C18.9062 22.6649 20.6637 20.9074 21.015 18.8324C21.0594 18.5708 21.2059 18.3376 21.4223 18.1841C21.6387 18.0305 21.9072 17.9692 22.1687 18.0136C22.4303 18.0581 22.6635 18.2046 22.8171 18.4209C22.9706 18.6373 23.0319 18.9058 22.9875 19.1674H22.9862Z" fill="#FF8A76"/>
    </g>
    </svg>
