<svg width="24" height="24" viewBox="0 0 24 24" fill="none" xmlns="http://www.w3.org/2000/svg">
<g id="Icon/In">
<g id="Vector">
<path d="M6.92442 9.11688H3.21913V20.2497H6.92442V9.11688Z" fill="#1F1F1F"/>
<path d="M7.16844 5.67298C7.14439 4.58141 6.3638 3.75 5.09624 3.75C3.82868 3.75 3 4.58141 3 5.67298C3 6.74194 3.80419 7.59728 5.04814 7.59728H5.07182C6.3638 7.59728 7.16844 6.74194 7.16844 5.67298Z" fill="#1F1F1F"/>
<path d="M20.2871 13.8665C20.2871 10.4469 18.4592 8.85542 16.0209 8.85542C14.0537 8.85542 13.1729 9.93598 12.6811 10.694V9.11713H8.97536C9.0242 10.1618 8.97536 20.25 8.97536 20.25H12.6811V14.0325C12.6811 13.6998 12.7051 13.3679 12.8031 13.1296C13.0709 12.4649 13.6806 11.7767 14.7043 11.7767C16.0456 11.7767 16.5818 12.7976 16.5818 14.2936V20.2497H20.287L20.2871 13.8665Z" fill="#1F1F1F"/>
</g>
</g>
</svg>
