<svg width="32" height="32" viewBox="0 0 32 32" fill="none" xmlns="http://www.w3.org/2000/svg">
<g id="Left caret">
<path id="Vector" d="M20.7075 25.2925C20.8004 25.3854 20.8741 25.4957 20.9244 25.6171C20.9747 25.7385 21.0006 25.8686 21.0006 26C21.0006 26.1314 20.9747 26.2615 20.9244 26.3829C20.8741 26.5043 20.8004 26.6146 20.7075 26.7075C20.6146 26.8004 20.5043 26.8741 20.3829 26.9244C20.2615 26.9747 20.1314 27.0006 20 27.0006C19.8686 27.0006 19.7385 26.9747 19.6171 26.9244C19.4957 26.8741 19.3854 26.8004 19.2925 26.7075L9.29249 16.7075C9.19952 16.6146 9.12576 16.5043 9.07543 16.3829C9.02511 16.2615 8.99921 16.1314 8.99921 16C8.99921 15.8686 9.02511 15.7385 9.07543 15.6171C9.12576 15.4957 9.19952 15.3854 9.29249 15.2925L19.2925 5.2925C19.4801 5.10486 19.7346 4.99944 20 4.99944C20.2654 4.99944 20.5199 5.10486 20.7075 5.2925C20.8951 5.48014 21.0006 5.73464 21.0006 6C21.0006 6.26536 20.8951 6.51986 20.7075 6.7075L11.4137 16L20.7075 25.2925Z" fill="#262626"/>
</g>
</svg>
