<?xml version="1.0" encoding="utf-8"?><svg xmlns="http://www.w3.org/2000/svg" viewBox="0 0 40 40" style="enable-background:new 0 0 40 40"><path d="M19.2 14.5c-3.3 0-6.4 1.1-8.8 3.3V1.4c0-.3-.3-.6-.6-.6-.1 0-.3 0-.3.1L5.6 3.1c-.1 0-.1.1-.1.3v34.8c0 .3.3.6.6.6H10c.3 0 .6-.3.6-.6v-2.3c2.3 2.2 5.5 3.5 8.8 3.3 7.2 0 12.7-5.4 12.7-12.4s-5.7-12.3-12.9-12.3m0 20.1c-4.1.1-7.6-3.2-7.7-7.5v-.4c-.1-4.1 3.2-7.7 7.3-7.7h.4c4.1-.1 7.6 3.2 7.7 7.5v.4c.1 4.1-3.2 7.7-7.3 7.7h-.4" style="fill:#FFFFFF"/><path d="M34.5 11.4c0 1.7-1.4 3-3 3s-3-1.4-3-3 1.4-3 3-3c1.8 0 3 1.4 3 3" style="fill:#FF9D8C"/></svg>