<svg width="32" height="32" viewBox="0 0 32 32" fill="none" xmlns="http://www.w3.org/2000/svg">
<g id="Right caret">
<path id="Vector" d="M22.7074 16.7075L12.7074 26.7075C12.6145 26.8004 12.5042 26.8741 12.3828 26.9244C12.2614 26.9747 12.1313 27.0006 11.9999 27.0006C11.8686 27.0006 11.7384 26.9747 11.617 26.9244C11.4957 26.8741 11.3854 26.8004 11.2924 26.7075C11.1995 26.6146 11.1258 26.5043 11.0756 26.3829C11.0253 26.2615 10.9994 26.1314 10.9994 26C10.9994 25.8686 11.0253 25.7385 11.0756 25.6171C11.1258 25.4957 11.1995 25.3854 11.2924 25.2925L20.5862 16L11.2924 6.7075C11.1048 6.51986 10.9994 6.26536 10.9994 6C10.9994 5.73464 11.1048 5.48014 11.2924 5.2925C11.4801 5.10486 11.7346 4.99944 11.9999 4.99944C12.2653 4.99944 12.5198 5.10486 12.7074 5.2925L22.7074 15.2925C22.8004 15.3854 22.8742 15.4957 22.9245 15.6171C22.9748 15.7385 23.0007 15.8686 23.0007 16C23.0007 16.1314 22.9748 16.2615 22.9245 16.3829C22.8742 16.5043 22.8004 16.6146 22.7074 16.7075Z" fill="#262626"/>
</g>
</svg>
