<svg width="32" height="32" viewBox="0 0 32 32" fill="none" xmlns="http://www.w3.org/2000/svg">
<g id="sparkle">
<path id="Vector" d="M24.6975 16.1324L18.2463 13.7574L15.8713 7.30112C15.7306 6.91903 15.4761 6.58927 15.1422 6.35635C14.8083 6.12342 14.4109 5.99854 14.0038 5.99854C13.5966 5.99854 13.1992 6.12342 12.8653 6.35635C12.5314 6.58927 12.2769 6.91903 12.1363 7.30112L9.75876 13.7499L3.30251 16.1249C2.92042 16.2655 2.59066 16.52 2.35774 16.8539C2.12481 17.1879 1.99992 17.5852 1.99992 17.9924C1.99992 18.3995 2.12481 18.7969 2.35774 19.1308C2.59066 19.4648 2.92042 19.7192 3.30251 19.8599L9.75001 22.2499L12.125 28.7024C12.2657 29.0845 12.5201 29.4142 12.8541 29.6471C13.188 29.8801 13.5854 30.0049 13.9925 30.0049C14.3997 30.0049 14.797 29.8801 15.131 29.6471C15.4649 29.4142 15.7194 29.0845 15.86 28.7024L18.235 22.2511L24.6913 19.8761C25.0733 19.7355 25.4031 19.481 25.636 19.1471C25.8689 18.8131 25.9938 18.4158 25.9938 18.0086C25.9938 17.6015 25.8689 17.2041 25.636 16.8702C25.4031 16.5362 25.0733 16.2818 24.6913 16.1411L24.6975 16.1324ZM17.5488 20.3749C17.2785 20.4741 17.0331 20.6309 16.8296 20.8344C16.626 21.038 16.4692 21.2834 16.37 21.5536L13.995 27.9861L11.625 21.5486C11.5257 21.2798 11.3694 21.0357 11.1668 20.8331C10.9642 20.6304 10.7201 20.4741 10.4513 20.3749L4.01876 17.9999L10.4513 15.6249C10.7201 15.5256 10.9642 15.3693 11.1668 15.1667C11.3694 14.964 11.5257 14.7199 11.625 14.4511L14 8.01862L16.375 14.4511C16.4742 14.7214 16.631 14.9668 16.8346 15.1703C17.0381 15.3739 17.2835 15.5307 17.5538 15.6299L23.9863 18.0049L17.5488 20.3749Z" fill="#02293B"/>
<path id="Vector_2" d="M18 5C18 4.73478 18.1053 4.48043 18.2929 4.29289C18.4804 4.10536 18.7348 4 19 4H21V2C21 1.73478 21.1053 1.48043 21.2929 1.29289C21.4804 1.10536 21.7348 1 22 1C22.2652 1 22.5195 1.10536 22.7071 1.29289C22.8946 1.48043 23 1.73478 23 2V4H25C25.2652 4 25.5195 4.10536 25.7071 4.29289C25.8946 4.48043 26 4.73478 26 5C26 5.26522 25.8946 5.51957 25.7071 5.70711C25.5195 5.89464 25.2652 6 25 6H23V8C23 8.26522 22.8946 8.51957 22.7071 8.70711C22.5195 8.89464 22.2652 9 22 9C21.7348 9 21.4804 8.89464 21.2929 8.70711C21.1053 8.51957 21 8.26522 21 8V6H19C18.7348 6 18.4804 5.89464 18.2929 5.70711C18.1053 5.51957 18 5.26522 18 5ZM31 11C31 11.2652 30.8946 11.5196 30.7071 11.7071C30.5195 11.8946 30.2652 12 30 12H29V13C29 13.2652 28.8946 13.5196 28.7071 13.7071C28.5195 13.8946 28.2652 14 28 14C27.7348 14 27.4804 13.8946 27.2929 13.7071C27.1053 13.5196 27 13.2652 27 13V12H26C25.7348 12 25.4804 11.8946 25.2929 11.7071C25.1053 11.5196 25 11.2652 25 11C25 10.7348 25.1053 10.4804 25.2929 10.2929C25.4804 10.1054 25.7348 10 26 10H27V9C27 8.73478 27.1053 8.48043 27.2929 8.29289C27.4804 8.10536 27.7348 8 28 8C28.2652 8 28.5195 8.10536 28.7071 8.29289C28.8946 8.48043 29 8.73478 29 9V10H30C30.2652 10 30.5195 10.1054 30.7071 10.2929C30.8946 10.4804 31 10.7348 31 11Z" fill="#FF8A76"/>
</g>
</svg>
