<svg width="32" height="32" viewBox="0 0 32 32" fill="none" xmlns="http://www.w3.org/2000/svg">
<g id="sparkle">
<path id="Vector" d="M24.6975 16.1325L18.2462 13.7575L15.8712 7.30124C15.7306 6.91915 15.4761 6.5894 15.1422 6.35647C14.8082 6.12355 14.4109 5.99866 14.0037 5.99866C13.5966 5.99866 13.1992 6.12355 12.8653 6.35647C12.5313 6.5894 12.2769 6.91915 12.1362 7.30124L9.75871 13.75L3.30246 16.125C2.92037 16.2656 2.59062 16.5201 2.35769 16.854C2.12477 17.188 1.99988 17.5853 1.99988 17.9925C1.99988 18.3996 2.12477 18.797 2.35769 19.1309C2.59062 19.4649 2.92037 19.7193 3.30246 19.86L9.74996 22.25L12.125 28.7025C12.2656 29.0846 12.5201 29.4143 12.854 29.6473C13.188 29.8802 13.5853 30.0051 13.9925 30.0051C14.3996 30.0051 14.797 29.8802 15.1309 29.6473C15.4649 29.4143 15.7193 29.0846 15.86 28.7025L18.235 22.2512L24.6912 19.8762C25.0733 19.7356 25.4031 19.4811 25.636 19.1472C25.8689 18.8132 25.9938 18.4159 25.9938 18.0087C25.9938 17.6016 25.8689 17.2042 25.636 16.8703C25.4031 16.5363 25.0733 16.2819 24.6912 16.1412L24.6975 16.1325ZM17.5487 20.375C17.2785 20.4742 17.0331 20.631 16.8295 20.8345C16.626 21.0381 16.4691 21.2835 16.37 21.5537L13.995 27.9862L11.625 21.5487C11.5257 21.2799 11.3694 21.0358 11.1668 20.8332C10.9641 20.6306 10.72 20.4743 10.4512 20.375L4.01871 18L10.4512 15.625C10.72 15.5257 10.9641 15.3694 11.1668 15.1668C11.3694 14.9642 11.5257 14.72 11.625 14.4512L14 8.01874L16.375 14.4512C16.4741 14.7215 16.631 14.9669 16.8345 15.1704C17.0381 15.374 17.2835 15.5308 17.5537 15.63L23.9862 18.005L17.5487 20.375Z" fill="#A9DFDA"/>
<path id="Vector_2" d="M18 5C18 4.73478 18.1054 4.48043 18.2929 4.29289C18.4804 4.10536 18.7348 4 19 4H21V2C21 1.73478 21.1054 1.48043 21.2929 1.29289C21.4804 1.10536 21.7348 1 22 1C22.2652 1 22.5196 1.10536 22.7071 1.29289C22.8946 1.48043 23 1.73478 23 2V4H25C25.2652 4 25.5196 4.10536 25.7071 4.29289C25.8946 4.48043 26 4.73478 26 5C26 5.26522 25.8946 5.51957 25.7071 5.70711C25.5196 5.89464 25.2652 6 25 6H23V8C23 8.26522 22.8946 8.51957 22.7071 8.70711C22.5196 8.89464 22.2652 9 22 9C21.7348 9 21.4804 8.89464 21.2929 8.70711C21.1054 8.51957 21 8.26522 21 8V6H19C18.7348 6 18.4804 5.89464 18.2929 5.70711C18.1054 5.51957 18 5.26522 18 5ZM31 11C31 11.2652 30.8946 11.5196 30.7071 11.7071C30.5196 11.8946 30.2652 12 30 12H29V13C29 13.2652 28.8946 13.5196 28.7071 13.7071C28.5196 13.8946 28.2652 14 28 14C27.7348 14 27.4804 13.8946 27.2929 13.7071C27.1054 13.5196 27 13.2652 27 13V12H26C25.7348 12 25.4804 11.8946 25.2929 11.7071C25.1054 11.5196 25 11.2652 25 11C25 10.7348 25.1054 10.4804 25.2929 10.2929C25.4804 10.1054 25.7348 10 26 10H27V9C27 8.73478 27.1054 8.48043 27.2929 8.29289C27.4804 8.10536 27.7348 8 28 8C28.2652 8 28.5196 8.10536 28.7071 8.29289C28.8946 8.48043 29 8.73478 29 9V10H30C30.2652 10 30.5196 10.1054 30.7071 10.2929C30.8946 10.4804 31 10.7348 31 11Z" fill="#FF8A76"/>
</g>
</svg>
