<svg width="32" height="32" viewBox="0 0 32 32" fill="none" xmlns="http://www.w3.org/2000/svg">
<g id="Start">
<path id="Vector" d="M4.345 5.25003C4.23742 5.34328 4.15099 5.45842 4.09149 5.58776C4.032 5.71711 4.0008 5.85766 4 6.00003V27C4 27.2652 4.10536 27.5196 4.29289 27.7071C4.48043 27.8947 4.73478 28 5 28C5.26522 28 5.51957 27.8947 5.70711 27.7071C5.89464 27.5196 6 27.2652 6 27V21.4713C9.34875 18.8263 12.2337 20.2525 15.5562 21.8975C17.6062 22.9113 19.8137 24.0038 22.1812 24.0038C23.9225 24.0038 25.7488 23.41 27.6588 21.7538C27.7663 21.6605 27.8528 21.5454 27.9123 21.416C27.9718 21.2867 28.0029 21.1461 28.0037 21.0038V6.00003C28.0033 5.80809 27.9476 5.62033 27.8433 5.45917C27.7391 5.29802 27.5906 5.17028 27.4157 5.0912C27.2408 5.01212 27.0469 4.98505 26.857 5.01321C26.6672 5.04137 26.4894 5.12358 26.345 5.25003C22.845 8.27878 19.88 6.81128 16.4438 5.11003C12.8838 3.34503 8.8475 1.34878 4.345 5.25003ZM26 20.5313C22.6512 23.1763 19.7663 21.7488 16.4438 20.105C13.3188 18.5613 9.8425 16.8388 6 19.055V6.47378C9.34875 3.82878 12.2337 5.25503 15.5562 6.89878C18.6812 8.44253 22.1588 10.165 26 7.94878V20.5313Z" fill="#072B55"/>
</g>
</svg>
