<svg width="33" height="32" viewBox="0 0 33 32" fill="none" xmlns="http://www.w3.org/2000/svg">
<g id="Start">
<path id="Vector" d="M4.67801 5.25003C4.57043 5.34328 4.484 5.45842 4.4245 5.58776C4.365 5.71711 4.33381 5.85766 4.33301 6.00003V27C4.33301 27.2652 4.43836 27.5196 4.6259 27.7071C4.81344 27.8947 5.06779 28 5.33301 28C5.59822 28 5.85258 27.8947 6.04011 27.7071C6.22765 27.5196 6.33301 27.2652 6.33301 27V21.4713C9.68176 18.8263 12.5668 20.2525 15.8893 21.8975C17.9393 22.9113 20.1468 24.0038 22.5143 24.0038C24.2555 24.0038 26.0818 23.41 27.9918 21.7538C28.0993 21.6605 28.1858 21.5454 28.2453 21.416C28.3048 21.2867 28.336 21.1461 28.3368 21.0038V6.00003C28.3363 5.80809 28.2806 5.62033 28.1764 5.45917C28.0721 5.29802 27.9236 5.17028 27.7488 5.0912C27.5739 5.01212 27.3799 4.98505 27.19 5.01321C27.0002 5.04137 26.8224 5.12358 26.678 5.25003C23.178 8.27878 20.213 6.81128 16.7768 5.11003C13.2168 3.34503 9.18051 1.34878 4.67801 5.25003ZM26.333 20.5313C22.9843 23.1763 20.0993 21.7488 16.7768 20.105C13.6518 18.5613 10.1755 16.8388 6.33301 19.055V6.47378C9.68176 3.82878 12.5668 5.25503 15.8893 6.89878C19.0143 8.44253 22.4918 10.165 26.333 7.94878V20.5313Z" fill="#9CAABB"/>
</g>
</svg>
