<?xml version="1.0" encoding="UTF-8"?>
<svg width="13px" height="13px" viewBox="0 0 13 13" version="1.1" xmlns="http://www.w3.org/2000/svg" xmlns:xlink="http://www.w3.org/1999/xlink">
    <!-- Generator: Sketch 52.6 (67491) - http://www.bohemiancoding.com/sketch -->
    <title>Icons / Circle / Green</title>
    <desc>Created with Sketch.</desc>
    <g id="Dev-Portal-work-v2" stroke="none" stroke-width="1" fill="none" fill-rule="evenodd">
        <g id="Gateway-base-page" transform="translate(-694.000000, -365.000000)">
            <g id="Icons-/-Alert-/-OK-/-Green" transform="translate(694.000000, 365.000000)">
                <g id="icon-ok-circled">
                    <circle id="Oval" fill="#FFFFFF" fill-rule="nonzero" cx="6.5" cy="6.5" r="5.73529412"></circle>
                    <path d="M12.9917081,6.50057542 C13.0132834,7.65712404 12.7134678,8.79695421 12.1256667,9.79306593 C11.5534449,10.75577 10.7496108,11.5599786 9.78735503,12.1324671 C8.77942658,12.690512 7.64832301,12.9883096 6.49639782,12.998912 C5.3403878,13.0204973 4.20108845,12.720542 3.20544061,12.1324671 C2.22437179,11.5845277 1.41481311,10.7745918 0.867128913,9.79306593 C0.309343837,8.78466788 0.011685001,7.6530373 0.00108754272,6.50057542 C-0.0204877287,5.3440268 0.27932789,4.20419663 0.867128913,3.20808491 C1.43935075,2.2453808 2.24318483,1.4411722 3.20544061,0.868683758 C4.19724149,0.271440449 5.3392256,-0.0292217002 6.49639782,0.00223888727 C7.65357005,-0.0292217002 8.79555415,0.271440449 9.78735503,0.868683758 C10.7303309,1.46562668 11.5290018,2.26466966 12.1256667,3.20808491 C12.752292,4.1875754 13.0552562,5.33937573 12.9917081,6.50057542 Z M10.8266047,5.11426363 C10.8266047,4.94097465 10.8266047,4.85433016 10.6533964,4.76768568 L9.9605633,3.98788529 C9.86507601,3.89667034 9.74437711,3.83629277 9.61414675,3.81459632 C9.4573027,3.83410259 9.30814913,3.89379181 9.18112607,3.98788529 L5.71696059,7.45366478 L3.81166957,5.54748606 C3.74227253,5.42450528 3.60523006,5.35595212 3.46525302,5.37419709 C3.30265943,5.36661038 3.14474275,5.42980649 3.03223234,5.54748606 L2.25279511,6.24064196 C2.18278718,6.37367737 2.15271191,6.52412381 2.16619097,6.67386439 C2.16619097,6.84715337 2.16619097,6.93379785 2.25279511,7.02044234 L5.2839399,10.0529994 C5.37942719,10.1442143 5.50012609,10.2045919 5.63035645,10.2262884 C5.76602666,10.2236901 5.8932932,10.1600271 5.976773,10.0529994 L10.5667923,5.46084157 C10.8266047,5.37419709 10.8266047,5.2875526 10.8266047,5.11426363 Z" id="Shape" fill="#527D27" fill-rule="nonzero"></path>
                </g>
            </g>
        </g>
    </g>
</svg>