<svg width="1280" height="200" viewBox="0 0 1280 200" fill="none" xmlns="http://www.w3.org/2000/svg">
<g clip-path="url(#clip0_7888_25610)">
<rect width="1280" height="200" fill="#2E2E2E"/>
<circle cx="911.5" cy="-53.5" r="293.5" fill="#1F1F1F"/>
<g opacity="0.5" filter="url(#filter0_f_7888_25610)">
<circle cx="1224.5" cy="226.5" r="293.5" fill="#1A1A1A"/>
</g>
<circle cx="1024" cy="-72" r="345" stroke="#FF7C66" stroke-width="2"/>
<ellipse cx="876.318" cy="103.012" rx="37.5529" ry="37.5529" fill="white"/>
<path d="M907.941 103.012C907.941 109.266 906.087 115.381 902.612 120.581C899.137 125.781 894.198 129.835 888.42 132.228C882.641 134.622 876.283 135.248 870.148 134.028C864.014 132.808 858.379 129.796 853.957 125.373C849.534 120.951 846.522 115.316 845.302 109.181C844.082 103.047 844.708 96.6886 847.102 90.9101C849.495 85.1317 853.548 80.1928 858.749 76.718C863.949 73.2431 870.063 71.3884 876.318 71.3884C880.471 71.3884 884.583 72.2064 888.42 73.7956C892.256 75.3849 895.743 77.7142 898.679 80.6507C901.616 83.5873 903.945 87.0734 905.534 90.9101C907.123 94.7469 907.941 98.8591 907.941 103.012Z" fill="white"/>
<path d="M878.98 95.8636C875.261 95.8167 871.663 97.1872 868.918 99.6967V80.877C868.918 80.7693 868.89 80.6635 868.837 80.5701C868.783 80.4767 868.706 80.3991 868.613 80.3451C868.52 80.2911 868.414 80.2627 868.306 80.2626C868.199 80.2625 868.093 80.2908 868 80.3446L863.461 83.0065C863.412 83.0348 863.371 83.0756 863.343 83.1247C863.315 83.1738 863.301 83.2295 863.301 83.286V123.082C863.305 123.243 863.37 123.397 863.484 123.511C863.598 123.625 863.752 123.69 863.914 123.694H868.306C868.468 123.694 868.624 123.629 868.739 123.515C868.853 123.4 868.918 123.244 868.918 123.082V120.42C871.655 122.949 875.254 124.338 878.98 124.306C882.746 124.306 886.359 122.81 889.022 120.147C891.685 117.483 893.181 113.871 893.181 110.105C893.181 106.338 891.685 102.726 889.022 100.063C886.359 97.3997 882.746 95.9035 878.98 95.9035M878.98 118.982C877.214 118.993 875.485 118.479 874.011 117.505C872.538 116.532 871.387 115.143 870.703 113.514C870.02 111.886 869.836 110.091 870.174 108.358C870.512 106.625 871.357 105.031 872.602 103.778C873.847 102.526 875.436 101.671 877.167 101.323C878.899 100.974 880.694 101.148 882.327 101.821C883.959 102.495 885.355 103.638 886.337 105.105C887.32 106.573 887.844 108.299 887.844 110.065C887.875 111.24 887.667 112.409 887.233 113.501C886.799 114.593 886.149 115.586 885.32 116.42C884.491 117.254 883.502 117.91 882.412 118.351C881.323 118.791 880.155 119.006 878.98 118.982Z" fill="#072B55"/>
<path d="M896.562 92.5232C896.562 93.2129 896.358 93.8871 895.974 94.4606C895.591 95.034 895.047 95.481 894.409 95.7449C893.772 96.0088 893.071 96.0779 892.395 95.9433C891.718 95.8088 891.097 95.4767 890.609 94.989C890.122 94.5013 889.789 93.88 889.655 93.2035C889.52 92.5271 889.589 91.826 889.853 91.1888C890.117 90.5516 890.564 90.007 891.138 89.6238C891.711 89.2407 892.385 89.0361 893.075 89.0361C894 89.0361 894.887 89.4035 895.541 90.0575C896.195 90.7114 896.562 91.5984 896.562 92.5232Z" fill="#FF7C66"/>
<rect x="936" y="20" width="39.5294" height="39.5294" rx="12" fill="white"/>
<path d="M967.806 33.0678C967.725 32.9865 967.628 32.9219 967.522 32.8779C967.416 32.8339 967.302 32.8112 967.187 32.8112C967.072 32.8112 966.958 32.8339 966.852 32.8779C966.745 32.9219 966.649 32.9865 966.568 33.0678L962.812 36.8249L958.799 32.8119L962.556 29.056C962.72 28.8918 962.812 28.6691 962.812 28.4369C962.812 28.2047 962.72 27.982 962.556 27.8178C962.392 27.6536 962.169 27.5614 961.937 27.5614C961.705 27.5614 961.482 27.6536 961.318 27.8178L957.562 31.5749L954.681 28.6928C954.517 28.5286 954.294 28.4364 954.062 28.4364C953.83 28.4364 953.607 28.5286 953.443 28.6928C953.279 28.857 953.186 29.0797 953.186 29.3119C953.186 29.5441 953.279 29.7668 953.443 29.931L954.137 30.6244L948.34 36.4213C947.934 36.8275 947.612 37.3098 947.392 37.8406C947.172 38.3715 947.059 38.9404 947.059 39.5149C947.059 40.0895 947.172 40.6584 947.392 41.1892C947.612 41.72 947.934 42.2023 948.34 42.6086L950.059 44.3269L944.693 49.6928C944.611 49.7741 944.547 49.8706 944.503 49.9769C944.459 50.0831 944.436 50.1969 944.436 50.3119C944.436 50.4269 944.459 50.5407 944.503 50.6469C944.547 50.7531 944.611 50.8497 944.693 50.931C944.857 51.0951 945.08 51.1874 945.312 51.1874C945.427 51.1874 945.541 51.1647 945.647 51.1207C945.753 51.0767 945.85 51.0122 945.931 50.931L951.3 45.5617L953.018 47.28C953.425 47.6863 953.907 48.0086 954.438 48.2285C954.969 48.4483 955.537 48.5615 956.112 48.5615C956.687 48.5615 957.255 48.4483 957.786 48.2285C958.317 48.0086 958.799 47.6863 959.206 47.28L965.003 41.4831L965.696 42.1777C965.777 42.259 965.874 42.3235 965.98 42.3675C966.086 42.4114 966.2 42.4341 966.315 42.4341C966.43 42.4341 966.544 42.4114 966.65 42.3675C966.756 42.3235 966.853 42.259 966.934 42.1777C967.015 42.0964 967.08 41.9999 967.124 41.8936C967.168 41.7874 967.191 41.6736 967.191 41.5586C967.191 41.4436 967.168 41.3298 967.124 41.2236C967.08 41.1174 967.015 41.0208 966.934 40.9395L964.049 38.0619L967.806 34.306C967.887 34.2247 967.952 34.1282 967.996 34.022C968.04 33.9157 968.062 33.8019 968.062 33.6869C968.062 33.5719 968.04 33.458 967.996 33.3518C967.952 33.2456 967.887 33.1491 967.806 33.0678ZM957.969 46.0463C957.725 46.2902 957.435 46.4836 957.117 46.6156C956.798 46.7477 956.457 46.8156 956.112 46.8156C955.767 46.8156 955.426 46.7477 955.107 46.6156C954.789 46.4836 954.499 46.2902 954.255 46.0463L949.577 41.3683C949.333 41.1245 949.14 40.8351 949.008 40.5165C948.876 40.1979 948.808 39.8565 948.808 39.5117C948.808 39.1668 948.876 38.8254 949.008 38.5068C949.14 38.1882 949.333 37.8988 949.577 37.655L955.374 31.8581L963.762 40.2494L957.969 46.0463Z" fill="url(#paint0_linear_7888_25610)"/>
<rect x="935.612" y="141" width="39.5294" height="39.5294" rx="12" fill="white"/>
<rect x="1064.34" y="124.753" width="39.5294" height="39.5294" rx="12" fill="white"/>
<path d="M1094.6 135.767H1073.6C1073.14 135.767 1072.7 135.952 1072.37 136.28C1072.04 136.608 1071.85 137.053 1071.85 137.517V151.517C1071.85 151.981 1072.04 152.427 1072.37 152.755C1072.7 153.083 1073.14 153.267 1073.6 153.267H1094.6C1095.07 153.267 1095.51 153.083 1095.84 152.755C1096.17 152.427 1096.35 151.981 1096.35 151.517V137.517C1096.35 137.053 1096.17 136.608 1095.84 136.28C1095.51 135.952 1095.07 135.767 1094.6 135.767ZM1094.6 137.517V140.142H1073.6V137.517H1094.6ZM1094.6 151.517H1073.6V141.892H1094.6V151.517ZM1092.85 148.892C1092.85 149.124 1092.76 149.347 1092.6 149.511C1092.43 149.675 1092.21 149.767 1091.98 149.767H1088.48C1088.25 149.767 1088.03 149.675 1087.86 149.511C1087.7 149.347 1087.6 149.124 1087.6 148.892C1087.6 148.66 1087.7 148.438 1087.86 148.274C1088.03 148.11 1088.25 148.017 1088.48 148.017H1091.98C1092.21 148.017 1092.43 148.11 1092.6 148.274C1092.76 148.438 1092.85 148.66 1092.85 148.892ZM1085.85 148.892C1085.85 149.124 1085.76 149.347 1085.6 149.511C1085.43 149.675 1085.21 149.767 1084.98 149.767H1083.23C1083 149.767 1082.78 149.675 1082.61 149.511C1082.45 149.347 1082.35 149.124 1082.35 148.892C1082.35 148.66 1082.45 148.438 1082.61 148.274C1082.78 148.11 1083 148.017 1083.23 148.017H1084.98C1085.21 148.017 1085.43 148.11 1085.6 148.274C1085.76 148.438 1085.85 148.66 1085.85 148.892Z" fill="url(#paint1_linear_7888_25610)"/>
<rect x="1099" y="41.7412" width="39.5294" height="39.5294" rx="12" fill="white"/>
<rect x="987" y="83.2471" width="39.5294" height="39.5294" rx="12" fill="white"/>
<path d="M1006.76 91.6367C1000.88 91.6367 996.265 94.3273 996.265 97.7617V108.262C996.265 111.696 1000.88 114.387 1006.76 114.387C1012.65 114.387 1017.26 111.696 1017.26 108.262V97.7617C1017.26 94.3273 1012.65 91.6367 1006.76 91.6367ZM1015.51 103.012C1015.51 104.064 1014.65 105.137 1013.15 105.956C1011.46 106.878 1009.19 107.387 1006.76 107.387C1004.34 107.387 1002.07 106.878 1000.38 105.956C998.877 105.137 998.015 104.064 998.015 103.012V101.192C999.881 102.832 1003.07 103.887 1006.76 103.887C1010.46 103.887 1013.65 102.828 1015.51 101.192V103.012ZM1000.38 94.8173C1002.07 93.8953 1004.34 93.3867 1006.76 93.3867C1009.19 93.3867 1011.46 93.8953 1013.15 94.8173C1014.65 95.6366 1015.51 96.7095 1015.51 97.7617C1015.51 98.8139 1014.65 99.8869 1013.15 100.706C1011.46 101.628 1009.19 102.137 1006.76 102.137C1004.34 102.137 1002.07 101.628 1000.38 100.706C998.877 99.8869 998.015 98.8139 998.015 97.7617C998.015 96.7095 998.877 95.6366 1000.38 94.8173ZM1013.15 111.206C1011.46 112.128 1009.19 112.637 1006.76 112.637C1004.34 112.637 1002.07 112.128 1000.38 111.206C998.877 110.387 998.015 109.314 998.015 108.262V106.442C999.881 108.082 1003.07 109.137 1006.76 109.137C1010.46 109.137 1013.65 108.078 1015.51 106.442V108.262C1015.51 109.314 1014.65 110.387 1013.15 111.206Z" fill="url(#paint2_linear_7888_25610)"/>
<path d="M784 73L843 73" stroke="#FF7C66" stroke-width="1.5" stroke-linecap="round"/>
<path d="M813 81L837 81" stroke="#FF7C66" stroke-width="1.5" stroke-linecap="round"/>
<path d="M805 89L833 89" stroke="#FF7C66" stroke-width="1.5" stroke-linecap="round"/>
<path d="M917.824 103.012L983.047 103.012" stroke="#FF7C66" stroke-width="1.5" stroke-linecap="round"/>
<path d="M955.377 63.4824L955.377 136.522" stroke="#FF7C66" stroke-width="1.5" stroke-linecap="round"/>
<path d="M1006.76 79.2941C1006.76 78.4603 1006.76 74.3288 1006.76 69.9768C1006.76 65.2987 1010.56 61.5059 1015.24 61.5059H1094" stroke="#FF7C66" stroke-width="1.5" stroke-linecap="round"/>
<path d="M1006.76 126.729C1006.76 127.563 1006.76 131.695 1006.76 136.047C1006.76 140.725 1010.56 144.518 1015.24 144.518H1058.39" stroke="#FF7C66" stroke-width="1.5" stroke-linecap="round"/>
<path d="M1130.38 66.375H1129.5V55.875C1129.5 55.1788 1129.22 54.5111 1128.73 54.0188C1128.24 53.5266 1127.57 53.25 1126.88 53.25H1111.12C1110.43 53.25 1109.76 53.5266 1109.27 54.0188C1108.78 54.5111 1108.5 55.1788 1108.5 55.875V66.375H1107.62C1107.39 66.375 1107.17 66.4672 1107.01 66.6313C1106.84 66.7954 1106.75 67.0179 1106.75 67.25V69C1106.75 69.6962 1107.03 70.3639 1107.52 70.8562C1108.01 71.3484 1108.68 71.625 1109.38 71.625H1128.62C1129.32 71.625 1129.99 71.3484 1130.48 70.8562C1130.97 70.3639 1131.25 69.6962 1131.25 69V67.25C1131.25 67.0179 1131.16 66.7954 1130.99 66.6313C1130.83 66.4672 1130.61 66.375 1130.38 66.375ZM1110.25 55.875C1110.25 55.6429 1110.34 55.4204 1110.51 55.2563C1110.67 55.0922 1110.89 55 1111.12 55H1126.88C1127.11 55 1127.33 55.0922 1127.49 55.2563C1127.66 55.4204 1127.75 55.6429 1127.75 55.875V66.375H1110.25V55.875ZM1129.5 69C1129.5 69.2321 1129.41 69.4546 1129.24 69.6187C1129.08 69.7828 1128.86 69.875 1128.62 69.875H1109.38C1109.14 69.875 1108.92 69.7828 1108.76 69.6187C1108.59 69.4546 1108.5 69.2321 1108.5 69V68.125H1129.5V69ZM1121.62 57.625C1121.62 57.8571 1121.53 58.0796 1121.37 58.2437C1121.2 58.4078 1120.98 58.5 1120.75 58.5H1117.25C1117.02 58.5 1116.8 58.4078 1116.63 58.2437C1116.47 58.0796 1116.38 57.8571 1116.38 57.625C1116.38 57.3929 1116.47 57.1704 1116.63 57.0063C1116.8 56.8422 1117.02 56.75 1117.25 56.75H1120.75C1120.98 56.75 1121.2 56.8422 1121.37 57.0063C1121.53 57.1704 1121.62 57.3929 1121.62 57.625Z" fill="url(#paint3_linear_7888_25610)"/>
<path d="M966.226 152.399C965.901 152.073 965.515 151.816 965.091 151.64C964.666 151.464 964.211 151.373 963.751 151.373C963.291 151.373 962.836 151.464 962.412 151.64C961.987 151.816 961.601 152.073 961.276 152.399C961.056 152.619 960.866 152.867 960.712 153.138L957.625 152.296C957.635 151.599 957.436 150.916 957.055 150.333C956.674 149.75 956.128 149.294 955.487 149.023C954.845 148.752 954.137 148.679 953.454 148.813C952.77 148.947 952.142 149.281 951.65 149.774C951.124 150.3 950.78 150.981 950.667 151.717C950.553 152.452 950.677 153.205 951.02 153.865L947.308 157.207C946.634 156.762 945.828 156.562 945.024 156.643C944.221 156.724 943.47 157.079 942.899 157.65C942.26 158.284 941.89 159.14 941.866 160.04C941.841 160.94 942.165 161.814 942.769 162.482C943.373 163.15 944.211 163.559 945.109 163.625C946.006 163.69 946.895 163.408 947.59 162.835L955.246 168.453C955.001 169.066 954.935 169.737 955.055 170.386C955.175 171.036 955.476 171.638 955.924 172.124C956.372 172.61 956.949 172.958 957.586 173.13C958.224 173.302 958.898 173.29 959.529 173.095C960.161 172.9 960.724 172.53 961.154 172.029C961.584 171.527 961.863 170.914 961.959 170.26C962.055 169.607 961.965 168.939 961.697 168.335C961.43 167.731 960.997 167.214 960.449 166.846L963.445 158.359C963.546 158.368 963.646 158.373 963.747 158.373C964.439 158.372 965.115 158.167 965.691 157.783C966.266 157.398 966.715 156.852 966.98 156.212C967.245 155.573 967.314 154.869 967.179 154.191C967.044 153.512 966.711 152.888 966.222 152.399H966.226ZM952.883 151.011C953.127 150.766 953.439 150.6 953.779 150.532C954.118 150.465 954.47 150.5 954.789 150.632C955.109 150.765 955.382 150.989 955.575 151.277C955.767 151.564 955.869 151.903 955.869 152.249C955.869 152.595 955.767 152.933 955.575 153.221C955.382 153.508 955.109 153.733 954.789 153.865C954.47 153.998 954.118 154.033 953.779 153.965C953.439 153.898 953.127 153.731 952.883 153.487C952.72 153.324 952.591 153.131 952.504 152.918C952.416 152.706 952.371 152.478 952.372 152.248C952.372 152.018 952.418 151.79 952.506 151.578C952.595 151.366 952.724 151.173 952.887 151.011H952.883ZM944.133 161.363C943.97 161.2 943.841 161.007 943.753 160.795C943.665 160.582 943.619 160.355 943.619 160.125C943.619 159.895 943.665 159.667 943.753 159.455C943.841 159.242 943.97 159.049 944.133 158.887C944.377 158.642 944.689 158.476 945.029 158.408C945.368 158.341 945.72 158.376 946.039 158.508C946.359 158.641 946.632 158.865 946.825 159.153C947.017 159.44 947.119 159.779 947.119 160.125C947.119 160.471 947.017 160.809 946.825 161.097C946.632 161.385 946.359 161.609 946.039 161.741C945.72 161.874 945.368 161.909 945.029 161.841C944.689 161.774 944.377 161.607 944.133 161.363ZM959.735 170.988C959.407 171.316 958.962 171.501 958.497 171.501C958.033 171.501 957.588 171.316 957.26 170.988C956.932 170.66 956.747 170.215 956.747 169.75C956.747 169.286 956.932 168.841 957.26 168.513C957.422 168.35 957.615 168.221 957.828 168.133C958.04 168.045 958.267 168 958.497 168C958.727 168 958.955 168.045 959.167 168.133C959.379 168.221 959.572 168.35 959.735 168.513C959.897 168.675 960.026 168.868 960.114 169.081C960.202 169.293 960.248 169.521 960.248 169.75C960.248 169.98 960.202 170.208 960.114 170.42C960.026 170.632 959.897 170.825 959.735 170.988ZM958.8 166.265C957.892 166.186 956.99 166.464 956.284 167.039L948.628 161.422C948.813 160.954 948.896 160.451 948.871 159.949C948.846 159.446 948.713 158.954 948.481 158.507L952.195 155.166C952.594 155.431 953.044 155.61 953.516 155.694C953.987 155.778 954.471 155.764 954.938 155.653C955.404 155.543 955.843 155.337 956.226 155.05C956.61 154.763 956.93 154.4 957.168 153.983L960.25 154.827C960.242 155.408 960.379 155.983 960.648 156.499C960.918 157.014 961.312 157.455 961.794 157.78L958.8 166.265ZM964.986 156.111C964.826 156.284 964.633 156.422 964.418 156.519C964.203 156.615 963.971 156.667 963.735 156.672C963.5 156.676 963.265 156.633 963.047 156.545C962.828 156.457 962.63 156.326 962.464 156.159C962.297 155.992 962.166 155.794 962.078 155.575C961.99 155.357 961.947 155.123 961.952 154.887C961.957 154.652 962.009 154.419 962.105 154.205C962.202 153.99 962.341 153.797 962.514 153.637C962.842 153.308 963.288 153.124 963.752 153.124C964.216 153.124 964.661 153.308 964.989 153.637C965.318 153.965 965.502 154.41 965.502 154.874C965.502 155.338 965.318 155.784 964.989 156.112L964.986 156.111Z" fill="url(#paint4_linear_7888_25610)"/>
</g>
<defs>
<filter id="filter0_f_7888_25610" x="930.5" y="-67.5" width="588" height="588" filterUnits="userSpaceOnUse" color-interpolation-filters="sRGB">
<feFlood flood-opacity="0" result="BackgroundImageFix"/>
<feBlend mode="normal" in="SourceGraphic" in2="BackgroundImageFix" result="shape"/>
<feGaussianBlur stdDeviation="0.25" result="effect1_foregroundBlur_7888_25610"/>
</filter>
<linearGradient id="paint0_linear_7888_25610" x1="944.436" y1="51.1874" x2="968.062" y2="27.5612" gradientUnits="userSpaceOnUse">
<stop offset="0.0252946" stop-color="#A03291"/>
<stop offset="0.814342" stop-color="#FF7C66"/>
</linearGradient>
<linearGradient id="paint1_linear_7888_25610" x1="1071.85" y1="153.267" x2="1088.41" y2="130.092" gradientUnits="userSpaceOnUse">
<stop offset="0.0252946" stop-color="#A03291"/>
<stop offset="0.814342" stop-color="#FF7C66"/>
</linearGradient>
<linearGradient id="paint2_linear_7888_25610" x1="996.265" y1="114.387" x2="1018.94" y2="93.4538" gradientUnits="userSpaceOnUse">
<stop stop-color="#4B4FE2"/>
<stop offset="1" stop-color="#0EC38B"/>
</linearGradient>
<linearGradient id="paint3_linear_7888_25610" x1="1106.75" y1="71.625" x2="1124.39" y2="48.105" gradientUnits="userSpaceOnUse">
<stop stop-color="#A03291"/>
<stop offset="1" stop-color="#4B4FE2"/>
</linearGradient>
<linearGradient id="paint4_linear_7888_25610" x1="941.864" y1="173.251" x2="966.352" y2="147.884" gradientUnits="userSpaceOnUse">
<stop offset="0.0252946" stop-color="#A03291"/>
<stop offset="0.814342" stop-color="#FF7C66"/>
</linearGradient>
<clipPath id="clip0_7888_25610">
<rect width="1280" height="200" fill="white"/>
</clipPath>
</defs>
</svg>
