<svg id="Layer_1" data-name="Layer 1" xmlns="http://www.w3.org/2000/svg" xmlns:xlink="http://www.w3.org/1999/xlink" viewBox="0 0 1326 150"><defs><style>.cls-1{fill:url(#linear-gradient);}.cls-2{fill:url(#linear-gradient-2);}.cls-3{fill:url(#linear-gradient-3);}.cls-4{fill:url(#linear-gradient-4);}.cls-5{fill:url(#linear-gradient-5);}.cls-6{fill:url(#linear-gradient-6);}.cls-7{fill:url(#linear-gradient-7);}.cls-8{fill:none;}.cls-9{fill:#003d58;}.cls-10{fill:#df6d59;opacity:0.5;}.cls-11{fill:#ff7c66;}.cls-12{fill:#426e82;}.cls-13{opacity:0.2;}.cls-14{clip-path:url(#clip-path);}.cls-15{clip-path:url(#clip-path-3);}.cls-16{mask:url(#mask);}.cls-17{fill:url(#linear-gradient-8);}.cls-18{clip-path:url(#clip-path-4);}.cls-19{mask:url(#mask-2);}.cls-20{fill:url(#linear-gradient-9);}.cls-21{clip-path:url(#clip-path-5);}.cls-22{mask:url(#mask-3);}.cls-23{fill:url(#linear-gradient-10);}.cls-24{clip-path:url(#clip-path-6);}.cls-25{mask:url(#mask-4);}.cls-26{fill:url(#linear-gradient-11);}.cls-27{clip-path:url(#clip-path-7);}.cls-28{mask:url(#mask-5);}.cls-29{fill:url(#linear-gradient-12);}.cls-30{clip-path:url(#clip-path-8);}.cls-31{mask:url(#mask-6);}.cls-32{fill:url(#linear-gradient-13);}.cls-33{clip-path:url(#clip-path-9);}.cls-34{mask:url(#mask-7);}.cls-35{fill:url(#linear-gradient-14);}.cls-36{fill:#fff;}.cls-37{opacity:0.4;}.cls-38{clip-path:url(#clip-path-11);}.cls-39{clip-path:url(#clip-path-12);}</style><linearGradient id="linear-gradient" x1="977.52" y1="-83.28" x2="978.77" y2="-83.28" gradientTransform="matrix(263.02, 0, 0, -263.02, -256744.6, -21867.17)" gradientUnits="userSpaceOnUse"><stop offset="0"/><stop offset="0.14" stop-color="#090909"/><stop offset="0.37" stop-color="#212121"/><stop offset="0.66" stop-color="#494949"/><stop offset="1" stop-color="gray"/><stop offset="1" stop-color="gray"/></linearGradient><linearGradient id="linear-gradient-2" x1="977.28" y1="-83.32" x2="978.53" y2="-83.32" gradientTransform="matrix(263.02, 0, 0, -263.02, -256989.87, -21830.24)" xlink:href="#linear-gradient"/><linearGradient id="linear-gradient-3" x1="977.51" y1="-83.32" x2="978.77" y2="-83.32" gradientTransform="matrix(266.02, 0, 0, -266.02, -259730.66, -22060.71)" xlink:href="#linear-gradient"/><linearGradient id="linear-gradient-4" x1="977.61" y1="-83.3" x2="978.87" y2="-83.3" gradientTransform="matrix(265.25, 0, 0, -265.25, -258861.52, -22024.75)" xlink:href="#linear-gradient"/><linearGradient id="linear-gradient-5" x1="976.09" y1="-83.53" x2="977.34" y2="-83.53" gradientTransform="matrix(201.78, 0, 0, -201.78, -196965.73, -16801.38)" xlink:href="#linear-gradient"/><linearGradient id="linear-gradient-6" x1="975.53" y1="-83.69" x2="976.79" y2="-83.69" gradientTransform="matrix(169.32, 0, 0, -169.32, -164863.02, -14151.94)" xlink:href="#linear-gradient"/><linearGradient id="linear-gradient-7" x1="972.07" y1="-84.69" x2="973.32" y2="-84.69" gradientTransform="matrix(103.27, 0, 0, -103.27, -100063.77, -8606.88)" xlink:href="#linear-gradient"/><clipPath id="clip-path"><rect class="cls-8" x="-9.65" y="12.8" width="815" height="131.6"/></clipPath><clipPath id="clip-path-3"><rect class="cls-8" x="357.53" y="32.52" width="329.88" height="8.34"/></clipPath><mask id="mask" x="357.53" y="32.52" width="329.88" height="8.34" maskUnits="userSpaceOnUse"><rect class="cls-1" x="357.53" y="32.52" width="329.88" height="8.34"/></mask><linearGradient id="linear-gradient-8" x1="977.52" y1="-83.28" x2="978.77" y2="-83.28" gradientTransform="matrix(263.02, 0, 0, -263.02, -256744.6, -21867.17)" gradientUnits="userSpaceOnUse"><stop offset="0" stop-color="#fff"/><stop offset="1" stop-color="#fff"/></linearGradient><clipPath id="clip-path-4"><rect class="cls-8" x="49.91" y="78.84" width="329.88" height="8.34"/></clipPath><mask id="mask-2" x="49.91" y="78.84" width="329.88" height="8.34" maskUnits="userSpaceOnUse"><rect class="cls-2" x="49.91" y="78.84" width="329.88" height="8.34"/></mask><linearGradient id="linear-gradient-9" x1="977.28" y1="-83.32" x2="978.53" y2="-83.32" gradientTransform="matrix(263.02, 0, 0, -263.02, -256989.87, -21830.24)" xlink:href="#linear-gradient-8"/><clipPath id="clip-path-5"><rect class="cls-8" x="303.56" y="100.2" width="333.64" height="8.34"/></clipPath><mask id="mask-3" x="303.56" y="100.2" width="333.64" height="8.34" maskUnits="userSpaceOnUse"><rect class="cls-3" x="303.56" y="100.2" width="333.64" height="8.34"/></mask><linearGradient id="linear-gradient-10" x1="977.51" y1="-83.32" x2="978.77" y2="-83.32" gradientTransform="matrix(266.02, 0, 0, -266.02, -259730.66, -22060.71)" xlink:href="#linear-gradient-8"/><clipPath id="clip-path-6"><rect class="cls-8" x="447.58" y="64.45" width="332.68" height="10.93"/></clipPath><mask id="mask-4" x="447.58" y="64.45" width="332.68" height="10.93" maskUnits="userSpaceOnUse"><rect class="cls-4" x="447.58" y="64.45" width="332.68" height="10.93"/></mask><linearGradient id="linear-gradient-11" x1="977.61" y1="-83.3" x2="978.87" y2="-83.3" gradientTransform="matrix(265.25, 0, 0, -265.25, -258861.52, -22024.75)" xlink:href="#linear-gradient-8"/><clipPath id="clip-path-7"><rect class="cls-8" x="-9.65" y="49.95" width="253.08" height="8.34"/></clipPath><mask id="mask-5" x="-9.65" y="49.95" width="253.08" height="8.34" maskUnits="userSpaceOnUse"><rect class="cls-5" x="-9.65" y="49.95" width="253.08" height="8.34"/></mask><linearGradient id="linear-gradient-12" x1="976.09" y1="-83.53" x2="977.34" y2="-83.53" gradientTransform="matrix(201.78, 0, 0, -201.78, -196965.7, -16801.38)" xlink:href="#linear-gradient-8"/><clipPath id="clip-path-8"><rect class="cls-8" x="312.64" y="13.93" width="212.36" height="8.34"/></clipPath><mask id="mask-6" x="312.64" y="13.93" width="212.36" height="8.34" maskUnits="userSpaceOnUse"><rect class="cls-6" x="312.64" y="13.93" width="212.36" height="8.34"/></mask><linearGradient id="linear-gradient-13" x1="975.53" y1="-83.69" x2="976.79" y2="-83.69" gradientTransform="matrix(169.32, 0, 0, -169.32, -164863.03, -14151.94)" xlink:href="#linear-gradient-8"/><clipPath id="clip-path-9"><rect class="cls-8" x="326" y="134.93" width="129.53" height="8.34"/></clipPath><mask id="mask-7" x="326" y="134.93" width="129.53" height="8.34" maskUnits="userSpaceOnUse"><rect class="cls-7" x="326" y="134.93" width="129.53" height="8.34"/></mask><linearGradient id="linear-gradient-14" x1="972.07" y1="-84.69" x2="973.32" y2="-84.69" gradientTransform="matrix(103.27, 0, 0, -103.27, -100063.77, -8606.88)" xlink:href="#linear-gradient-8"/><clipPath id="clip-path-11"><rect class="cls-8" x="118.65" y="48.82" width="448.72" height="95.58"/></clipPath><clipPath id="clip-path-12"><rect class="cls-8" x="11.9" y="22.72" width="270.36" height="65.59"/></clipPath></defs><rect class="cls-9" x="-8.84" y="-1" width="1338.71" height="152"/><g id="Platform_Wheel_v3" data-name="Platform Wheel v3"><path class="cls-10" d="M1222,135a60,60,0,1,1,60-60A60.07,60.07,0,0,1,1222,135Zm0-104.66A44.66,44.66,0,1,0,1266.61,75,44.71,44.71,0,0,0,1222,30.34Z"/><path class="cls-11" d="M1222,128.1a53.1,53.1,0,1,1,53.1-53.1A53.16,53.16,0,0,1,1222,128.1Zm0-104.66A51.56,51.56,0,1,0,1273.51,75,51.62,51.62,0,0,0,1222,23.44Z"/><circle class="cls-9" cx="1274.28" cy="75" r="10.68"/><path class="cls-11" d="M1274.28,63.13A11.87,11.87,0,1,0,1286.15,75,11.86,11.86,0,0,0,1274.28,63.13ZM1273,71.37l-2.49,1.43v4.39l2.49,1.44v3.05h0l-5.12-3V71.27l5.12-3Zm7.76,7.36-5.12,3V78.63l2.48-1.43V72.81l-2.49-1.44V68.32h0l5.13,3Z"/><circle class="cls-9" cx="1248.11" cy="29.68" r="10.68"/><path class="cls-11" d="M1248.11,17.81A11.87,11.87,0,1,0,1260,29.68,11.87,11.87,0,0,0,1248.11,17.81Zm1.32,18.46V33.64h-7.91V31h13.19Zm5.28-7.91h-13.19l5.27-5.28v2.64h7.92Z"/><circle class="cls-9" cx="1248.11" cy="120.32" r="10.68"/><path class="cls-11" d="M1248.11,108.45A11.87,11.87,0,1,0,1260,120.32,11.87,11.87,0,0,0,1248.11,108.45Zm9.24,11.87a9.53,9.53,0,0,1-.11,1.32h-4.84l-5.28,5.28h-5.46a9.34,9.34,0,0,1-1.88-2.64H1246l5.27-5.28h5.94A9.53,9.53,0,0,1,1257.35,120.32Zm-9.33-9.23-5.27,5.27h-3A9.27,9.27,0,0,1,1248,111.09Zm-9,7.91h4.85l5.28-5.27h5.44a9.1,9.1,0,0,1,1.88,2.63h-6.23l-5.28,5.28H1239a8,8,0,0,1,0-2.64Zm9.23,10.55,5.27-5.27h3A9.23,9.23,0,0,1,1248.22,129.55Z"/><circle class="cls-9" cx="1195.78" cy="29.68" r="10.68"/><path class="cls-11" d="M1193.59,25.87l-2.2,3.8,2.19,3.81H1198l2.21-3.81-2.2-3.8Zm2.19-8.06a11.87,11.87,0,1,0,11.87,11.87A11.86,11.86,0,0,0,1195.78,17.81ZM1202.46,31h0l-2.2,3.8,1.23,2.12a9.33,9.33,0,0,1-2.29,1.33L1198,36.13h-4.4l-1.22,2.13a9.09,9.09,0,0,1-2.28-1.33l1.22-2.11h0L1189.1,31h-2.45a8.76,8.76,0,0,1,0-2.64h2.45l2.2-3.79-1.22-2.13a9.05,9.05,0,0,1,2.28-1.32l1.22,2.12h4.4l1.22-2.13a9.29,9.29,0,0,1,2.29,1.32l-1.23,2.12h0l2.19,3.8h2.45a8.76,8.76,0,0,1,0,2.64Z"/><circle class="cls-9" cx="1195.78" cy="120.32" r="10.68"/><path class="cls-11" d="M1195.78,108.45a11.87,11.87,0,1,0,11.87,11.87A11.86,11.86,0,0,0,1195.78,108.45Zm.93,6.27a2.63,2.63,0,0,1,3.49-.19,2.66,2.66,0,0,0-1.16.66l-4.66,4.66a.66.66,0,0,0,0,.94l.46.46-1.39,1.4-.47-.46a2.64,2.64,0,0,1,0-3.73Zm2.06,7.22a2.53,2.53,0,0,0-.66-1.15l-1.4-1.4,1.4-1.4.47.47A2.62,2.62,0,0,1,1198.77,121.94Zm-10-4.88,2.33-2.34a2.64,2.64,0,0,1,3.73,0l-1.39,1.4a.68.68,0,0,0-.94,0l-3.26,3.27-.47-.47A1.32,1.32,0,0,1,1188.78,117.06Zm6.06,8.86a2.64,2.64,0,0,1-3.73,0l-3.73-3.73a2.63,2.63,0,0,1-.19-3.49,2.53,2.53,0,0,0,.66,1.15l4.66,4.67a.68.68,0,0,0,.94,0l3.26-3.27.47.47a1.32,1.32,0,0,1,0,1.86Zm9.33-3.73-3.73,3.73a2.64,2.64,0,0,1-3.73,0l1.4-1.4a.67.67,0,0,0,.93,0l3.73-3.73a.66.66,0,0,0,0-.94l-3.26-3.26.46-.47a1.33,1.33,0,0,1,1.87,0l1.4,1.4.93.94A2.64,2.64,0,0,1,1204.17,122.19Z"/><circle class="cls-9" cx="1169.61" cy="75" r="10.68"/><path class="cls-11" d="M1169.61,63.13A11.87,11.87,0,1,0,1181.49,75,11.87,11.87,0,0,0,1169.61,63.13Zm0,21.1V81.59a6.59,6.59,0,1,1,0-13.18V65.77a9.23,9.23,0,1,1,0,18.46Z"/><path class="cls-11" d="M1176.21,75a6.59,6.59,0,0,0-6.6-6.59V81.59A6.59,6.59,0,0,0,1176.21,75Z"/><path class="cls-12" d="M1222,102.31a1,1,0,0,1-.52-.16L1193.26,84a1,1,0,0,1-.44-.8,1,1,0,0,1,.44-.81l28.17-18.17a1,1,0,0,1,1,0l28.16,18.17a1,1,0,0,1,.44.81,1,1,0,0,1-.44.8l-28.16,18.17A1,1,0,0,1,1222,102.31Zm-26.4-19.13,26.4,17,26.39-17-26.39-17Z"/><path class="cls-12" d="M1222,94.13a1,1,0,0,1-.52-.15l-28.17-18.17a1,1,0,0,1,0-1.62L1221.43,56a1,1,0,0,1,1,0l28.16,18.17a1,1,0,0,1,0,1.62L1222.47,94A1,1,0,0,1,1222,94.13ZM1195.55,75,1222,92l26.39-17L1222,58Z"/><path class="cls-12" d="M1222,86a1,1,0,0,1-.52-.15l-28.17-18.17a1,1,0,0,1-.44-.81,1,1,0,0,1,.44-.8l28.17-18.17a.94.94,0,0,1,1,0L1250.63,66a1,1,0,0,1,.44.8,1,1,0,0,1-.44.81L1222.47,85.8A1,1,0,0,1,1222,86Zm-26.4-19.13,26.4,17,26.39-17-26.39-17Z"/><rect class="cls-12" x="1221.04" y="72.22" width="1.82" height="1.92"/><rect class="cls-12" x="1221.04" y="68.59" width="1.82" height="1.92"/><rect class="cls-12" x="1221.04" y="75.86" width="1.82" height="1.92"/><rect class="cls-12" x="1224.67" y="72.22" width="1.82" height="1.92"/><rect class="cls-12" x="1228.31" y="74.04" width="1.82" height="1.92"/><rect class="cls-12" x="1213.77" y="74.04" width="1.82" height="1.92"/><rect class="cls-12" x="1224.67" y="75.86" width="1.82" height="1.92"/><rect class="cls-12" x="1217.4" y="72.22" width="1.82" height="1.92"/><rect class="cls-12" x="1217.4" y="75.86" width="1.82" height="1.92"/><rect class="cls-12" x="1221.04" y="79.49" width="1.82" height="1.92"/></g><g id="Sprites_White_RGB" class="cls-13"><g class="cls-14"><g class="cls-14"><g class="cls-15"><g class="cls-16"><rect class="cls-17" x="357.53" y="32.52" width="329.88" height="8.34"/></g></g><g class="cls-18"><g class="cls-19"><rect class="cls-20" x="49.91" y="78.84" width="329.88" height="8.34"/></g></g><g class="cls-21"><g class="cls-22"><rect class="cls-23" x="303.56" y="100.2" width="333.64" height="8.34"/></g></g><g class="cls-24"><g class="cls-25"><rect class="cls-26" x="447.58" y="64.45" width="332.68" height="10.93"/></g></g><g class="cls-27"><g class="cls-28"><rect class="cls-29" x="-9.65" y="49.95" width="253.08" height="8.34"/></g></g><g class="cls-30"><g class="cls-31"><rect class="cls-32" x="312.64" y="13.93" width="212.36" height="8.34"/></g></g><g class="cls-33"><g class="cls-34"><rect class="cls-35" x="326" y="134.93" width="129.53" height="8.34"/></g></g><g class="cls-14"><path class="cls-36" d="M539.62,139.1a5.3,5.3,0,1,1-5.3-5.3,5.3,5.3,0,0,1,5.3,5.3"/><path class="cls-36" d="M693.66,36.69a5.3,5.3,0,1,1-5.3-5.3,5.3,5.3,0,0,1,5.3,5.3"/><path class="cls-36" d="M386,83a5.3,5.3,0,1,1-5.3-5.3A5.3,5.3,0,0,1,386,83"/><path class="cls-36" d="M643.46,104.37a5.3,5.3,0,1,1-5.3-5.29,5.3,5.3,0,0,1,5.3,5.29"/><rect class="cls-36" x="546.97" y="99.08" width="10.6" height="10.6"/><path class="cls-36" d="M212.45,117.61a5.3,5.3,0,1,1-5.3-5.3,5.3,5.3,0,0,1,5.3,5.3"/><path class="cls-36" d="M791.55,83.71a13.8,13.8,0,1,1,13.8-13.8,13.81,13.81,0,0,1-13.8,13.8m0-21.32a7.53,7.53,0,1,0,7.53,7.52,7.52,7.52,0,0,0-7.53-7.52"/><path class="cls-36" d="M262.55,131.4a13.8,13.8,0,1,1,13.8-13.79,13.81,13.81,0,0,1-13.8,13.79m0-21.32a7.53,7.53,0,1,0,7.53,7.53,7.54,7.54,0,0,0-7.53-7.53"/><rect class="cls-36" x="300.57" y="48.82" width="10.6" height="10.6"/><rect class="cls-36" x="242.45" y="48.82" width="10.6" height="10.6"/><path class="cls-36" d="M504.33,104.37a5.3,5.3,0,1,1-5.3-5.29,5.3,5.3,0,0,1,5.3,5.29"/><path class="cls-36" d="M671.92,104.37a5.3,5.3,0,1,1-5.3-5.29,5.3,5.3,0,0,1,5.3,5.29"/><path class="cls-36" d="M519.7,18.1a5.3,5.3,0,1,1,5.3,5.3,5.29,5.29,0,0,1-5.3-5.3"/><path class="cls-36" d="M450.23,139.1a5.3,5.3,0,1,1,5.3,5.3,5.3,5.3,0,0,1-5.3-5.3"/><g class="cls-37"><g class="cls-38"><path class="cls-36" d="M129.25,117.61a5.3,5.3,0,1,1-5.3-5.3,5.29,5.29,0,0,1,5.3,5.3"/><path class="cls-36" d="M383,54.12a5.3,5.3,0,1,1-5.3-5.3,5.3,5.3,0,0,1,5.3,5.3"/><path class="cls-36" d="M567.37,139.1a5.3,5.3,0,1,1-5.3-5.3,5.3,5.3,0,0,1,5.3,5.3"/></g></g><g class="cls-37"><g class="cls-39"><path class="cls-36" d="M282.26,28a5.3,5.3,0,1,1-5.3-5.3,5.3,5.3,0,0,1,5.3,5.3"/><rect class="cls-36" x="11.9" y="77.71" width="10.6" height="10.6"/><path class="cls-36" d="M185.13,83a5.3,5.3,0,1,1-5.3-5.3,5.3,5.3,0,0,1,5.3,5.3"/></g></g></g></g></g></g></svg>