<svg width="32" height="32" viewBox="0 0 32 32" fill="none" xmlns="http://www.w3.org/2000/svg">
<g id="API Management">
<path id="Vector" fill-rule="evenodd" clip-rule="evenodd" d="M23.1012 20.112L17.4546 23.3643V20.0072L20.1936 18.429L20.1993 13.5811L17.4546 11.9912V8.62979L17.4619 8.63556L23.1099 11.9039L23.1012 20.112ZM14.5456 11.9927L11.8052 13.5724L11.7994 18.4189L14.5456 20.0086V23.3687L14.5383 23.3657L8.88883 20.0959L8.89754 11.8895L14.5456 8.63709V11.9927ZM16.0002 2.90909C8.76961 2.90909 2.90918 8.77093 2.90918 15.9999C2.90918 23.2305 8.76961 29.0909 16.0002 29.0909C23.2292 29.0909 29.091 23.2305 29.091 15.9999C29.091 8.77093 23.2292 2.90909 16.0002 2.90909Z" fill="url(#paint0_linear_9726_13631)"/>
</g>
<defs>
<linearGradient id="paint0_linear_9726_13631" x1="2.90918" y1="29.0909" x2="29.091" y2="2.90909" gradientUnits="userSpaceOnUse">
<stop stop-color="#A03291"/>
<stop offset="1" stop-color="#FF7C66"/>
</linearGradient>
</defs>
</svg>
