<svg width="32" height="32" viewBox="0 0 32 32" fill="none" xmlns="http://www.w3.org/2000/svg">
<g id="BoomiPlatform">
<g id="Vector">
<path fill-rule="evenodd" clip-rule="evenodd" d="M16 4.25C9.51089 4.25 4.25 9.51089 4.25 16C4.25 22.4891 9.51089 27.75 16 27.75C22.4891 27.75 27.75 22.4891 27.75 16C27.75 9.51089 22.4891 4.25 16 4.25ZM3 16C3 8.82053 8.82053 3 16 3C23.1795 3 29 8.82053 29 16C29 23.1795 23.1795 29 16 29C8.82053 29 3 23.1795 3 16Z" fill="url(#paint0_linear_9726_13675)"/>
<path d="M20.7667 16C20.7667 18.6312 18.6312 20.7667 16 20.7667C13.3688 20.7667 11.2334 18.6312 11.2334 16C11.2334 13.3688 13.3688 11.2333 16 11.2333C18.6312 11.2333 20.7667 13.3688 20.7667 16Z" fill="url(#paint1_linear_9726_13675)"/>
<path d="M26.4138 8.65067C25.568 9.49653 24.1952 9.49653 23.3493 8.65067C22.5034 7.8048 22.5034 6.432 23.3493 5.58613C24.1952 4.74027 25.568 4.74027 26.4138 5.58613C27.2597 6.432 27.2597 7.8048 26.4138 8.65067Z" fill="url(#paint2_linear_9726_13675)"/>
<path d="M8.65072 5.58613C9.49659 6.432 9.49659 7.8048 8.65072 8.65067C7.80486 9.49653 6.43206 9.49653 5.58619 8.65067C4.74032 7.8048 4.74032 6.432 5.58619 5.58613C6.43206 4.74027 7.80486 4.74027 8.65072 5.58613Z" fill="url(#paint3_linear_9726_13675)"/>
<path d="M5.58619 23.3493C6.43206 22.5035 7.80486 22.5035 8.65072 23.3493C9.49659 24.1952 9.49659 25.568 8.65072 26.4139C7.80486 27.2597 6.43206 27.2597 5.58619 26.4139C4.74032 25.568 4.74032 24.1952 5.58619 23.3493Z" fill="url(#paint4_linear_9726_13675)"/>
<path d="M23.3493 26.4139C22.5034 25.568 22.5034 24.1952 23.3493 23.3493C24.1952 22.5035 25.568 22.5035 26.4138 23.3493C27.2597 24.1952 27.2597 25.568 26.4138 26.4139C25.568 27.2597 24.1952 27.2597 23.3493 26.4139Z" fill="url(#paint5_linear_9726_13675)"/>
</g>
</g>
<defs>
<linearGradient id="paint0_linear_9726_13675" x1="3" y1="29" x2="29" y2="3" gradientUnits="userSpaceOnUse">
<stop stop-color="#A03291"/>
<stop offset="1" stop-color="#FF7C66"/>
</linearGradient>
<linearGradient id="paint1_linear_9726_13675" x1="3" y1="29" x2="29" y2="3" gradientUnits="userSpaceOnUse">
<stop stop-color="#A03291"/>
<stop offset="1" stop-color="#FF7C66"/>
</linearGradient>
<linearGradient id="paint2_linear_9726_13675" x1="3" y1="29" x2="29" y2="3" gradientUnits="userSpaceOnUse">
<stop stop-color="#A03291"/>
<stop offset="1" stop-color="#FF7C66"/>
</linearGradient>
<linearGradient id="paint3_linear_9726_13675" x1="3" y1="29" x2="29" y2="3" gradientUnits="userSpaceOnUse">
<stop stop-color="#A03291"/>
<stop offset="1" stop-color="#FF7C66"/>
</linearGradient>
<linearGradient id="paint4_linear_9726_13675" x1="3" y1="29" x2="29" y2="3" gradientUnits="userSpaceOnUse">
<stop stop-color="#A03291"/>
<stop offset="1" stop-color="#FF7C66"/>
</linearGradient>
<linearGradient id="paint5_linear_9726_13675" x1="3" y1="29" x2="29" y2="3" gradientUnits="userSpaceOnUse">
<stop stop-color="#A03291"/>
<stop offset="1" stop-color="#FF7C66"/>
</linearGradient>
</defs>
</svg>
