<svg id="Layer_1" data-name="Layer 1" xmlns="http://www.w3.org/2000/svg" xmlns:xlink="http://www.w3.org/1999/xlink" viewBox="0 0 1800 1800"><defs><style>.cls-1{fill:none;}.cls-2{clip-path:url(#clip-path);}.cls-3{fill:#f47a67;}</style><clipPath id="clip-path"><rect class="cls-1" x="25" y="25" width="1750" height="1750"/></clipPath></defs><g id="Integration_v2_-_Coral" data-name="Integration v2 - Coral"><g class="cls-2"><g class="cls-2"><path class="cls-3" d="M900,25C416.71,25,25,416.71,25,900s391.71,875,875,875,875-391.71,875-875S1383.29,25,900,25m0,1555.56V1386.11c-268.43,0-486.11-217.68-486.11-486.11S631.57,413.89,900,413.89V219.44c375.28,0,680.56,305.28,680.56,680.56S1275.28,1580.56,900,1580.56"/><path class="cls-3" d="M1386.11,900c0-268.43-217.68-486.11-486.11-486.11v972.22c268.43,0,486.11-217.68,486.11-486.11"/></g></g></g></svg>